<?xml version="1.0" encoding="utf-8" standalone="no"?>
<!DOCTYPE svg PUBLIC "-//W3C//DTD SVG 1.1//EN"
  "http://www.w3.org/Graphics/SVG/1.1/DTD/svg11.dtd">
<svg xmlns:xlink="http://www.w3.org/1999/xlink" width="360pt" height="216pt" viewBox="0 0 360 216" xmlns="http://www.w3.org/2000/svg" version="1.1">
 <metadata>
  <rdf:RDF xmlns:dc="http://purl.org/dc/elements/1.1/" xmlns:cc="http://creativecommons.org/ns#" xmlns:rdf="http://www.w3.org/1999/02/22-rdf-syntax-ns#">
   <cc:Work>
    <dc:type rdf:resource="http://purl.org/dc/dcmitype/StillImage"/>
    <dc:date>2026-02-17T16:08:47.502429</dc:date>
    <dc:format>image/svg+xml</dc:format>
    <dc:creator>
     <cc:Agent>
      <dc:title>Matplotlib v3.9.0, https://matplotlib.org/</dc:title>
     </cc:Agent>
    </dc:creator>
   </cc:Work>
  </rdf:RDF>
 </metadata>
 <defs>
  <style type="text/css">*{stroke-linejoin: round; stroke-linecap: butt}</style>
 </defs>
 <g id="figure_1">
  <g id="patch_1">
   <path d="M 0 216 
L 360 216 
L 360 0 
L 0 0 
L 0 216 
z
" style="fill: none"/>
  </g>
  <g id="axes_1">
   <g id="line2d_1">
    <path d="M 16.363636 108 
L 28.40377 130.493859 
L 34.971116 142.333468 
L 40.443904 151.791165 
L 45.916692 160.765864 
L 50.294922 167.531139 
L 54.673153 173.87605 
L 59.051383 179.755794 
L 62.335056 183.835228 
L 65.618729 187.61337 
L 68.902402 191.075211 
L 72.186075 194.206995 
L 75.469748 196.996281 
L 78.75342 199.431987 
L 82.037093 201.504436 
L 85.320766 203.205393 
L 87.509881 204.129582 
L 89.698997 204.883998 
L 91.888112 205.467307 
L 94.077227 205.87848 
L 96.266342 206.116791 
L 98.455458 206.181818 
L 100.644573 206.073447 
L 102.833688 205.79187 
L 105.022803 205.337583 
L 107.211919 204.711388 
L 109.401034 203.914393 
L 111.590149 202.948004 
L 113.779264 201.813927 
L 117.062937 199.802862 
L 120.34661 197.427065 
L 123.630283 194.695977 
L 126.913956 191.620448 
L 130.197628 188.212696 
L 133.481301 184.486262 
L 136.764974 180.455949 
L 140.048647 176.137771 
L 144.426877 169.962217 
L 148.805108 163.349132 
L 153.183338 156.345214 
L 158.656126 147.116283 
L 164.128915 137.455918 
L 171.790818 123.410176 
L 198.060201 74.63489 
L 203.532989 65.134553 
L 209.005777 56.107003 
L 213.384007 49.292484 
L 217.762238 42.892513 
L 222.140468 36.952283 
L 225.424141 32.824178 
L 228.707814 28.994745 
L 231.991487 25.479198 
L 235.27516 22.291504 
L 238.558832 19.444328 
L 241.842505 16.948982 
L 245.126178 14.815379 
L 248.409851 13.051996 
L 250.598966 12.085607 
L 252.788081 11.288612 
L 254.977197 10.662417 
L 257.166312 10.20813 
L 259.355427 9.926553 
L 261.544542 9.818182 
L 263.733658 9.883209 
L 265.922773 10.12152 
L 268.111888 10.532693 
L 270.301003 11.116002 
L 272.490119 11.870418 
L 274.679234 12.794607 
L 276.868349 13.886937 
L 280.152022 15.836398 
L 283.435695 18.152023 
L 286.719368 20.824612 
L 290.00304 23.843546 
L 293.286713 27.196833 
L 296.570386 30.871148 
L 299.854059 34.851894 
L 303.137732 39.123257 
L 307.515962 45.240986 
L 311.894193 51.801873 
L 316.272423 58.759589 
L 321.745211 67.939689 
L 327.217999 77.561636 
L 333.785345 89.541511 
L 343.636364 108 
L 343.636364 108 
" clip-path="url(#pbeb4831670)" style="fill: none; stroke: #000000; stroke-width: 4; stroke-linecap: square"/>
   </g>
  </g>
 </g>
 <defs>
  <clipPath id="pbeb4831670">
   <rect x="0" y="0" width="360" height="216"/>
  </clipPath>
 </defs>
</svg>
