<?xml version="1.0" encoding="utf-8" standalone="no"?>
<!DOCTYPE svg PUBLIC "-//W3C//DTD SVG 1.1//EN"
  "http://www.w3.org/Graphics/SVG/1.1/DTD/svg11.dtd">
<svg xmlns:xlink="http://www.w3.org/1999/xlink" width="288pt" height="252pt" viewBox="0 0 288 252" xmlns="http://www.w3.org/2000/svg" version="1.1">
 <metadata>
  <rdf:RDF xmlns:dc="http://purl.org/dc/elements/1.1/" xmlns:cc="http://creativecommons.org/ns#" xmlns:rdf="http://www.w3.org/1999/02/22-rdf-syntax-ns#">
   <cc:Work>
    <dc:type rdf:resource="http://purl.org/dc/dcmitype/StillImage"/>
    <dc:date>2026-02-12T16:30:18.212343</dc:date>
    <dc:format>image/svg+xml</dc:format>
    <dc:creator>
     <cc:Agent>
      <dc:title>Matplotlib v3.9.0, https://matplotlib.org/</dc:title>
     </cc:Agent>
    </dc:creator>
   </cc:Work>
  </rdf:RDF>
 </metadata>
 <defs>
  <style type="text/css">*{stroke-linejoin: round; stroke-linecap: butt}</style>
 </defs>
 <g id="figure_1">
  <g id="patch_1">
   <path d="M 0 252 
L 288 252 
L 288 0 
L 0 0 
L 0 252 
z
" style="fill: none"/>
  </g>
  <g id="axes_1">
   <g id="patch_2">
    <path d="M 26.704 224.74 
L 258.68875 224.74 
L 258.68875 0 
L 26.704 0 
z
" style="fill: #ffffff"/>
   </g>
   <g id="matplotlib.axis_1">
    <g id="xtick_1">
     <g id="line2d_1">
      <defs>
       <path id="m4f288e54df" d="M 0 0 
L 0 -3.5 
" style="stroke: #000000; stroke-width: 2"/>
      </defs>
      <g>
       <use xlink:href="#m4f288e54df" x="26.704" y="224.74" style="stroke: #000000; stroke-width: 2"/>
      </g>
     </g>
    </g>
    <g id="xtick_2">
     <g id="line2d_2">
      <g>
       <use xlink:href="#m4f288e54df" x="154.295613" y="224.74" style="stroke: #000000; stroke-width: 2"/>
      </g>
     </g>
    </g>
    <g id="xtick_3">
     <g id="line2d_3">
      <g>
       <use xlink:href="#m4f288e54df" x="235.490275" y="224.74" style="stroke: #000000; stroke-width: 2"/>
      </g>
     </g>
    </g>
    <g id="text_1">
     <!-- Time -->
     <g transform="translate(113.33575 246.47625) scale(0.24 -0.24)">
      <defs>
       <path id="DejaVuSans-54" d="M -19 4666 
L 3928 4666 
L 3928 4134 
L 2272 4134 
L 2272 0 
L 1638 0 
L 1638 4134 
L -19 4134 
L -19 4666 
z
" transform="scale(0.015625)"/>
       <path id="DejaVuSans-69" d="M 603 3500 
L 1178 3500 
L 1178 0 
L 603 0 
L 603 3500 
z
M 603 4863 
L 1178 4863 
L 1178 4134 
L 603 4134 
L 603 4863 
z
" transform="scale(0.015625)"/>
       <path id="DejaVuSans-6d" d="M 3328 2828 
Q 3544 3216 3844 3400 
Q 4144 3584 4550 3584 
Q 5097 3584 5394 3201 
Q 5691 2819 5691 2113 
L 5691 0 
L 5113 0 
L 5113 2094 
Q 5113 2597 4934 2840 
Q 4756 3084 4391 3084 
Q 3944 3084 3684 2787 
Q 3425 2491 3425 1978 
L 3425 0 
L 2847 0 
L 2847 2094 
Q 2847 2600 2669 2842 
Q 2491 3084 2119 3084 
Q 1678 3084 1418 2786 
Q 1159 2488 1159 1978 
L 1159 0 
L 581 0 
L 581 3500 
L 1159 3500 
L 1159 2956 
Q 1356 3278 1631 3431 
Q 1906 3584 2284 3584 
Q 2666 3584 2933 3390 
Q 3200 3197 3328 2828 
z
" transform="scale(0.015625)"/>
       <path id="DejaVuSans-65" d="M 3597 1894 
L 3597 1613 
L 953 1613 
Q 991 1019 1311 708 
Q 1631 397 2203 397 
Q 2534 397 2845 478 
Q 3156 559 3463 722 
L 3463 178 
Q 3153 47 2828 -22 
Q 2503 -91 2169 -91 
Q 1331 -91 842 396 
Q 353 884 353 1716 
Q 353 2575 817 3079 
Q 1281 3584 2069 3584 
Q 2775 3584 3186 3129 
Q 3597 2675 3597 1894 
z
M 3022 2063 
Q 3016 2534 2758 2815 
Q 2500 3097 2075 3097 
Q 1594 3097 1305 2825 
Q 1016 2553 972 2059 
L 3022 2063 
z
" transform="scale(0.015625)"/>
      </defs>
      <use xlink:href="#DejaVuSans-54"/>
      <use xlink:href="#DejaVuSans-69" x="57.958984"/>
      <use xlink:href="#DejaVuSans-6d" x="85.742188"/>
      <use xlink:href="#DejaVuSans-65" x="183.154297"/>
     </g>
    </g>
   </g>
   <g id="matplotlib.axis_2">
    <g id="text_2">
     <!-- $V_0(t)$ [arb.] -->
     <g style="fill: #005cef" transform="translate(20.71275 177.29) rotate(-90) scale(0.24 -0.24)">
      <defs>
       <path id="DejaVuSans-Oblique-56" d="M 1319 0 
L 500 4666 
L 1119 4666 
L 1797 653 
L 4063 4666 
L 4750 4666 
L 2053 0 
L 1319 0 
z
" transform="scale(0.015625)"/>
       <path id="DejaVuSans-30" d="M 2034 4250 
Q 1547 4250 1301 3770 
Q 1056 3291 1056 2328 
Q 1056 1369 1301 889 
Q 1547 409 2034 409 
Q 2525 409 2770 889 
Q 3016 1369 3016 2328 
Q 3016 3291 2770 3770 
Q 2525 4250 2034 4250 
z
M 2034 4750 
Q 2819 4750 3233 4129 
Q 3647 3509 3647 2328 
Q 3647 1150 3233 529 
Q 2819 -91 2034 -91 
Q 1250 -91 836 529 
Q 422 1150 422 2328 
Q 422 3509 836 4129 
Q 1250 4750 2034 4750 
z
" transform="scale(0.015625)"/>
       <path id="DejaVuSans-28" d="M 1984 4856 
Q 1566 4138 1362 3434 
Q 1159 2731 1159 2009 
Q 1159 1288 1364 580 
Q 1569 -128 1984 -844 
L 1484 -844 
Q 1016 -109 783 600 
Q 550 1309 550 2009 
Q 550 2706 781 3412 
Q 1013 4119 1484 4856 
L 1984 4856 
z
" transform="scale(0.015625)"/>
       <path id="DejaVuSans-Oblique-74" d="M 2706 3500 
L 2619 3053 
L 1472 3053 
L 1100 1153 
Q 1081 1047 1072 975 
Q 1063 903 1063 863 
Q 1063 663 1183 572 
Q 1303 481 1569 481 
L 2150 481 
L 2053 0 
L 1503 0 
Q 991 0 739 200 
Q 488 400 488 806 
Q 488 878 497 964 
Q 506 1050 525 1153 
L 897 3053 
L 409 3053 
L 500 3500 
L 978 3500 
L 1172 4494 
L 1747 4494 
L 1556 3500 
L 2706 3500 
z
" transform="scale(0.015625)"/>
       <path id="DejaVuSans-29" d="M 513 4856 
L 1013 4856 
Q 1481 4119 1714 3412 
Q 1947 2706 1947 2009 
Q 1947 1309 1714 600 
Q 1481 -109 1013 -844 
L 513 -844 
Q 928 -128 1133 580 
Q 1338 1288 1338 2009 
Q 1338 2731 1133 3434 
Q 928 4138 513 4856 
z
" transform="scale(0.015625)"/>
       <path id="DejaVuSans-20" transform="scale(0.015625)"/>
       <path id="DejaVuSans-5b" d="M 550 4863 
L 1875 4863 
L 1875 4416 
L 1125 4416 
L 1125 -397 
L 1875 -397 
L 1875 -844 
L 550 -844 
L 550 4863 
z
" transform="scale(0.015625)"/>
       <path id="DejaVuSans-61" d="M 2194 1759 
Q 1497 1759 1228 1600 
Q 959 1441 959 1056 
Q 959 750 1161 570 
Q 1363 391 1709 391 
Q 2188 391 2477 730 
Q 2766 1069 2766 1631 
L 2766 1759 
L 2194 1759 
z
M 3341 1997 
L 3341 0 
L 2766 0 
L 2766 531 
Q 2569 213 2275 61 
Q 1981 -91 1556 -91 
Q 1019 -91 701 211 
Q 384 513 384 1019 
Q 384 1609 779 1909 
Q 1175 2209 1959 2209 
L 2766 2209 
L 2766 2266 
Q 2766 2663 2505 2880 
Q 2244 3097 1772 3097 
Q 1472 3097 1187 3025 
Q 903 2953 641 2809 
L 641 3341 
Q 956 3463 1253 3523 
Q 1550 3584 1831 3584 
Q 2591 3584 2966 3190 
Q 3341 2797 3341 1997 
z
" transform="scale(0.015625)"/>
       <path id="DejaVuSans-72" d="M 2631 2963 
Q 2534 3019 2420 3045 
Q 2306 3072 2169 3072 
Q 1681 3072 1420 2755 
Q 1159 2438 1159 1844 
L 1159 0 
L 581 0 
L 581 3500 
L 1159 3500 
L 1159 2956 
Q 1341 3275 1631 3429 
Q 1922 3584 2338 3584 
Q 2397 3584 2469 3576 
Q 2541 3569 2628 3553 
L 2631 2963 
z
" transform="scale(0.015625)"/>
       <path id="DejaVuSans-62" d="M 3116 1747 
Q 3116 2381 2855 2742 
Q 2594 3103 2138 3103 
Q 1681 3103 1420 2742 
Q 1159 2381 1159 1747 
Q 1159 1113 1420 752 
Q 1681 391 2138 391 
Q 2594 391 2855 752 
Q 3116 1113 3116 1747 
z
M 1159 2969 
Q 1341 3281 1617 3432 
Q 1894 3584 2278 3584 
Q 2916 3584 3314 3078 
Q 3713 2572 3713 1747 
Q 3713 922 3314 415 
Q 2916 -91 2278 -91 
Q 1894 -91 1617 61 
Q 1341 213 1159 525 
L 1159 0 
L 581 0 
L 581 4863 
L 1159 4863 
L 1159 2969 
z
" transform="scale(0.015625)"/>
       <path id="DejaVuSans-2e" d="M 684 794 
L 1344 794 
L 1344 0 
L 684 0 
L 684 794 
z
" transform="scale(0.015625)"/>
       <path id="DejaVuSans-5d" d="M 1947 4863 
L 1947 -844 
L 622 -844 
L 622 -397 
L 1369 -397 
L 1369 4416 
L 622 4416 
L 622 4863 
L 1947 4863 
z
" transform="scale(0.015625)"/>
      </defs>
      <use xlink:href="#DejaVuSans-Oblique-56" transform="translate(0 0.015625)"/>
      <use xlink:href="#DejaVuSans-30" transform="translate(68.408203 -16.390625) scale(0.7)"/>
      <use xlink:href="#DejaVuSans-28" transform="translate(115.678711 0.015625)"/>
      <use xlink:href="#DejaVuSans-Oblique-74" transform="translate(154.692383 0.015625)"/>
      <use xlink:href="#DejaVuSans-29" transform="translate(193.901367 0.015625)"/>
      <use xlink:href="#DejaVuSans-20" transform="translate(232.915039 0.015625)"/>
      <use xlink:href="#DejaVuSans-5b" transform="translate(264.702148 0.015625)"/>
      <use xlink:href="#DejaVuSans-61" transform="translate(303.71582 0.015625)"/>
      <use xlink:href="#DejaVuSans-72" transform="translate(364.995117 0.015625)"/>
      <use xlink:href="#DejaVuSans-62" transform="translate(406.108398 0.015625)"/>
      <use xlink:href="#DejaVuSans-2e" transform="translate(469.584961 0.015625)"/>
      <use xlink:href="#DejaVuSans-5d" transform="translate(501.37207 0.015625)"/>
     </g>
    </g>
   </g>
   <g id="line2d_4">
    <path d="M 26.704 224.74 
L 119.4979 14.982667 
L 235.25829 14.982667 
L 235.490275 224.74 
L 258.68875 224.74 
L 258.68875 224.74 
" clip-path="url(#pc0a105429c)" style="fill: none; stroke: #005cef; stroke-width: 2; stroke-linecap: square"/>
   </g>
   <g id="patch_3">
    <path d="M 26.704 224.74 
L 26.704 0 
" style="fill: none; stroke: #000000; stroke-linejoin: miter; stroke-linecap: square"/>
   </g>
   <g id="patch_4">
    <path d="M 258.68875 224.74 
L 258.68875 0 
" style="fill: none; stroke: #000000; stroke-linejoin: miter; stroke-linecap: square"/>
   </g>
   <g id="patch_5">
    <path d="M 26.704 224.74 
L 258.68875 224.74 
" style="fill: none; stroke: #000000; stroke-linejoin: miter; stroke-linecap: square"/>
   </g>
   <g id="patch_6">
    <path d="M 26.704 0 
L 258.68875 0 
" style="fill: none; stroke: #000000; stroke-linejoin: miter; stroke-linecap: square"/>
   </g>
   <g id="text_3">
    <!-- $t_{\text{PM}}$ -->
    <g transform="translate(176.042944 213.339746) scale(0.26 -0.26)">
     <defs>
      <path id="DejaVuSans-50" d="M 1259 4147 
L 1259 2394 
L 2053 2394 
Q 2494 2394 2734 2622 
Q 2975 2850 2975 3272 
Q 2975 3691 2734 3919 
Q 2494 4147 2053 4147 
L 1259 4147 
z
M 628 4666 
L 2053 4666 
Q 2838 4666 3239 4311 
Q 3641 3956 3641 3272 
Q 3641 2581 3239 2228 
Q 2838 1875 2053 1875 
L 1259 1875 
L 1259 0 
L 628 0 
L 628 4666 
z
" transform="scale(0.015625)"/>
      <path id="DejaVuSans-4d" d="M 628 4666 
L 1569 4666 
L 2759 1491 
L 3956 4666 
L 4897 4666 
L 4897 0 
L 4281 0 
L 4281 4097 
L 3078 897 
L 2444 897 
L 1241 4097 
L 1241 0 
L 628 0 
L 628 4666 
z
" transform="scale(0.015625)"/>
     </defs>
     <use xlink:href="#DejaVuSans-Oblique-74" transform="translate(0 0.78125)"/>
     <use xlink:href="#DejaVuSans-50" transform="translate(39.208984 -15.625) scale(0.7)"/>
     <use xlink:href="#DejaVuSans-4d" transform="translate(81.420898 -15.625) scale(0.7)"/>
    </g>
   </g>
  </g>
  <g id="axes_2">
   <g id="matplotlib.axis_3">
    <g id="text_4">
     <!-- $\vec{r}(t)$ [arb.] -->
     <g style="fill: #ff6a00" transform="translate(280.4175 168.29) rotate(-90) scale(0.24 -0.24)">
      <defs>
       <path id="DejaVuSans-20d7" d="M -3009 4066 
L -3009 4378 
L -694 4378 
L -1106 4863 
L -713 4863 
L -166 4222 
L -713 3581 
L -1106 3581 
L -694 4066 
L -3009 4066 
z
" transform="scale(0.015625)"/>
       <path id="DejaVuSans-Oblique-72" d="M 2853 2969 
Q 2766 3016 2653 3041 
Q 2541 3066 2413 3066 
Q 1953 3066 1609 2717 
Q 1266 2369 1153 1784 
L 800 0 
L 225 0 
L 909 3500 
L 1484 3500 
L 1375 2956 
Q 1603 3259 1920 3421 
Q 2238 3584 2597 3584 
Q 2691 3584 2781 3573 
Q 2872 3563 2963 3538 
L 2853 2969 
z
" transform="scale(0.015625)"/>
      </defs>
      <use xlink:href="#DejaVuSans-20d7" transform="translate(50.293945 13.015625)"/>
      <use xlink:href="#DejaVuSans-Oblique-72" transform="translate(0 0.46875)"/>
      <use xlink:href="#DejaVuSans-28" transform="translate(41.113281 0.46875)"/>
      <use xlink:href="#DejaVuSans-Oblique-74" transform="translate(80.126953 0.46875)"/>
      <use xlink:href="#DejaVuSans-29" transform="translate(119.335938 0.46875)"/>
      <use xlink:href="#DejaVuSans-20" transform="translate(158.349609 0.46875)"/>
      <use xlink:href="#DejaVuSans-5b" transform="translate(190.136719 0.46875)"/>
      <use xlink:href="#DejaVuSans-61" transform="translate(229.150391 0.46875)"/>
      <use xlink:href="#DejaVuSans-72" transform="translate(290.429688 0.46875)"/>
      <use xlink:href="#DejaVuSans-62" transform="translate(331.542969 0.46875)"/>
      <use xlink:href="#DejaVuSans-2e" transform="translate(395.019531 0.46875)"/>
      <use xlink:href="#DejaVuSans-5d" transform="translate(426.806641 0.46875)"/>
     </g>
    </g>
   </g>
   <g id="line2d_5">
    <path d="M 26.935985 119.861333 
L 154.295613 119.861333 
L 154.527597 119.734844 
L 154.759582 119.358482 
L 155.223552 117.899114 
L 155.919506 114.254124 
L 157.775384 102.677799 
L 158.239353 101.162605 
L 158.471338 100.821685 
L 158.703323 100.795512 
L 158.935308 101.105134 
L 159.167292 101.765625 
L 159.631262 104.167314 
L 160.095231 107.989142 
L 160.791186 116.091801 
L 161.951109 133.575983 
L 163.111033 150.556149 
L 163.806987 157.64215 
L 164.270957 160.29843 
L 164.502942 160.908488 
L 164.734926 161.012046 
L 164.966911 160.597607 
L 165.198896 159.661496 
L 165.662865 156.249359 
L 166.126835 150.90459 
L 166.822789 139.838338 
L 167.982713 116.637593 
L 169.142637 94.098583 
L 169.838591 83.736242 
L 170.30256 78.854175 
L 170.76653 75.867791 
L 170.998515 75.132249 
L 171.230499 74.915144 
L 171.462484 75.218993 
L 171.694469 76.040274 
L 172.158438 79.191167 
L 172.622408 84.222165 
L 173.318362 94.763907 
L 174.478286 117.44179 
L 175.870194 144.958759 
L 176.566149 155.500502 
L 177.030118 160.5315 
L 177.494088 163.682393 
L 177.726072 164.503674 
L 177.958057 164.807523 
L 178.190042 164.590418 
L 178.422027 163.854876 
L 178.885996 160.868491 
L 179.349966 155.986424 
L 180.04592 145.624083 
L 180.973859 127.887109 
L 182.829737 91.522415 
L 183.525691 81.910482 
L 183.989661 77.639383 
L 184.45363 75.320123 
L 184.685615 74.929629 
L 184.9176 75.059919 
L 185.149584 75.709486 
L 185.613554 78.530399 
L 186.077523 83.261962 
L 186.773478 93.441562 
L 187.701417 111.042957 
L 189.557295 147.569397 
L 190.253249 157.373732 
L 190.717218 161.799762 
L 191.181188 164.287059 
L 191.413173 164.764074 
L 191.645157 164.720639 
L 191.877142 164.157257 
L 192.341112 161.502725 
L 192.805081 156.92319 
L 193.501035 146.929612 
L 194.428974 129.46947 
L 196.284852 92.793054 
L 196.980807 82.799477 
L 197.444776 78.219942 
L 197.908746 75.56541 
L 198.14073 75.002028 
L 198.372715 74.958593 
L 198.6047 75.435608 
L 198.836685 76.427544 
L 199.300654 79.904357 
L 199.764624 85.228304 
L 200.460578 96.118602 
L 201.620502 119.054472 
L 203.01241 146.281105 
L 203.708364 156.460704 
L 204.172334 161.192268 
L 204.636303 164.013181 
L 204.868288 164.662747 
L 205.100273 164.793038 
L 205.332258 164.402543 
L 205.564242 163.495789 
L 206.028212 160.181402 
L 206.492181 155.003095 
L 207.188136 144.285347 
L 208.348059 121.474796 
L 209.739968 94.098583 
L 210.435922 83.736242 
L 210.899892 78.854175 
L 211.363861 75.867791 
L 211.595846 75.132249 
L 211.827831 74.915144 
L 212.059815 75.218993 
L 212.2918 76.040274 
L 212.75577 79.191167 
L 213.219739 84.222165 
L 213.915693 94.763907 
L 215.075617 117.44179 
L 216.467526 144.958759 
L 217.16348 155.500502 
L 217.627449 160.5315 
L 218.091419 163.682393 
L 218.323404 164.503674 
L 218.555388 164.807523 
L 218.787373 164.590418 
L 219.019358 163.854876 
L 219.483327 160.868491 
L 219.947297 155.986424 
L 220.643251 145.624083 
L 221.57119 127.887109 
L 223.427068 91.522415 
L 224.123022 81.910482 
L 224.586992 77.639383 
L 225.050961 75.320123 
L 225.282946 74.929629 
L 225.514931 75.059919 
L 225.746916 75.709486 
L 226.210885 78.530399 
L 226.674855 83.261962 
L 227.370809 93.441562 
L 228.298748 111.042957 
L 230.154626 147.569397 
L 230.85058 157.373732 
L 231.31455 161.799762 
L 231.778519 164.287059 
L 232.010504 164.764074 
L 232.242489 164.720639 
L 232.474473 164.157257 
L 232.938443 161.502725 
L 233.402412 156.92319 
L 234.098367 146.929612 
L 235.026306 129.46947 
L 235.490275 119.861333 
L 258.68875 119.861333 
L 258.68875 119.861333 
" clip-path="url(#pc0a105429c)" style="fill: none; stroke: #ff6a00; stroke-width: 2; stroke-linecap: square"/>
   </g>
   <g id="patch_7">
    <path d="M 26.704 224.74 
L 26.704 0 
" style="fill: none; stroke: #000000; stroke-width: 0.5; stroke-linejoin: miter; stroke-linecap: square"/>
   </g>
   <g id="patch_8">
    <path d="M 258.68875 224.74 
L 258.68875 0 
" style="fill: none; stroke: #000000; stroke-width: 0.5; stroke-linejoin: miter; stroke-linecap: square"/>
   </g>
   <g id="patch_9">
    <path d="M 26.704 224.74 
L 258.68875 224.74 
" style="fill: none; stroke: #000000; stroke-width: 0.5; stroke-linejoin: miter; stroke-linecap: square"/>
   </g>
   <g id="patch_10">
    <path d="M 26.704 0 
L 258.68875 0 
" style="fill: none; stroke: #000000; stroke-width: 0.5; stroke-linejoin: miter; stroke-linecap: square"/>
   </g>
  </g>
 </g>
 <defs>
  <clipPath id="pc0a105429c">
   <rect x="26.704" y="0" width="231.98475" height="224.74"/>
  </clipPath>
 </defs>
</svg>
