<?xml version="1.0" encoding="utf-8" standalone="no"?>
<!DOCTYPE svg PUBLIC "-//W3C//DTD SVG 1.1//EN"
  "http://www.w3.org/Graphics/SVG/1.1/DTD/svg11.dtd">
<svg xmlns:xlink="http://www.w3.org/1999/xlink" width="360pt" height="324pt" viewBox="0 0 360 324" xmlns="http://www.w3.org/2000/svg" version="1.1">
 <metadata>
  <rdf:RDF xmlns:dc="http://purl.org/dc/elements/1.1/" xmlns:cc="http://creativecommons.org/ns#" xmlns:rdf="http://www.w3.org/1999/02/22-rdf-syntax-ns#">
   <cc:Work>
    <dc:type rdf:resource="http://purl.org/dc/dcmitype/StillImage"/>
    <dc:date>2026-02-13T23:25:03.231897</dc:date>
    <dc:format>image/svg+xml</dc:format>
    <dc:creator>
     <cc:Agent>
      <dc:title>Matplotlib v3.9.0, https://matplotlib.org/</dc:title>
     </cc:Agent>
    </dc:creator>
   </cc:Work>
  </rdf:RDF>
 </metadata>
 <defs>
  <style type="text/css">*{stroke-linejoin: round; stroke-linecap: butt}</style>
 </defs>
 <g id="figure_1">
  <g id="patch_1">
   <path d="M 0 324 
L 360 324 
L 360 0 
L 0 0 
L 0 324 
z
" style="fill: none"/>
  </g>
  <g id="axes_1">
   <g id="patch_2">
    <path d="M 63.036255 157.70523 
Q 63.00842 158.810436 62.980585 159.915642 
" clip-path="url(#p70fe43499a)" style="fill: none"/>
    <path d="M 73.66979 132.676132 
L 62.980585 159.915642 
L 53.67613 132.172587 
z
" clip-path="url(#p70fe43499a)" style="fill: #ff0000"/>
   </g>
   <g id="line2d_1">
    <path d="M 62.985007 164.337698 
L 63.143754 168.756905 
L 63.456632 173.167881 
L 63.923261 177.56525 
L 64.543071 181.943655 
L 65.315308 186.297762 
L 66.239031 190.622266 
L 67.313113 194.911898 
L 68.536248 199.161432 
L 69.906944 203.36569 
L 71.423531 207.519551 
L 73.084163 211.617953 
L 74.886815 215.655904 
L 76.829291 219.628483 
L 78.909225 223.53085 
L 81.124082 227.358252 
L 83.471165 231.106025 
L 85.947613 234.769602 
L 88.55041 238.344521 
L 91.276384 241.826426 
L 94.122214 245.211075 
L 97.084433 248.494344 
L 100.159432 251.672233 
L 103.343465 254.74087 
L 106.632652 257.696517 
L 110.022985 260.535572 
L 113.510335 263.254577 
L 117.090453 265.850218 
L 120.758976 268.319335 
L 124.511435 270.658917 
L 128.343259 272.866115 
L 132.249779 274.93824 
L 136.226235 276.872768 
L 140.267782 278.66734 
L 144.369498 280.319771 
L 148.526383 281.828048 
L 152.733375 283.190333 
L 156.985346 284.404966 
L 161.277118 285.470467 
L 165.603461 286.385539 
L 169.959103 287.149066 
L 174.33874 287.760118 
L 178.737033 288.217951 
L 183.148626 288.522007 
L 187.568142 288.671915 
L 191.990198 288.667493 
L 196.409405 288.508746 
L 200.820381 288.195868 
L 205.21775 287.729239 
L 209.596155 287.109429 
L 213.950262 286.337192 
L 218.274766 285.413469 
L 222.564398 284.339387 
L 226.813932 283.116252 
L 231.01819 281.745556 
L 235.172051 280.228969 
L 239.270453 278.568337 
L 243.308404 276.765685 
L 247.280983 274.823209 
L 251.18335 272.743275 
L 255.010752 270.528418 
L 258.758525 268.181335 
L 262.422102 265.704887 
L 265.997021 263.10209 
L 269.478926 260.376116 
L 272.863575 257.530286 
L 276.146844 254.568067 
L 279.324733 251.493068 
L 282.39337 248.309035 
L 285.349017 245.019848 
L 288.188072 241.629515 
L 290.907077 238.142165 
L 293.502718 234.562047 
L 295.971835 230.893524 
L 298.311417 227.141065 
L 300.518615 223.309241 
L 302.59074 219.402721 
L 304.525268 215.426265 
L 306.31984 211.384718 
L 307.972271 207.283002 
L 309.480548 203.126117 
L 310.842833 198.919125 
L 312.057466 194.667154 
L 313.122967 190.375382 
L 314.038039 186.049039 
L 314.801566 181.693397 
L 315.412618 177.31376 
L 315.870451 172.915467 
L 316.174507 168.503874 
L 316.324415 164.084358 
L 316.319993 159.662302 
L 316.161246 155.243095 
L 315.848368 150.832119 
L 315.381739 146.43475 
L 314.761929 142.056345 
L 313.989692 137.702238 
L 313.065969 133.377734 
L 311.991887 129.088102 
L 310.768752 124.838568 
L 309.398056 120.63431 
L 307.881469 116.480449 
L 306.220837 112.382047 
L 304.418185 108.344096 
L 302.475709 104.371517 
L 300.395775 100.46915 
L 298.180918 96.641748 
L 295.833835 92.893975 
L 293.357387 89.230398 
L 290.75459 85.655479 
L 288.028616 82.173574 
L 285.182786 78.788925 
L 282.220567 75.505656 
L 279.145568 72.327767 
L 275.961535 69.25913 
L 272.672348 66.303483 
L 269.282015 63.464428 
L 265.794665 60.745423 
L 262.214547 58.149782 
L 258.546024 55.680665 
L 254.793565 53.341083 
L 250.961741 51.133885 
L 247.055221 49.06176 
L 243.078765 47.127232 
L 239.037218 45.33266 
L 234.935502 43.680229 
L 230.778617 42.171952 
L 226.571625 40.809667 
L 222.319654 39.595034 
L 218.027882 38.529533 
L 213.701539 37.614461 
L 209.345897 36.850934 
L 204.96626 36.239882 
L 200.567967 35.782049 
L 196.156374 35.477993 
L 191.736858 35.328085 
L 187.314802 35.332507 
L 182.895595 35.491254 
L 178.484619 35.804132 
L 174.08725 36.270761 
L 169.708845 36.890571 
L 165.354738 37.662808 
L 161.030234 38.586531 
L 156.740602 39.660613 
L 152.491068 40.883748 
L 148.28681 42.254444 
L 144.132949 43.771031 
L 140.034547 45.431663 
L 135.996596 47.234315 
L 132.024017 49.176791 
L 128.12165 51.256725 
L 124.294248 53.471582 
L 120.546475 55.818665 
L 116.882898 58.295113 
L 113.307979 60.89791 
L 109.826074 63.623884 
L 106.441425 66.469714 
L 103.158156 69.431933 
L 99.980267 72.506932 
L 96.91163 75.690965 
L 93.955983 78.980152 
L 91.116928 82.370485 
L 88.397923 85.857835 
L 85.802282 89.437953 
L 83.333165 93.106476 
L 80.993583 96.858935 
L 78.786385 100.690759 
L 76.71426 104.597279 
L 74.779732 108.573735 
L 72.98516 112.615282 
L 71.332729 116.716998 
L 69.824452 120.873883 
L 68.462167 125.080875 
L 67.247534 129.332846 
L 66.182033 133.624618 
L 65.705619 135.783797 
L 65.705619 135.783797 
" clip-path="url(#p70fe43499a)" style="fill: none; stroke: #ff0000; stroke-width: 5; stroke-linecap: square"/>
   </g>
   <g id="text_1">
    <!-- $\vec{A}_{12}(\vec{q})$ -->
    <g transform="translate(113.9025 183.25) scale(0.5 -0.5)">
     <defs>
      <path id="DejaVuSans-20d7" d="M -3009 4066 
L -3009 4378 
L -694 4378 
L -1106 4863 
L -713 4863 
L -166 4222 
L -713 3581 
L -1106 3581 
L -694 4066 
L -3009 4066 
z
" transform="scale(0.015625)"/>
      <path id="DejaVuSans-Oblique-41" d="M 2356 4666 
L 3072 4666 
L 3938 0 
L 3278 0 
L 3084 1197 
L 984 1197 
L 325 0 
L -341 0 
L 2356 4666 
z
M 2584 4044 
L 1275 1722 
L 2988 1722 
L 2584 4044 
z
" transform="scale(0.015625)"/>
      <path id="DejaVuSans-31" d="M 794 531 
L 1825 531 
L 1825 4091 
L 703 3866 
L 703 4441 
L 1819 4666 
L 2450 4666 
L 2450 531 
L 3481 531 
L 3481 0 
L 794 0 
L 794 531 
z
" transform="scale(0.015625)"/>
      <path id="DejaVuSans-32" d="M 1228 531 
L 3431 531 
L 3431 0 
L 469 0 
L 469 531 
Q 828 903 1448 1529 
Q 2069 2156 2228 2338 
Q 2531 2678 2651 2914 
Q 2772 3150 2772 3378 
Q 2772 3750 2511 3984 
Q 2250 4219 1831 4219 
Q 1534 4219 1204 4116 
Q 875 4013 500 3803 
L 500 4441 
Q 881 4594 1212 4672 
Q 1544 4750 1819 4750 
Q 2544 4750 2975 4387 
Q 3406 4025 3406 3419 
Q 3406 3131 3298 2873 
Q 3191 2616 2906 2266 
Q 2828 2175 2409 1742 
Q 1991 1309 1228 531 
z
" transform="scale(0.015625)"/>
      <path id="DejaVuSans-28" d="M 1984 4856 
Q 1566 4138 1362 3434 
Q 1159 2731 1159 2009 
Q 1159 1288 1364 580 
Q 1569 -128 1984 -844 
L 1484 -844 
Q 1016 -109 783 600 
Q 550 1309 550 2009 
Q 550 2706 781 3412 
Q 1013 4119 1484 4856 
L 1984 4856 
z
" transform="scale(0.015625)"/>
      <path id="DejaVuSans-Oblique-71" d="M 2669 525 
Q 2438 222 2123 65 
Q 1809 -91 1428 -91 
Q 897 -91 595 267 
Q 294 625 294 1253 
Q 294 1759 480 2231 
Q 666 2703 1013 3078 
Q 1238 3322 1530 3453 
Q 1822 3584 2144 3584 
Q 2531 3584 2781 3431 
Q 3031 3278 3144 2969 
L 3244 3494 
L 3822 3494 
L 2888 -1319 
L 2309 -1319 
L 2669 525 
z
M 891 1338 
Q 891 875 1084 633 
Q 1278 391 1644 391 
Q 2188 391 2572 911 
Q 2956 1431 2956 2175 
Q 2956 2625 2757 2864 
Q 2559 3103 2188 3103 
Q 1916 3103 1684 2976 
Q 1453 2850 1281 2606 
Q 1100 2350 995 2006 
Q 891 1663 891 1338 
z
" transform="scale(0.015625)"/>
      <path id="DejaVuSans-29" d="M 513 4856 
L 1013 4856 
Q 1481 4119 1714 3412 
Q 1947 2706 1947 2009 
Q 1947 1309 1714 600 
Q 1481 -109 1013 -844 
L 513 -844 
Q 928 -128 1133 580 
Q 1338 1288 1338 2009 
Q 1338 2731 1133 3434 
Q 928 4138 513 4856 
z
" transform="scale(0.015625)"/>
     </defs>
     <use xlink:href="#DejaVuSans-20d7" transform="translate(67.117676 30.015625)"/>
     <use xlink:href="#DejaVuSans-Oblique-41" transform="translate(0 0.5625)"/>
     <use xlink:href="#DejaVuSans-31" transform="translate(69.365234 -15.84375) scale(0.7)"/>
     <use xlink:href="#DejaVuSans-32" transform="translate(113.901367 -15.84375) scale(0.7)"/>
     <use xlink:href="#DejaVuSans-28" transform="translate(161.171875 0.5625)"/>
     <use xlink:href="#DejaVuSans-20d7" transform="translate(265.070312 13.109375)"/>
     <use xlink:href="#DejaVuSans-Oblique-71" transform="translate(200.185547 0.5625)"/>
     <use xlink:href="#DejaVuSans-29" transform="translate(263.662109 0.5625)"/>
    </g>
   </g>
   <g id="Quiver_1">
    <path d="M 62.961863 164.006158 
L 46.167538 163.991527 
L 48.043732 167.752103 
L 29.253951 162.09732 
L 48.053557 156.475287 
L 46.170813 160.232588 
L 62.965138 160.24722 
L 62.961863 164.006158 
" clip-path="url(#p70fe43499a)" style="fill: #1a33cc; fill-opacity: 1; stroke: #000000; stroke-width: 1.5"/>
    <path d="M 66.763247 196.709133 
L 50.703738 191.795708 
L 51.401241 195.940045 
L 35.078486 185.049677 
L 54.700438 185.156633 
L 51.80347 188.201238 
L 67.86298 193.114663 
L 66.763247 196.709133 
" clip-path="url(#p70fe43499a)" style="fill: #1a33cc; fill-opacity: 0.999743; stroke: #000000; stroke-width: 1.5"/>
    <path d="M 78.368702 226.387719 
L 70.027219 211.811394 
L 67.698221 215.309652 
L 63.256939 196.196634 
L 77.485726 209.708631 
L 73.289721 209.944387 
L 81.631204 224.520712 
L 78.368702 226.387719 
" clip-path="url(#p70fe43499a)" style="fill: #1a33cc; fill-opacity: 0.999024; stroke: #000000; stroke-width: 1.5"/>
    <path d="M 98.329485 251.243632 
L 102.159325 234.891815 
L 98.070829 235.864561 
L 107.846684 218.850887 
L 109.050515 238.436168 
L 105.819221 235.749018 
L 101.98938 252.100834 
L 98.329485 251.243632 
" clip-path="url(#p70fe43499a)" style="fill: #1a33cc; fill-opacity: 0.997844; stroke: #000000; stroke-width: 1.5"/>
    <path d="M 124.790867 270.838083 
L 133.200701 256.301087 
L 129.005849 256.045631 
L 143.297926 242.600594 
L 138.766946 261.692547 
L 136.4544 258.183392 
L 128.044566 272.720389 
L 124.790867 270.838083 
" clip-path="url(#p70fe43499a)" style="fill: #1a33cc; fill-opacity: 0.996204; stroke: #000000; stroke-width: 1.5"/>
    <path d="M 155.703828 283.03015 
L 167.988734 271.578919 
L 164.050881 270.110806 
L 181.643594 261.42007 
L 171.739991 278.359701 
L 170.55177 274.328551 
L 158.266865 285.779781 
L 155.703828 283.03015 
" clip-path="url(#p70fe43499a)" style="fill: #1a33cc; fill-opacity: 0.994103; stroke: #000000; stroke-width: 1.5"/>
    <path d="M 189.786377 286.809543 
L 206.580586 286.873769 
L 204.715505 283.107669 
L 223.488505 288.817915 
L 204.672379 294.384407 
L 206.56621 290.632682 
L 189.772001 290.568455 
L 189.786377 286.809543 
" clip-path="url(#p70fe43499a)" style="fill: #1a33cc; fill-opacity: 0.991544; stroke: #000000; stroke-width: 1.5"/>
    <path d="M 223.850551 282.968906 
L 236.09672 294.461554 
L 237.298546 290.434439 
L 247.144892 307.407415 
L 229.581625 298.657323 
L 233.524413 297.202515 
L 221.278245 285.709867 
L 223.850551 282.968906 
" clip-path="url(#p70fe43499a)" style="fill: #1a33cc; fill-opacity: 0.98853; stroke: #000000; stroke-width: 1.5"/>
    <path d="M 254.735202 270.714231 
L 263.119694 285.265859 
L 265.438351 281.760739 
L 269.936056 300.860558 
L 255.667429 287.390638 
L 259.86272 287.142492 
L 251.478229 272.590864 
L 254.735202 270.714231 
" clip-path="url(#p70fe43499a)" style="fill: #1a33cc; fill-opacity: 0.985064; stroke: #000000; stroke-width: 1.5"/>
    <path d="M 281.156118 251.070648 
L 284.930721 267.435304 
L 288.171071 264.75908 
L 286.901113 284.340184 
L 277.182764 267.293597 
L 281.267952 268.280143 
L 277.493349 251.915487 
L 281.156118 251.070648 
" clip-path="url(#p70fe43499a)" style="fill: #1a33cc; fill-opacity: 0.981151; stroke: #000000; stroke-width: 1.5"/>
    <path d="M 301.055799 226.180737 
L 292.603073 240.692835 
L 296.797152 240.960678 
L 282.465434 254.36345 
L 287.052773 235.28496 
L 289.354947 238.800929 
L 297.807673 224.288831 
L 301.055799 226.180737 
" clip-path="url(#p70fe43499a)" style="fill: #1a33cc; fill-opacity: 0.976801; stroke: #000000; stroke-width: 1.5"/>
    <path d="M 312.60126 196.466235 
L 296.525251 201.325404 
L 299.411922 204.379774 
L 279.78972 204.420471 
L 296.149156 193.585282 
L 295.437662 197.72724 
L 311.513671 192.868072 
L 312.60126 196.466235 
" clip-path="url(#p70fe43499a)" style="fill: #1a33cc; fill-opacity: 0.972023; stroke: #000000; stroke-width: 1.5"/>
    <path d="M 316.339862 163.75278 
L 299.545536 163.738148 
L 301.421731 167.498725 
L 282.631949 161.843942 
L 301.431555 156.221909 
L 299.548811 159.97921 
L 316.343137 159.993842 
L 316.339862 163.75278 
" clip-path="url(#p70fe43499a)" style="fill: #1a33cc; fill-opacity: 0.966834; stroke: #000000; stroke-width: 1.5"/>
    <path d="M 311.44202 130.885337 
L 295.382511 125.971912 
L 296.080014 130.116249 
L 279.757259 119.225881 
L 299.379211 119.332837 
L 296.482244 122.377442 
L 312.541753 127.290867 
L 311.44202 130.885337 
" clip-path="url(#p70fe43499a)" style="fill: #1a33cc; fill-opacity: 0.961253; stroke: #000000; stroke-width: 1.5"/>
    <path d="M 297.673796 99.479288 
L 289.332314 84.902963 
L 287.003316 88.401221 
L 282.562033 69.288203 
L 296.79082 82.8002 
L 292.594815 83.035956 
L 300.936298 97.612281 
L 297.673796 99.479288 
" clip-path="url(#p70fe43499a)" style="fill: #1a33cc; fill-opacity: 0.955306; stroke: #000000; stroke-width: 1.5"/>
    <path d="M 277.31562 71.899166 
L 281.145461 55.547349 
L 277.056964 56.520094 
L 286.83282 39.506421 
L 288.036651 59.091702 
L 284.805356 56.404552 
L 280.975515 72.756368 
L 277.31562 71.899166 
" clip-path="url(#p70fe43499a)" style="fill: #1a33cc; fill-opacity: 0.949026; stroke: #000000; stroke-width: 1.5"/>
    <path d="M 251.260434 51.279611 
L 259.670268 36.742614 
L 255.475417 36.487158 
L 269.767493 23.042122 
L 265.236514 42.134075 
L 262.923967 38.62492 
L 254.514133 53.161917 
L 251.260434 51.279611 
" clip-path="url(#p70fe43499a)" style="fill: #1a33cc; fill-opacity: 0.942453; stroke: #000000; stroke-width: 1.5"/>
    <path d="M 221.038135 38.220219 
L 233.323041 26.768988 
L 229.385188 25.300875 
L 246.977901 16.610138 
L 237.074299 33.549769 
L 235.886078 29.51862 
L 223.601172 40.96985 
L 221.038135 38.220219 
" clip-path="url(#p70fe43499a)" style="fill: #1a33cc; fill-opacity: 0.93564; stroke: #000000; stroke-width: 1.5"/>
    <path d="M 189.532999 33.431545 
L 206.327208 33.495771 
L 204.462127 29.729671 
L 223.235127 35.439916 
L 204.419001 41.006409 
L 206.312832 37.254684 
L 189.518623 37.190457 
L 189.532999 33.431545 
" clip-path="url(#p70fe43499a)" style="fill: #1a33cc; fill-opacity: 0.928647; stroke: #000000; stroke-width: 1.5"/>
    <path d="M 158.026755 38.290133 
L 170.272924 49.78278 
L 171.47475 45.755666 
L 181.321096 62.728642 
L 163.757829 53.97855 
L 167.700617 52.523742 
L 155.454449 41.031094 
L 158.026755 38.290133 
" clip-path="url(#p70fe43499a)" style="fill: #1a33cc; fill-opacity: 0.921551; stroke: #000000; stroke-width: 1.5"/>
    <path d="M 127.826771 51.409136 
L 136.211263 65.960765 
L 138.52992 62.455645 
L 143.027625 81.555464 
L 128.758998 68.085544 
L 132.954289 67.837398 
L 124.569798 53.285769 
L 127.826771 51.409136 
" clip-path="url(#p70fe43499a)" style="fill: #1a33cc; fill-opacity: 0.914437; stroke: #000000; stroke-width: 1.5"/>
    <path d="M 101.811651 72.084513 
L 105.586255 88.449168 
L 108.826605 85.772944 
L 107.556647 105.354049 
L 97.838297 88.307462 
L 101.923486 89.294007 
L 98.148882 72.929352 
L 101.811651 72.084513 
" clip-path="url(#p70fe43499a)" style="fill: #1a33cc; fill-opacity: 0.90741; stroke: #000000; stroke-width: 1.5"/>
    <path d="M 81.497327 99.711169 
L 73.0446 114.223268 
L 77.23868 114.49111 
L 62.906962 127.893883 
L 67.494301 108.815393 
L 69.796474 112.331362 
L 78.249201 97.819263 
L 81.497327 99.711169 
" clip-path="url(#p70fe43499a)" style="fill: #1a33cc; fill-opacity: 0.900583; stroke: #000000; stroke-width: 1.5"/>
    <path d="M 67.791329 131.131928 
L 51.71532 135.991097 
L 54.60199 139.045466 
L 34.979789 139.086164 
L 51.339224 128.250975 
L 50.627731 132.392933 
L 66.70374 127.533765 
L 67.791329 131.131928 
" clip-path="url(#p70fe43499a)" style="fill: #1a33cc; fill-opacity: 0.894086; stroke: #000000; stroke-width: 1.5"/>
   </g>
  </g>
 </g>
 <defs>
  <clipPath id="p70fe43499a">
   <rect x="15.9075" y="7.56" width="328.185" height="308.88"/>
  </clipPath>
 </defs>
</svg>
