<?xml version="1.0" encoding="utf-8" standalone="no"?>
<!DOCTYPE svg PUBLIC "-//W3C//DTD SVG 1.1//EN"
  "http://www.w3.org/Graphics/SVG/1.1/DTD/svg11.dtd">
<svg xmlns:xlink="http://www.w3.org/1999/xlink" width="216pt" height="108pt" viewBox="0 0 216 108" xmlns="http://www.w3.org/2000/svg" version="1.1">
 <metadata>
  <rdf:RDF xmlns:dc="http://purl.org/dc/elements/1.1/" xmlns:cc="http://creativecommons.org/ns#" xmlns:rdf="http://www.w3.org/1999/02/22-rdf-syntax-ns#">
   <cc:Work>
    <dc:type rdf:resource="http://purl.org/dc/dcmitype/StillImage"/>
    <dc:date>2026-02-25T14:57:52.013633</dc:date>
    <dc:format>image/svg+xml</dc:format>
    <dc:creator>
     <cc:Agent>
      <dc:title>Matplotlib v3.7.2, https://matplotlib.org/</dc:title>
     </cc:Agent>
    </dc:creator>
   </cc:Work>
  </rdf:RDF>
 </metadata>
 <defs>
  <style type="text/css">*{stroke-linejoin: round; stroke-linecap: butt}</style>
 </defs>
 <g id="figure_1">
  <g id="patch_1">
   <path d="M 0 108 
L 216 108 
L 216 0 
L 0 0 
L 0 108 
z
" style="fill: none"/>
  </g>
  <g id="axes_1">
   <g id="patch_2">
    <path d="M 28.02377 81.964812 
L 215.202919 81.964812 
L 215.202919 0 
L 28.02377 0 
z
" style="fill: #ffffff"/>
   </g>
   <g id="matplotlib.axis_1">
    <g id="xtick_1">
     <g id="line2d_1">
      <defs>
       <path id="m4a2a1c15f5" d="M 0 0 
L 0 -3 
" style="stroke: #000000"/>
      </defs>
      <g>
       <use xlink:href="#m4a2a1c15f5" x="36.426012" y="81.964812" style="stroke: #000000"/>
      </g>
     </g>
     <g id="line2d_2">
      <defs>
       <path id="m8c56d56d94" d="M 0 0 
L 0 3 
" style="stroke: #000000"/>
      </defs>
      <g>
       <use xlink:href="#m8c56d56d94" x="36.426012" y="0" style="stroke: #000000"/>
      </g>
     </g>
     <g id="text_1">
      <!-- $0$ -->
      <g transform="translate(33.676012 92.338406) scale(0.11 -0.11)">
       <defs>
        <path id="Cmr10-30" d="M 1600 -141 
Q 816 -141 533 504 
Q 250 1150 250 2041 
Q 250 2597 351 3087 
Q 453 3578 754 3920 
Q 1056 4263 1600 4263 
Q 2022 4263 2290 4056 
Q 2559 3850 2700 3523 
Q 2841 3197 2892 2823 
Q 2944 2450 2944 2041 
Q 2944 1491 2842 1011 
Q 2741 531 2444 195 
Q 2147 -141 1600 -141 
z
M 1600 25 
Q 1956 25 2131 390 
Q 2306 756 2347 1200 
Q 2388 1644 2388 2144 
Q 2388 2625 2347 3031 
Q 2306 3438 2132 3767 
Q 1959 4097 1600 4097 
Q 1238 4097 1063 3765 
Q 888 3434 847 3029 
Q 806 2625 806 2144 
Q 806 1788 823 1472 
Q 841 1156 916 820 
Q 991 484 1158 254 
Q 1325 25 1600 25 
z
" transform="scale(0.015625)"/>
       </defs>
       <use xlink:href="#Cmr10-30" transform="translate(0 0.390625)"/>
      </g>
     </g>
    </g>
    <g id="xtick_2">
     <g id="line2d_3">
      <g>
       <use xlink:href="#m4a2a1c15f5" x="124.414092" y="81.964812" style="stroke: #000000"/>
      </g>
     </g>
     <g id="line2d_4">
      <g>
       <use xlink:href="#m8c56d56d94" x="124.414092" y="0" style="stroke: #000000"/>
      </g>
     </g>
     <g id="text_2">
      <!-- $\pi/2$ -->
      <g transform="translate(115.779092 92.714812) scale(0.11 -0.11)">
       <defs>
        <path id="Cmmi10-bc" d="M 647 109 
Q 647 144 672 213 
Q 850 584 1004 942 
Q 1159 1300 1282 1639 
Q 1406 1978 1509 2363 
L 1100 2363 
Q 866 2363 662 2216 
Q 459 2069 325 1844 
Q 313 1819 288 1819 
L 213 1819 
Q 153 1819 153 1881 
Q 153 1894 166 1919 
Q 375 2275 614 2517 
Q 853 2759 1153 2759 
L 3475 2759 
Q 3541 2759 3587 2715 
Q 3634 2672 3634 2597 
Q 3634 2503 3567 2433 
Q 3500 2363 3406 2363 
L 2591 2363 
Q 2488 1859 2478 1381 
Q 2478 766 2694 269 
Q 2713 231 2713 191 
Q 2713 122 2672 62 
Q 2631 3 2567 -34 
Q 2503 -72 2431 -72 
Q 2263 -72 2200 203 
Q 2138 478 2138 738 
Q 2138 1103 2200 1442 
Q 2263 1781 2400 2363 
L 1703 2363 
Q 1197 313 1094 103 
Q 1003 -72 844 -72 
Q 766 -72 706 -20 
Q 647 31 647 109 
z
" transform="scale(0.015625)"/>
        <path id="Cmmi10-3d" d="M 359 -1472 
Q 359 -1453 366 -1447 
L 2591 4722 
Q 2603 4759 2634 4779 
Q 2666 4800 2706 4800 
Q 2763 4800 2798 4765 
Q 2834 4731 2834 4672 
L 2834 4647 
L 609 -1522 
Q 572 -1600 488 -1600 
Q 434 -1600 396 -1562 
Q 359 -1525 359 -1472 
z
" transform="scale(0.015625)"/>
        <path id="Cmr10-32" d="M 319 0 
L 319 172 
Q 319 188 331 206 
L 1325 1306 
Q 1550 1550 1690 1715 
Q 1831 1881 1968 2097 
Q 2106 2313 2186 2536 
Q 2266 2759 2266 3009 
Q 2266 3272 2169 3511 
Q 2072 3750 1880 3894 
Q 1688 4038 1416 4038 
Q 1138 4038 916 3870 
Q 694 3703 603 3438 
Q 628 3444 672 3444 
Q 816 3444 917 3347 
Q 1019 3250 1019 3097 
Q 1019 2950 917 2848 
Q 816 2747 672 2747 
Q 522 2747 420 2851 
Q 319 2956 319 3097 
Q 319 3338 409 3548 
Q 500 3759 670 3923 
Q 841 4088 1055 4175 
Q 1269 4263 1509 4263 
Q 1875 4263 2190 4108 
Q 2506 3953 2690 3670 
Q 2875 3388 2875 3009 
Q 2875 2731 2753 2481 
Q 2631 2231 2440 2026 
Q 2250 1822 1953 1562 
Q 1656 1303 1563 1216 
L 838 519 
L 1453 519 
Q 1906 519 2211 526 
Q 2516 534 2534 550 
Q 2609 631 2688 1141 
L 2875 1141 
L 2694 0 
L 319 0 
z
" transform="scale(0.015625)"/>
       </defs>
       <use xlink:href="#Cmmi10-bc"/>
       <use xlink:href="#Cmmi10-3d" transform="translate(56.982422 0)"/>
       <use xlink:href="#Cmr10-32" transform="translate(106.982422 0)"/>
      </g>
     </g>
    </g>
    <g id="xtick_3">
     <g id="line2d_5">
      <g>
       <use xlink:href="#m4a2a1c15f5" x="212.402171" y="81.964812" style="stroke: #000000"/>
      </g>
     </g>
     <g id="line2d_6">
      <g>
       <use xlink:href="#m8c56d56d94" x="212.402171" y="0" style="stroke: #000000"/>
      </g>
     </g>
     <g id="text_3">
      <!-- $\pi$ -->
      <g transform="translate(209.267171 92.338406) scale(0.11 -0.11)">
       <use xlink:href="#Cmmi10-bc" transform="translate(0 0.890625)"/>
      </g>
     </g>
    </g>
    <g id="text_4">
     <!-- $\theta_{PM}$ -->
     <g transform="translate(110.758344 104.769969) scale(0.13 -0.13)">
      <defs>
       <path id="Cmmi10-b5" d="M 1031 -72 
Q 741 -72 566 140 
Q 391 353 323 653 
Q 256 953 256 1247 
L 256 1253 
Q 256 1572 317 1915 
Q 378 2259 493 2601 
Q 609 2944 744 3213 
Q 838 3400 986 3631 
Q 1134 3863 1317 4064 
Q 1500 4266 1711 4389 
Q 1922 4513 2138 4513 
L 2144 4513 
Q 2375 4513 2529 4384 
Q 2684 4256 2770 4056 
Q 2856 3856 2890 3628 
Q 2925 3400 2925 3194 
Q 2925 2709 2794 2204 
Q 2663 1700 2431 1228 
Q 2344 1050 2189 809 
Q 2034 569 1861 378 
Q 1688 188 1472 58 
Q 1256 -72 1038 -72 
L 1031 -72 
z
M 1044 97 
Q 1256 97 1451 323 
Q 1647 550 1794 873 
Q 1941 1197 2052 1536 
Q 2163 1875 2216 2113 
L 909 2113 
Q 809 1709 753 1417 
Q 697 1125 697 844 
Q 697 97 1044 97 
z
M 959 2338 
L 2272 2338 
Q 2341 2619 2381 2808 
Q 2422 2997 2450 3206 
Q 2478 3416 2478 3597 
Q 2478 4347 2138 4347 
Q 1731 4347 1436 3692 
Q 1141 3038 959 2338 
z
" transform="scale(0.015625)"/>
       <path id="Cmmi10-50" d="M 313 0 
Q 250 0 250 84 
Q 253 100 262 139 
Q 272 178 289 201 
Q 306 225 331 225 
Q 722 225 878 269 
Q 959 297 997 441 
L 1875 3956 
Q 1888 4019 1888 4044 
Q 1888 4113 1813 4122 
Q 1691 4147 1350 4147 
Q 1288 4147 1288 4231 
Q 1291 4247 1300 4286 
Q 1309 4325 1326 4348 
Q 1344 4372 1369 4372 
L 3578 4372 
Q 3881 4372 4165 4264 
Q 4450 4156 4631 3934 
Q 4813 3713 4813 3397 
Q 4813 2991 4527 2672 
Q 4241 2353 3814 2175 
Q 3388 1997 2988 1997 
L 1947 1997 
L 1556 416 
Q 1544 353 1544 325 
Q 1544 300 1551 283 
Q 1559 266 1573 261 
Q 1588 256 1619 250 
Q 1741 225 2081 225 
Q 2144 225 2144 141 
Q 2122 50 2109 25 
Q 2097 0 2034 0 
L 313 0 
z
M 1978 2188 
L 2875 2188 
Q 3497 2188 3822 2522 
Q 3988 2688 4092 3000 
Q 4197 3313 4197 3566 
Q 4197 3881 3956 4014 
Q 3716 4147 3359 4147 
L 2747 4147 
Q 2572 4147 2515 4117 
Q 2459 4088 2413 3928 
L 1978 2188 
z
" transform="scale(0.015625)"/>
       <path id="Cmmi10-4d" d="M 325 0 
Q 263 0 263 84 
Q 266 100 275 137 
Q 284 175 300 200 
Q 316 225 347 225 
Q 956 225 1056 616 
L 1888 3956 
Q 1900 4019 1900 4044 
Q 1900 4113 1825 4122 
Q 1703 4147 1363 4147 
Q 1300 4147 1300 4231 
Q 1303 4247 1312 4286 
Q 1322 4325 1339 4348 
Q 1356 4372 1381 4372 
L 2509 4372 
Q 2581 4372 2591 4300 
L 3091 634 
L 5422 4300 
Q 5466 4372 5544 4372 
L 6631 4372 
Q 6694 4372 6694 4288 
Q 6691 4272 6681 4233 
Q 6672 4194 6655 4170 
Q 6638 4147 6613 4147 
Q 6222 4147 6069 4103 
Q 5984 4075 5947 3928 
L 5069 416 
Q 5056 353 5056 325 
Q 5056 300 5064 283 
Q 5072 266 5086 261 
Q 5100 256 5131 250 
Q 5253 225 5594 225 
Q 5656 225 5656 141 
Q 5634 50 5621 25 
Q 5609 0 5550 0 
L 3878 0 
Q 3816 0 3816 84 
Q 3819 100 3828 139 
Q 3838 178 3855 201 
Q 3872 225 3897 225 
Q 4288 225 4441 269 
Q 4525 297 4563 441 
L 5484 4147 
L 2900 72 
Q 2863 0 2772 0 
Q 2691 0 2681 72 
L 2138 4097 
L 1259 588 
Q 1253 572 1250 548 
Q 1247 525 1241 494 
Q 1241 328 1386 276 
Q 1531 225 1741 225 
Q 1806 225 1806 141 
Q 1784 56 1770 28 
Q 1756 0 1697 0 
L 325 0 
z
" transform="scale(0.015625)"/>
      </defs>
      <use xlink:href="#Cmmi10-b5" transform="translate(0 0.484375)"/>
      <use xlink:href="#Cmmi10-50" transform="translate(46.923828 -16.521875) scale(0.7)"/>
      <use xlink:href="#Cmmi10-4d" transform="translate(91.870117 -16.521875) scale(0.7)"/>
     </g>
    </g>
   </g>
   <g id="matplotlib.axis_2">
    <g id="ytick_1">
     <g id="line2d_7">
      <defs>
       <path id="mcfe7dd43b5" d="M 0 0 
L 3 0 
" style="stroke: #000000"/>
      </defs>
      <g>
       <use xlink:href="#mcfe7dd43b5" x="28.02377" y="76.470609" style="stroke: #000000"/>
      </g>
     </g>
     <g id="line2d_8">
      <defs>
       <path id="m27569ec4ff" d="M 0 0 
L -3 0 
" style="stroke: #000000"/>
      </defs>
      <g>
       <use xlink:href="#m27569ec4ff" x="215.202919" y="76.470609" style="stroke: #000000"/>
      </g>
     </g>
     <g id="text_5">
      <!-- $0$ -->
      <g transform="translate(19.02377 80.407405) scale(0.11 -0.11)">
       <use xlink:href="#Cmr10-30" transform="translate(0 0.390625)"/>
      </g>
     </g>
    </g>
    <g id="ytick_2">
     <g id="line2d_9">
      <g>
       <use xlink:href="#mcfe7dd43b5" x="28.02377" y="45.050514" style="stroke: #000000"/>
      </g>
     </g>
     <g id="line2d_10">
      <g>
       <use xlink:href="#m27569ec4ff" x="215.202919" y="45.050514" style="stroke: #000000"/>
      </g>
     </g>
     <g id="text_6">
      <!-- $\pi$ -->
      <g transform="translate(18.25377 48.987311) scale(0.11 -0.11)">
       <use xlink:href="#Cmmi10-bc" transform="translate(0 0.890625)"/>
      </g>
     </g>
    </g>
    <g id="ytick_3">
     <g id="line2d_11">
      <g>
       <use xlink:href="#mcfe7dd43b5" x="28.02377" y="13.63042" style="stroke: #000000"/>
      </g>
     </g>
     <g id="line2d_12">
      <g>
       <use xlink:href="#m27569ec4ff" x="215.202919" y="13.63042" style="stroke: #000000"/>
      </g>
     </g>
     <g id="text_7">
      <!-- $2 \pi$ -->
      <g transform="translate(12.75377 17.567217) scale(0.11 -0.11)">
       <use xlink:href="#Cmr10-32" transform="translate(0 0.390625)"/>
       <use xlink:href="#Cmmi10-bc" transform="translate(50 0.390625)"/>
      </g>
     </g>
    </g>
    <g id="text_8">
     <!-- $\phi$ -->
     <g transform="translate(10.02377 44.882406) rotate(-90) scale(0.13 -0.13)">
      <defs>
       <path id="Cmmi10-c1" d="M 1241 -1247 
L 1528 -91 
Q 1203 -91 922 61 
Q 641 213 470 484 
Q 300 756 300 1075 
Q 300 1422 472 1737 
Q 644 2053 942 2311 
Q 1241 2569 1584 2708 
Q 1928 2847 2266 2847 
L 2650 4403 
Q 2663 4441 2700 4441 
L 2778 4441 
Q 2803 4441 2818 4419 
Q 2834 4397 2834 4378 
L 2450 2847 
Q 2691 2847 2916 2759 
Q 3141 2672 3314 2514 
Q 3488 2356 3584 2142 
Q 3681 1928 3681 1684 
Q 3681 1338 3509 1022 
Q 3338 706 3047 453 
Q 2756 200 2398 54 
Q 2041 -91 1716 -91 
L 1422 -1275 
Q 1409 -1313 1369 -1313 
L 1294 -1313 
Q 1269 -1313 1255 -1289 
Q 1241 -1266 1241 -1247 
z
M 1569 78 
L 2222 2681 
Q 2059 2681 1881 2615 
Q 1703 2550 1545 2450 
Q 1388 2350 1259 2222 
Q 1103 2066 984 1853 
Q 866 1641 805 1405 
Q 744 1169 744 941 
Q 744 700 847 503 
Q 950 306 1137 192 
Q 1325 78 1569 78 
z
M 1759 78 
Q 2000 78 2272 215 
Q 2544 353 2719 538 
Q 2959 775 3098 1120 
Q 3238 1466 3238 1819 
Q 3238 2056 3134 2254 
Q 3031 2453 2843 2567 
Q 2656 2681 2413 2681 
L 1759 78 
z
" transform="scale(0.015625)"/>
      </defs>
      <use xlink:href="#Cmmi10-c1" transform="translate(0 0.609375)"/>
     </g>
    </g>
   </g>
   <g id="PathCollection_1">
    <defs>
     <path id="C0_0_7022e702b6" d="M 0 1.936492 
C 0.513564 1.936492 1.006162 1.732451 1.369306 1.369306 
C 1.732451 1.006162 1.936492 0.513564 1.936492 -0 
C 1.936492 -0.513564 1.732451 -1.006162 1.369306 -1.369306 
C 1.006162 -1.732451 0.513564 -1.936492 0 -1.936492 
C -0.513564 -1.936492 -1.006162 -1.732451 -1.369306 -1.369306 
C -1.732451 -1.006162 -1.936492 -0.513564 -1.936492 0 
C -1.936492 0.513564 -1.732451 1.006162 -1.369306 1.369306 
C -1.006162 1.732451 -0.513564 1.936492 0 1.936492 
z
"/>
    </defs>
    <g clip-path="url(#pacfb6c066b)">
     <use xlink:href="#C0_0_7022e702b6" x="192.849265" y="35.704132" style="fill: #41049d"/>
    </g>
    <g clip-path="url(#pacfb6c066b)">
     <use xlink:href="#C0_0_7022e702b6" x="173.296358" y="33.979964" style="fill: #41049d"/>
    </g>
    <g clip-path="url(#pacfb6c066b)">
     <use xlink:href="#C0_0_7022e702b6" x="153.743451" y="32.148346" style="fill: #41049d"/>
    </g>
    <g clip-path="url(#pacfb6c066b)">
     <use xlink:href="#C0_0_7022e702b6" x="134.190545" y="31.389547" style="fill: #41049d"/>
    </g>
    <g clip-path="url(#pacfb6c066b)">
     <use xlink:href="#C0_0_7022e702b6" x="114.637638" y="27.121024" style="fill: #41049d"/>
    </g>
    <g clip-path="url(#pacfb6c066b)">
     <use xlink:href="#C0_0_7022e702b6" x="95.084732" y="26.465591" style="fill: #41049d"/>
    </g>
    <g clip-path="url(#pacfb6c066b)">
     <use xlink:href="#C0_0_7022e702b6" x="75.531825" y="25.133695" style="fill: #41049d"/>
    </g>
    <g clip-path="url(#pacfb6c066b)">
     <use xlink:href="#C0_0_7022e702b6" x="55.978919" y="23.666235" style="fill: #41049d"/>
    </g>
    <g clip-path="url(#pacfb6c066b)">
     <use xlink:href="#C0_0_7022e702b6" x="36.426012" y="23.308299" style="fill: #41049d"/>
    </g>
   </g>
   <g id="PathCollection_2">
    <defs>
     <path id="C1_0_b44004fa4a" d="M 0 1.936492 
C 0.513564 1.936492 1.006162 1.732451 1.369306 1.369306 
C 1.732451 1.006162 1.936492 0.513564 1.936492 -0 
C 1.936492 -0.513564 1.732451 -1.006162 1.369306 -1.369306 
C 1.006162 -1.732451 0.513564 -1.936492 0 -1.936492 
C -0.513564 -1.936492 -1.006162 -1.732451 -1.369306 -1.369306 
C -1.732451 -1.006162 -1.936492 -0.513564 -1.936492 0 
C -1.936492 0.513564 -1.732451 1.006162 -1.369306 1.369306 
C -1.006162 1.732451 -0.513564 1.936492 0 1.936492 
z
"/>
    </defs>
    <g clip-path="url(#pacfb6c066b)">
     <use xlink:href="#C1_0_b44004fa4a" x="192.849265" y="50.890612" style="fill: #8f0da4"/>
    </g>
    <g clip-path="url(#pacfb6c066b)">
     <use xlink:href="#C1_0_b44004fa4a" x="173.296358" y="49.251135" style="fill: #8f0da4"/>
    </g>
    <g clip-path="url(#pacfb6c066b)">
     <use xlink:href="#C1_0_b44004fa4a" x="153.743451" y="47.238426" style="fill: #8f0da4"/>
    </g>
    <g clip-path="url(#pacfb6c066b)">
     <use xlink:href="#C1_0_b44004fa4a" x="134.190545" y="45.600557" style="fill: #8f0da4"/>
    </g>
    <g clip-path="url(#pacfb6c066b)">
     <use xlink:href="#C1_0_b44004fa4a" x="114.637638" y="45.626885" style="fill: #8f0da4"/>
    </g>
    <g clip-path="url(#pacfb6c066b)">
     <use xlink:href="#C1_0_b44004fa4a" x="95.084732" y="42.048627" style="fill: #8f0da4"/>
    </g>
    <g clip-path="url(#pacfb6c066b)">
     <use xlink:href="#C1_0_b44004fa4a" x="75.531825" y="40.984331" style="fill: #8f0da4"/>
    </g>
    <g clip-path="url(#pacfb6c066b)">
     <use xlink:href="#C1_0_b44004fa4a" x="55.978919" y="38.219129" style="fill: #8f0da4"/>
    </g>
    <g clip-path="url(#pacfb6c066b)">
     <use xlink:href="#C1_0_b44004fa4a" x="36.426012" y="36.597556" style="fill: #8f0da4"/>
    </g>
   </g>
   <g id="PathCollection_3">
    <defs>
     <path id="C2_0_d13297ac75" d="M 0 1.936492 
C 0.513564 1.936492 1.006162 1.732451 1.369306 1.369306 
C 1.732451 1.006162 1.936492 0.513564 1.936492 -0 
C 1.936492 -0.513564 1.732451 -1.006162 1.369306 -1.369306 
C 1.006162 -1.732451 0.513564 -1.936492 0 -1.936492 
C -0.513564 -1.936492 -1.006162 -1.732451 -1.369306 -1.369306 
C -1.732451 -1.006162 -1.936492 -0.513564 -1.936492 0 
C -1.936492 0.513564 -1.732451 1.006162 -1.369306 1.369306 
C -1.006162 1.732451 -0.513564 1.936492 0 1.936492 
z
"/>
    </defs>
    <g clip-path="url(#pacfb6c066b)">
     <use xlink:href="#C2_0_d13297ac75" x="192.849265" y="65.630409" style="fill: #cc4778"/>
    </g>
    <g clip-path="url(#pacfb6c066b)">
     <use xlink:href="#C2_0_d13297ac75" x="173.296358" y="64.03873" style="fill: #cc4778"/>
    </g>
    <g clip-path="url(#pacfb6c066b)">
     <use xlink:href="#C2_0_d13297ac75" x="153.743451" y="62.161691" style="fill: #cc4778"/>
    </g>
    <g clip-path="url(#pacfb6c066b)">
     <use xlink:href="#C2_0_d13297ac75" x="134.190545" y="61.462371" style="fill: #cc4778"/>
    </g>
    <g clip-path="url(#pacfb6c066b)">
     <use xlink:href="#C2_0_d13297ac75" x="114.637638" y="60.465595" style="fill: #cc4778"/>
    </g>
    <g clip-path="url(#pacfb6c066b)">
     <use xlink:href="#C2_0_d13297ac75" x="95.084732" y="57.620847" style="fill: #cc4778"/>
    </g>
    <g clip-path="url(#pacfb6c066b)">
     <use xlink:href="#C2_0_d13297ac75" x="75.531825" y="56.36588" style="fill: #cc4778"/>
    </g>
    <g clip-path="url(#pacfb6c066b)">
     <use xlink:href="#C2_0_d13297ac75" x="55.978919" y="54.481723" style="fill: #cc4778"/>
    </g>
    <g clip-path="url(#pacfb6c066b)">
     <use xlink:href="#C2_0_d13297ac75" x="36.426012" y="53.111717" style="fill: #cc4778"/>
    </g>
   </g>
   <g id="PathCollection_4">
    <defs>
     <path id="C3_0_8e73678ec2" d="M 0 1.936492 
C 0.513564 1.936492 1.006162 1.732451 1.369306 1.369306 
C 1.732451 1.006162 1.936492 0.513564 1.936492 -0 
C 1.936492 -0.513564 1.732451 -1.006162 1.369306 -1.369306 
C 1.006162 -1.732451 0.513564 -1.936492 0 -1.936492 
C -0.513564 -1.936492 -1.006162 -1.732451 -1.369306 -1.369306 
C -1.732451 -1.006162 -1.936492 -0.513564 -1.936492 0 
C -1.936492 0.513564 -1.732451 1.006162 -1.369306 1.369306 
C -1.006162 1.732451 -0.513564 1.936492 0 1.936492 
z
"/>
    </defs>
    <g clip-path="url(#pacfb6c066b)">
     <use xlink:href="#C3_0_8e73678ec2" x="192.849265" y="21.345567" style="fill: #f2844b"/>
    </g>
    <g clip-path="url(#pacfb6c066b)">
     <use xlink:href="#C3_0_8e73678ec2" x="173.296358" y="16.609647" style="fill: #f2844b"/>
    </g>
    <g clip-path="url(#pacfb6c066b)">
     <use xlink:href="#C3_0_8e73678ec2" x="153.743451" y="14.812848" style="fill: #f2844b"/>
    </g>
    <g clip-path="url(#pacfb6c066b)">
     <use xlink:href="#C3_0_8e73678ec2" x="134.190545" y="13.254585" style="fill: #f2844b"/>
    </g>
    <g clip-path="url(#pacfb6c066b)">
     <use xlink:href="#C3_0_8e73678ec2" x="114.637638" y="11.070273" style="fill: #f2844b"/>
    </g>
    <g clip-path="url(#pacfb6c066b)">
     <use xlink:href="#C3_0_8e73678ec2" x="95.084732" y="13.395201" style="fill: #f2844b"/>
    </g>
    <g clip-path="url(#pacfb6c066b)">
     <use xlink:href="#C3_0_8e73678ec2" x="75.531825" y="9.289834" style="fill: #f2844b"/>
    </g>
    <g clip-path="url(#pacfb6c066b)">
     <use xlink:href="#C3_0_8e73678ec2" x="55.978919" y="5.776211" style="fill: #f2844b"/>
    </g>
    <g clip-path="url(#pacfb6c066b)">
     <use xlink:href="#C3_0_8e73678ec2" x="36.426012" y="4.441256" style="fill: #f2844b"/>
    </g>
   </g>
   <g id="LineCollection_1">
    <path d="M 192.849265 36.227721 
L 192.849265 35.180543 
" clip-path="url(#pacfb6c066b)" style="fill: none; stroke: #41049d; stroke-width: 0.7"/>
    <path d="M 173.296358 34.31757 
L 173.296358 33.642357 
" clip-path="url(#pacfb6c066b)" style="fill: none; stroke: #41049d; stroke-width: 0.7"/>
    <path d="M 153.743451 32.601937 
L 153.743451 31.694754 
" clip-path="url(#pacfb6c066b)" style="fill: none; stroke: #41049d; stroke-width: 0.7"/>
    <path d="M 134.190545 32.082331 
L 134.190545 30.696763 
" clip-path="url(#pacfb6c066b)" style="fill: none; stroke: #41049d; stroke-width: 0.7"/>
    <path d="M 114.637638 30.126091 
L 114.637638 24.115957 
" clip-path="url(#pacfb6c066b)" style="fill: none; stroke: #41049d; stroke-width: 0.7"/>
    <path d="M 95.084732 26.681007 
L 95.084732 26.250174 
" clip-path="url(#pacfb6c066b)" style="fill: none; stroke: #41049d; stroke-width: 0.7"/>
    <path d="M 75.531825 25.541803 
L 75.531825 24.725587 
" clip-path="url(#pacfb6c066b)" style="fill: none; stroke: #41049d; stroke-width: 0.7"/>
    <path d="M 55.978919 24.79428 
L 55.978919 22.538191 
" clip-path="url(#pacfb6c066b)" style="fill: none; stroke: #41049d; stroke-width: 0.7"/>
    <path d="M 36.426012 23.727588 
L 36.426012 22.88901 
" clip-path="url(#pacfb6c066b)" style="fill: none; stroke: #41049d; stroke-width: 0.7"/>
   </g>
   <g id="line2d_13">
    <path d="M 212.402171 68.615585 
L 192.849265 66.870024 
L 173.296358 65.124463 
L 153.743451 63.378903 
L 134.190545 61.633342 
L 114.637638 59.887781 
L 95.084732 58.14222 
L 75.531825 56.396659 
L 55.978919 54.651099 
L 36.426012 52.905538 
L 30.824517 52.405471 
" clip-path="url(#pacfb6c066b)" style="fill: none; stroke-dasharray: 4.44,1.92; stroke-dashoffset: 0; stroke: #cc4778; stroke-opacity: 0.7; stroke-width: 1.2"/>
   </g>
   <g id="line2d_14">
    <path d="M 212.402171 69.65292 
L 210.624634 69.478364 
L 208.847097 69.478364 
L 207.06956 69.303808 
L 205.292023 69.129252 
L 203.514486 68.954696 
L 201.736949 68.78014 
L 199.959412 68.605584 
L 198.181875 68.431028 
L 196.404338 68.256472 
L 194.626801 68.081915 
L 192.849265 67.732803 
L 191.071728 67.558247 
L 189.294191 67.209135 
L 187.516654 66.860023 
L 185.739117 66.510911 
L 183.96158 66.161799 
L 182.184043 65.812686 
L 180.406506 65.463574 
L 178.628969 65.114462 
L 176.851432 64.76535 
L 175.073895 64.416238 
L 173.296358 64.241682 
L 171.518821 63.89257 
L 169.741284 63.718013 
L 167.963747 63.543457 
L 166.18621 63.368901 
L 164.408673 63.194345 
L 162.631136 63.019789 
L 160.853599 62.845233 
L 159.076062 62.670677 
L 157.298525 62.496121 
L 155.520988 62.496121 
L 153.743451 62.321565 
L 151.965914 62.147009 
L 150.188378 62.147009 
L 148.410841 61.972453 
L 146.633304 61.797897 
L 144.855767 61.797897 
L 143.07823 61.62334 
L 141.300693 61.62334 
L 139.523156 61.448784 
L 137.745619 61.448784 
L 135.968082 61.274228 
L 134.190545 61.274228 
L 132.413008 61.099672 
L 130.635471 61.099672 
L 128.857934 60.925116 
L 127.080397 60.925116 
L 125.30286 60.75056 
L 123.525323 60.75056 
L 121.747786 60.576004 
L 119.970249 60.576004 
L 118.192712 60.401448 
L 116.415175 60.401448 
L 114.637638 60.226892 
L 112.860101 60.226892 
L 111.082564 60.052336 
L 109.305027 60.052336 
L 107.527491 59.87778 
L 105.749954 59.87778 
L 103.972417 59.703224 
L 102.19488 59.703224 
L 100.417343 59.528668 
L 98.639806 59.354111 
L 96.862269 59.354111 
L 95.084732 59.179555 
L 93.307195 59.004999 
L 91.529658 59.004999 
L 89.752121 58.830443 
L 87.974584 58.655887 
L 86.197047 58.481331 
L 84.41951 58.306775 
L 82.641973 58.132219 
L 80.864436 57.957663 
L 79.086899 57.783107 
L 77.309362 57.608551 
L 75.531825 57.259438 
L 73.754288 57.084882 
L 71.976751 56.73577 
L 70.199214 56.386658 
L 68.421677 56.037546 
L 66.64414 55.688434 
L 64.866604 55.339322 
L 63.089067 54.990209 
L 61.31153 54.641097 
L 59.533993 54.291985 
L 57.756456 53.942873 
L 55.978919 53.768317 
L 54.201382 53.419205 
L 52.423845 53.244649 
L 50.646308 53.070093 
L 48.868771 52.895537 
L 47.091234 52.72098 
L 45.313697 52.546424 
L 43.53616 52.371868 
L 41.758623 52.197312 
L 39.981086 52.022756 
L 38.203549 52.022756 
L 36.426012 51.8482 
" clip-path="url(#pacfb6c066b)" style="fill: none; stroke: #cc4778; stroke-opacity: 0.6; stroke-width: 0.8; stroke-linecap: square"/>
   </g>
   <g id="LineCollection_2">
    <path d="M 192.849265 52.183019 
L 192.849265 49.598205 
" clip-path="url(#pacfb6c066b)" style="fill: none; stroke: #8f0da4; stroke-width: 0.7"/>
    <path d="M 173.296358 49.587137 
L 173.296358 48.915133 
" clip-path="url(#pacfb6c066b)" style="fill: none; stroke: #8f0da4; stroke-width: 0.7"/>
    <path d="M 153.743451 47.530479 
L 153.743451 46.946374 
" clip-path="url(#pacfb6c066b)" style="fill: none; stroke: #8f0da4; stroke-width: 0.7"/>
    <path d="M 134.190545 46.894969 
L 134.190545 44.306145 
" clip-path="url(#pacfb6c066b)" style="fill: none; stroke: #8f0da4; stroke-width: 0.7"/>
    <path d="M 114.637638 49.23829 
L 114.637638 42.015481 
" clip-path="url(#pacfb6c066b)" style="fill: none; stroke: #8f0da4; stroke-width: 0.7"/>
    <path d="M 95.084732 42.35332 
L 95.084732 41.743934 
" clip-path="url(#pacfb6c066b)" style="fill: none; stroke: #8f0da4; stroke-width: 0.7"/>
    <path d="M 75.531825 41.522915 
L 75.531825 40.445748 
" clip-path="url(#pacfb6c066b)" style="fill: none; stroke: #8f0da4; stroke-width: 0.7"/>
    <path d="M 55.978919 39.106235 
L 55.978919 37.332024 
" clip-path="url(#pacfb6c066b)" style="fill: none; stroke: #8f0da4; stroke-width: 0.7"/>
    <path d="M 36.426012 37.024044 
L 36.426012 36.171068 
" clip-path="url(#pacfb6c066b)" style="fill: none; stroke: #8f0da4; stroke-width: 0.7"/>
   </g>
   <g id="line2d_15">
    <path d="M 212.402171 52.905538 
L 192.849265 51.159977 
L 173.296358 49.414416 
L 153.743451 47.668855 
L 134.190545 45.923295 
L 114.637638 44.177734 
L 95.084732 42.432173 
L 75.531825 40.686612 
L 55.978919 38.941051 
L 36.426012 37.195491 
L 30.824517 36.695424 
" clip-path="url(#pacfb6c066b)" style="fill: none; stroke-dasharray: 4.44,1.92; stroke-dashoffset: 0; stroke: #8f0da4; stroke-opacity: 0.7; stroke-width: 1.2"/>
   </g>
   <g id="line2d_16">
    <path d="M 212.402171 51.8482 
L 210.624634 51.673644 
L 208.847097 51.673644 
L 207.06956 51.499088 
L 205.292023 51.324532 
L 203.514486 51.324532 
L 201.736949 51.149976 
L 199.959412 51.149976 
L 198.181875 50.97542 
L 196.404338 50.97542 
L 194.626801 50.800864 
L 192.849265 50.800864 
L 191.071728 50.626307 
L 189.294191 50.626307 
L 187.516654 50.451751 
L 185.739117 50.451751 
L 183.96158 50.277195 
L 182.184043 50.277195 
L 180.406506 50.102639 
L 178.628969 50.102639 
L 176.851432 49.928083 
L 175.073895 49.928083 
L 173.296358 49.753527 
L 171.518821 49.753527 
L 169.741284 49.578971 
L 167.963747 49.578971 
L 166.18621 49.404415 
L 164.408673 49.404415 
L 162.631136 49.229859 
L 160.853599 49.229859 
L 159.076062 49.055303 
L 157.298525 48.880747 
L 155.520988 48.880747 
L 153.743451 48.706191 
L 151.965914 48.531635 
L 150.188378 48.531635 
L 148.410841 48.357078 
L 146.633304 48.182522 
L 144.855767 48.007966 
L 143.07823 47.83341 
L 141.300693 47.658854 
L 139.523156 47.484298 
L 137.745619 47.309742 
L 135.968082 47.135186 
L 134.190545 46.786074 
L 132.413008 46.611518 
L 130.635471 46.262405 
L 128.857934 45.913293 
L 127.080397 45.564181 
L 125.30286 45.215069 
L 123.525323 44.865957 
L 121.747786 44.516845 
L 119.970249 44.167733 
L 118.192712 43.81862 
L 116.415175 43.469508 
L 114.637638 43.294952 
L 112.860101 42.94584 
L 111.082564 42.771284 
L 109.305027 42.596728 
L 107.527491 42.422172 
L 105.749954 42.247616 
L 103.972417 42.07306 
L 102.19488 41.898503 
L 100.417343 41.723947 
L 98.639806 41.549391 
L 96.862269 41.549391 
L 95.084732 41.374835 
L 93.307195 41.200279 
L 91.529658 41.200279 
L 89.752121 41.025723 
L 87.974584 40.851167 
L 86.197047 40.851167 
L 84.41951 40.676611 
L 82.641973 40.676611 
L 80.864436 40.502055 
L 79.086899 40.502055 
L 77.309362 40.327499 
L 75.531825 40.327499 
L 73.754288 40.152943 
L 71.976751 40.152943 
L 70.199214 39.978387 
L 68.421677 39.978387 
L 66.64414 39.803831 
L 64.866604 39.803831 
L 63.089067 39.629274 
L 61.31153 39.629274 
L 59.533993 39.454718 
L 57.756456 39.454718 
L 55.978919 39.280162 
L 54.201382 39.280162 
L 52.423845 39.105606 
L 50.646308 39.105606 
L 48.868771 38.93105 
L 47.091234 38.93105 
L 45.313697 38.756494 
L 43.53616 38.756494 
L 41.758623 38.581938 
L 39.981086 38.407382 
L 38.203549 38.407382 
L 36.426012 38.232826 
" clip-path="url(#pacfb6c066b)" style="fill: none; stroke: #8f0da4; stroke-opacity: 0.6; stroke-width: 0.8; stroke-linecap: square"/>
   </g>
   <g id="LineCollection_3">
    <path d="M 192.849265 66.825052 
L 192.849265 64.435766 
" clip-path="url(#pacfb6c066b)" style="fill: none; stroke: #cc4778; stroke-width: 0.7"/>
    <path d="M 173.296358 64.474101 
L 173.296358 63.603359 
" clip-path="url(#pacfb6c066b)" style="fill: none; stroke: #cc4778; stroke-width: 0.7"/>
    <path d="M 153.743451 62.610839 
L 153.743451 61.712543 
" clip-path="url(#pacfb6c066b)" style="fill: none; stroke: #cc4778; stroke-width: 0.7"/>
    <path d="M 134.190545 62.316694 
L 134.190545 60.608048 
" clip-path="url(#pacfb6c066b)" style="fill: none; stroke: #cc4778; stroke-width: 0.7"/>
    <path d="M 114.637638 62.205818 
L 114.637638 58.725372 
" clip-path="url(#pacfb6c066b)" style="fill: none; stroke: #cc4778; stroke-width: 0.7"/>
    <path d="M 95.084732 58.049135 
L 95.084732 57.192559 
" clip-path="url(#pacfb6c066b)" style="fill: none; stroke: #cc4778; stroke-width: 0.7"/>
    <path d="M 75.531825 56.851029 
L 75.531825 55.880731 
" clip-path="url(#pacfb6c066b)" style="fill: none; stroke: #cc4778; stroke-width: 0.7"/>
    <path d="M 55.978919 55.998363 
L 55.978919 52.965084 
" clip-path="url(#pacfb6c066b)" style="fill: none; stroke: #cc4778; stroke-width: 0.7"/>
    <path d="M 36.426012 53.52026 
L 36.426012 52.703174 
" clip-path="url(#pacfb6c066b)" style="fill: none; stroke: #cc4778; stroke-width: 0.7"/>
   </g>
   <g id="line2d_17">
    <path d="M 212.402171 37.195491 
L 192.849265 35.44993 
L 173.296358 33.704369 
L 153.743451 31.958808 
L 134.190545 30.213247 
L 114.637638 28.467687 
L 95.084732 26.722126 
L 75.531825 24.976565 
L 55.978919 23.231004 
L 36.426012 21.485444 
L 30.824517 20.985377 
" clip-path="url(#pacfb6c066b)" style="fill: none; stroke-dasharray: 4.44,1.92; stroke-dashoffset: 0; stroke: #41049d; stroke-opacity: 0.7; stroke-width: 1.2"/>
   </g>
   <g id="line2d_18">
    <path d="M 212.402171 38.232826 
L 210.624634 38.05827 
L 208.847097 38.05827 
L 207.06956 37.883714 
L 205.292023 37.709158 
L 203.514486 37.534601 
L 201.736949 37.360045 
L 199.959412 37.185489 
L 198.181875 37.010933 
L 196.404338 36.836377 
L 194.626801 36.661821 
L 192.849265 36.312709 
L 191.071728 36.138153 
L 189.294191 35.789041 
L 187.516654 35.439929 
L 185.739117 35.090816 
L 183.96158 34.741704 
L 182.184043 34.392592 
L 180.406506 34.04348 
L 178.628969 33.694368 
L 176.851432 33.345256 
L 175.073895 32.996143 
L 173.296358 32.821587 
L 171.518821 32.472475 
L 169.741284 32.297919 
L 167.963747 32.123363 
L 166.18621 31.948807 
L 164.408673 31.774251 
L 162.631136 31.599695 
L 160.853599 31.425139 
L 159.076062 31.250583 
L 157.298525 31.076027 
L 155.520988 31.076027 
L 153.743451 30.90147 
L 151.965914 30.726914 
L 150.188378 30.726914 
L 148.410841 30.552358 
L 146.633304 30.377802 
L 144.855767 30.377802 
L 143.07823 30.203246 
L 141.300693 30.203246 
L 139.523156 30.02869 
L 137.745619 30.02869 
L 135.968082 29.854134 
L 134.190545 29.854134 
L 132.413008 29.679578 
L 130.635471 29.679578 
L 128.857934 29.505022 
L 127.080397 29.505022 
L 125.30286 29.330466 
L 123.525323 29.330466 
L 121.747786 29.15591 
L 119.970249 29.15591 
L 118.192712 28.981354 
L 116.415175 28.981354 
L 114.637638 28.806798 
L 112.860101 28.806798 
L 111.082564 28.632241 
L 109.305027 28.632241 
L 107.527491 28.457685 
L 105.749954 28.457685 
L 103.972417 28.283129 
L 102.19488 28.283129 
L 100.417343 28.108573 
L 98.639806 27.934017 
L 96.862269 27.934017 
L 95.084732 27.759461 
L 93.307195 27.584905 
L 91.529658 27.584905 
L 89.752121 27.410349 
L 87.974584 27.235793 
L 86.197047 27.061237 
L 84.41951 26.886681 
L 82.641973 26.712125 
L 80.864436 26.537568 
L 79.086899 26.363012 
L 77.309362 26.188456 
L 75.531825 25.839344 
L 73.754288 25.664788 
L 71.976751 25.315676 
L 70.199214 24.966564 
L 68.421677 24.617452 
L 66.64414 24.268339 
L 64.866604 23.919227 
L 63.089067 23.570115 
L 61.31153 23.221003 
L 59.533993 22.871891 
L 57.756456 22.522779 
L 55.978919 22.348223 
L 54.201382 21.99911 
L 52.423845 21.824554 
L 50.646308 21.649998 
L 48.868771 21.475442 
L 47.091234 21.300886 
L 45.313697 21.12633 
L 43.53616 20.951774 
L 41.758623 20.777218 
L 39.981086 20.602662 
L 38.203549 20.602662 
L 36.426012 20.428106 
" clip-path="url(#pacfb6c066b)" style="fill: none; stroke: #41049d; stroke-opacity: 0.6; stroke-width: 0.8; stroke-linecap: square"/>
   </g>
   <g id="LineCollection_4">
    <path d="M 192.849265 22.151269 
L 192.849265 20.539865 
" clip-path="url(#pacfb6c066b)" style="fill: none; stroke: #f2844b; stroke-width: 0.7"/>
    <path d="M 173.296358 17.489076 
L 173.296358 15.730217 
" clip-path="url(#pacfb6c066b)" style="fill: none; stroke: #f2844b; stroke-width: 0.7"/>
    <path d="M 153.743451 15.208439 
L 153.743451 14.417257 
" clip-path="url(#pacfb6c066b)" style="fill: none; stroke: #f2844b; stroke-width: 0.7"/>
    <path d="M 134.190545 13.827723 
L 134.190545 12.681447 
" clip-path="url(#pacfb6c066b)" style="fill: none; stroke: #f2844b; stroke-width: 0.7"/>
    <path d="M 114.637638 14.074424 
L 114.637638 8.066123 
" clip-path="url(#pacfb6c066b)" style="fill: none; stroke: #f2844b; stroke-width: 0.7"/>
    <path d="M 95.084732 13.870473 
L 95.084732 12.919929 
" clip-path="url(#pacfb6c066b)" style="fill: none; stroke: #f2844b; stroke-width: 0.7"/>
    <path d="M 75.531825 10.214102 
L 75.531825 8.365567 
" clip-path="url(#pacfb6c066b)" style="fill: none; stroke: #f2844b; stroke-width: 0.7"/>
    <path d="M 55.978919 7.170031 
L 55.978919 4.382391 
" clip-path="url(#pacfb6c066b)" style="fill: none; stroke: #f2844b; stroke-width: 0.7"/>
    <path d="M 36.426012 5.156839 
L 36.426012 3.725673 
" clip-path="url(#pacfb6c066b)" style="fill: none; stroke: #f2844b; stroke-width: 0.7"/>
   </g>
   <g id="line2d_19">
    <path d="M 212.402171 21.485444 
L 192.849265 19.739883 
L 173.296358 17.994322 
L 153.743451 16.248761 
L 134.190545 14.5032 
L 114.637638 12.75764 
L 95.084732 11.012079 
L 75.531825 9.266518 
L 55.978919 7.520957 
L 36.426012 5.775396 
L 30.824517 5.27533 
" clip-path="url(#pacfb6c066b)" style="fill: none; stroke-dasharray: 4.44,1.92; stroke-dashoffset: 0; stroke: #f2844b; stroke-opacity: 0.7; stroke-width: 1.2"/>
   </g>
   <g id="line2d_20">
    <path d="M 212.402171 20.428106 
L 210.624634 20.25355 
L 208.847097 20.25355 
L 207.06956 20.078994 
L 205.292023 19.904437 
L 203.514486 19.904437 
L 201.736949 19.729881 
L 199.959412 19.729881 
L 198.181875 19.555325 
L 196.404338 19.555325 
L 194.626801 19.380769 
L 192.849265 19.380769 
L 191.071728 19.206213 
L 189.294191 19.206213 
L 187.516654 19.031657 
L 185.739117 19.031657 
L 183.96158 18.857101 
L 182.184043 18.857101 
L 180.406506 18.682545 
L 178.628969 18.682545 
L 176.851432 18.507989 
L 175.073895 18.507989 
L 173.296358 18.333433 
L 171.518821 18.333433 
L 169.741284 18.158877 
L 167.963747 18.158877 
L 166.18621 17.984321 
L 164.408673 17.984321 
L 162.631136 17.809765 
L 160.853599 17.809765 
L 159.076062 17.635208 
L 157.298525 17.460652 
L 155.520988 17.460652 
L 153.743451 17.286096 
L 151.965914 17.11154 
L 150.188378 17.11154 
L 148.410841 16.936984 
L 146.633304 16.762428 
L 144.855767 16.587872 
L 143.07823 16.413316 
L 141.300693 16.23876 
L 139.523156 16.064204 
L 137.745619 15.889648 
L 135.968082 15.715092 
L 134.190545 15.365979 
L 132.413008 15.191423 
L 130.635471 14.842311 
L 128.857934 14.493199 
L 127.080397 14.144087 
L 125.30286 13.794975 
L 123.525323 13.445863 
L 121.747786 13.09675 
L 119.970249 12.747638 
L 118.192712 12.398526 
L 116.415175 12.049414 
L 114.637638 11.874858 
L 112.860101 11.525746 
L 111.082564 11.35119 
L 109.305027 11.176633 
L 107.527491 11.002077 
L 105.749954 10.827521 
L 103.972417 10.652965 
L 102.19488 10.478409 
L 100.417343 10.303853 
L 98.639806 10.129297 
L 96.862269 10.129297 
L 95.084732 9.954741 
L 93.307195 9.780185 
L 91.529658 9.780185 
L 89.752121 9.605629 
L 87.974584 9.431073 
L 86.197047 9.431073 
L 84.41951 9.256517 
L 82.641973 9.256517 
L 80.864436 9.081961 
L 79.086899 9.081961 
L 77.309362 8.907404 
L 75.531825 8.907404 
L 73.754288 8.732848 
L 71.976751 8.732848 
L 70.199214 8.558292 
L 68.421677 8.558292 
L 66.64414 8.383736 
L 64.866604 8.383736 
L 63.089067 8.20918 
L 61.31153 8.20918 
L 59.533993 8.034624 
L 57.756456 8.034624 
L 55.978919 7.860068 
L 54.201382 7.860068 
L 52.423845 7.685512 
L 50.646308 7.685512 
L 48.868771 7.510956 
L 47.091234 7.510956 
L 45.313697 7.3364 
L 43.53616 7.3364 
L 41.758623 7.161844 
L 39.981086 6.987288 
L 38.203549 6.987288 
L 36.426012 6.812731 
" clip-path="url(#pacfb6c066b)" style="fill: none; stroke: #f2844b; stroke-opacity: 0.6; stroke-width: 0.8; stroke-linecap: square"/>
   </g>
   <g id="line2d_21">
    <path d="M 155.903451 74.9408 
L 151.583451 67.99909 
" style="fill: none; stroke: #444444; stroke-width: 1.5; stroke-linecap: square"/>
   </g>
   <g id="line2d_22">
    <path d="M 113.887478 75.416856 
L 115.387798 67.523035 
" style="fill: none; stroke: #444444; stroke-width: 1.5; stroke-linecap: square"/>
   </g>
   <g id="line2d_23">
    <path d="M 72.222513 74.046108 
L 78.841137 68.893782 
" style="fill: none; stroke: #444444; stroke-width: 1.5; stroke-linecap: square"/>
   </g>
   <g id="line2d_24">
    <path d="M 32.106012 71.469945 
L 40.746012 71.469945 
" style="fill: none; stroke: #444444; stroke-width: 1.5; stroke-linecap: square"/>
   </g>
   <g id="line2d_25"/>
   <g id="line2d_26"/>
   <g id="line2d_27"/>
   <g id="line2d_28"/>
   <g id="patch_3">
    <path d="M 28.02377 81.964812 
L 28.02377 0 
" style="fill: none; stroke: #000000; stroke-width: 0.8; stroke-linejoin: miter; stroke-linecap: square"/>
   </g>
   <g id="patch_4">
    <path d="M 215.202919 81.964812 
L 215.202919 0 
" style="fill: none; stroke: #000000; stroke-width: 0.8; stroke-linejoin: miter; stroke-linecap: square"/>
   </g>
   <g id="patch_5">
    <path d="M 28.02377 81.964812 
L 215.202919 81.964812 
" style="fill: none; stroke: #000000; stroke-width: 0.8; stroke-linejoin: miter; stroke-linecap: square"/>
   </g>
   <g id="patch_6">
    <path d="M 28.02377 0 
L 215.202919 0 
" style="fill: none; stroke: #000000; stroke-width: 0.8; stroke-linejoin: miter; stroke-linecap: square"/>
   </g>
   <g id="patch_7">
    <path d="M 157.080404 76.832018 
Q 153.743451 71.469945 150.406499 66.107872 
" style="fill: none"/>
    <path d="M 156.66498 72.379219 
L 157.080404 76.832018 
L 153.26891 74.492678 
z
" style="fill: #444444"/>
    <path d="M 150.821923 70.560671 
L 150.406499 66.107872 
L 154.217993 68.447212 
z
" style="fill: #444444"/>
   </g>
   <g id="patch_8">
    <path d="M 113.481428 77.55326 
Q 114.637638 71.469945 115.793849 65.38663 
" style="fill: none"/>
    <path d="M 116.193134 73.997047 
L 113.481428 77.55326 
L 112.263481 73.250167 
z
" style="fill: #444444"/>
    <path d="M 113.082143 68.942843 
L 115.793849 65.38663 
L 117.011795 69.689723 
z
" style="fill: #444444"/>
   </g>
   <g id="patch_9">
    <path d="M 70.402203 75.463145 
Q 75.531825 71.469945 80.661448 67.476746 
" style="fill: none"/>
    <path d="M 74.787121 74.584227 
L 70.402203 75.463145 
L 72.330019 71.42786 
z
" style="fill: #444444"/>
    <path d="M 76.27653 68.355664 
L 80.661448 67.476746 
L 78.733631 71.512031 
z
" style="fill: #444444"/>
   </g>
   <g id="patch_10">
    <path d="M 29.704538 71.469945 
Q 36.426012 71.469945 43.147487 71.469945 
" style="fill: none"/>
    <path d="M 33.704538 73.469945 
L 29.704538 71.469945 
L 33.704538 69.469945 
z
" style="fill: #444444"/>
    <path d="M 39.147487 69.469945 
L 43.147487 71.469945 
L 39.147487 73.469945 
z
" style="fill: #444444"/>
   </g>
  </g>
 </g>
 <defs>
  <clipPath id="pacfb6c066b">
   <rect x="28.02377" y="0" width="187.179149" height="81.964812"/>
  </clipPath>
 </defs>
</svg>
