<?xml version="1.0" encoding="utf-8" standalone="no"?>
<!DOCTYPE svg PUBLIC "-//W3C//DTD SVG 1.1//EN"
  "http://www.w3.org/Graphics/SVG/1.1/DTD/svg11.dtd">
<svg xmlns:xlink="http://www.w3.org/1999/xlink" width="170.07874pt" height="85.03937pt" viewBox="0 0 170.07874 85.03937" xmlns="http://www.w3.org/2000/svg" version="1.1">
 <metadata>
  <rdf:RDF xmlns:dc="http://purl.org/dc/elements/1.1/" xmlns:cc="http://creativecommons.org/ns#" xmlns:rdf="http://www.w3.org/1999/02/22-rdf-syntax-ns#">
   <cc:Work>
    <dc:type rdf:resource="http://purl.org/dc/dcmitype/StillImage"/>
    <dc:date>2026-02-25T15:05:25.092404</dc:date>
    <dc:format>image/svg+xml</dc:format>
    <dc:creator>
     <cc:Agent>
      <dc:title>Matplotlib v3.7.2, https://matplotlib.org/</dc:title>
     </cc:Agent>
    </dc:creator>
   </cc:Work>
  </rdf:RDF>
 </metadata>
 <defs>
  <style type="text/css">*{stroke-linejoin: round; stroke-linecap: butt}</style>
 </defs>
 <g id="figure_1">
  <g id="patch_1">
   <path d="M 0 85.03937 
L 170.07874 85.03937 
L 170.07874 0 
L 0 0 
L 0 85.03937 
z
" style="fill: none"/>
  </g>
  <g id="axes_1">
   <g id="patch_2">
    <path d="M 18.18248 68.208933 
L 169.879769 68.208933 
L 169.879769 0 
L 18.18248 0 
z
" style="fill: #ffffff"/>
   </g>
   <g id="matplotlib.axis_1">
    <g id="xtick_1">
     <g id="line2d_1">
      <defs>
       <path id="mfd77a36587" d="M 0 0 
L 0 -3 
" style="stroke: #000000"/>
      </defs>
      <g>
       <use xlink:href="#mfd77a36587" x="24.991986" y="68.208933" style="stroke: #000000"/>
      </g>
     </g>
     <g id="line2d_2">
      <defs>
       <path id="meb3fe416be" d="M 0 0 
L 0 3 
" style="stroke: #000000"/>
      </defs>
      <g>
       <use xlink:href="#meb3fe416be" x="24.991986" y="0" style="stroke: #000000"/>
      </g>
     </g>
     <g id="text_1">
      <!-- $0$ -->
      <g transform="translate(23.241986 75.719401) scale(0.07 -0.07)">
       <defs>
        <path id="Cmr10-30" d="M 1600 -141 
Q 816 -141 533 504 
Q 250 1150 250 2041 
Q 250 2597 351 3087 
Q 453 3578 754 3920 
Q 1056 4263 1600 4263 
Q 2022 4263 2290 4056 
Q 2559 3850 2700 3523 
Q 2841 3197 2892 2823 
Q 2944 2450 2944 2041 
Q 2944 1491 2842 1011 
Q 2741 531 2444 195 
Q 2147 -141 1600 -141 
z
M 1600 25 
Q 1956 25 2131 390 
Q 2306 756 2347 1200 
Q 2388 1644 2388 2144 
Q 2388 2625 2347 3031 
Q 2306 3438 2132 3767 
Q 1959 4097 1600 4097 
Q 1238 4097 1063 3765 
Q 888 3434 847 3029 
Q 806 2625 806 2144 
Q 806 1788 823 1472 
Q 841 1156 916 820 
Q 991 484 1158 254 
Q 1325 25 1600 25 
z
" transform="scale(0.015625)"/>
       </defs>
       <use xlink:href="#Cmr10-30" transform="translate(0 0.390625)"/>
      </g>
     </g>
    </g>
    <g id="xtick_2">
     <g id="line2d_3">
      <g>
       <use xlink:href="#mfd77a36587" x="96.30096" y="68.208933" style="stroke: #000000"/>
      </g>
     </g>
     <g id="line2d_4">
      <g>
       <use xlink:href="#meb3fe416be" x="96.30096" y="0" style="stroke: #000000"/>
      </g>
     </g>
     <g id="text_2">
      <!-- $\pi/2$ -->
      <g transform="translate(90.80596 75.958933) scale(0.07 -0.07)">
       <defs>
        <path id="Cmmi10-bc" d="M 647 109 
Q 647 144 672 213 
Q 850 584 1004 942 
Q 1159 1300 1282 1639 
Q 1406 1978 1509 2363 
L 1100 2363 
Q 866 2363 662 2216 
Q 459 2069 325 1844 
Q 313 1819 288 1819 
L 213 1819 
Q 153 1819 153 1881 
Q 153 1894 166 1919 
Q 375 2275 614 2517 
Q 853 2759 1153 2759 
L 3475 2759 
Q 3541 2759 3587 2715 
Q 3634 2672 3634 2597 
Q 3634 2503 3567 2433 
Q 3500 2363 3406 2363 
L 2591 2363 
Q 2488 1859 2478 1381 
Q 2478 766 2694 269 
Q 2713 231 2713 191 
Q 2713 122 2672 62 
Q 2631 3 2567 -34 
Q 2503 -72 2431 -72 
Q 2263 -72 2200 203 
Q 2138 478 2138 738 
Q 2138 1103 2200 1442 
Q 2263 1781 2400 2363 
L 1703 2363 
Q 1197 313 1094 103 
Q 1003 -72 844 -72 
Q 766 -72 706 -20 
Q 647 31 647 109 
z
" transform="scale(0.015625)"/>
        <path id="Cmmi10-3d" d="M 359 -1472 
Q 359 -1453 366 -1447 
L 2591 4722 
Q 2603 4759 2634 4779 
Q 2666 4800 2706 4800 
Q 2763 4800 2798 4765 
Q 2834 4731 2834 4672 
L 2834 4647 
L 609 -1522 
Q 572 -1600 488 -1600 
Q 434 -1600 396 -1562 
Q 359 -1525 359 -1472 
z
" transform="scale(0.015625)"/>
        <path id="Cmr10-32" d="M 319 0 
L 319 172 
Q 319 188 331 206 
L 1325 1306 
Q 1550 1550 1690 1715 
Q 1831 1881 1968 2097 
Q 2106 2313 2186 2536 
Q 2266 2759 2266 3009 
Q 2266 3272 2169 3511 
Q 2072 3750 1880 3894 
Q 1688 4038 1416 4038 
Q 1138 4038 916 3870 
Q 694 3703 603 3438 
Q 628 3444 672 3444 
Q 816 3444 917 3347 
Q 1019 3250 1019 3097 
Q 1019 2950 917 2848 
Q 816 2747 672 2747 
Q 522 2747 420 2851 
Q 319 2956 319 3097 
Q 319 3338 409 3548 
Q 500 3759 670 3923 
Q 841 4088 1055 4175 
Q 1269 4263 1509 4263 
Q 1875 4263 2190 4108 
Q 2506 3953 2690 3670 
Q 2875 3388 2875 3009 
Q 2875 2731 2753 2481 
Q 2631 2231 2440 2026 
Q 2250 1822 1953 1562 
Q 1656 1303 1563 1216 
L 838 519 
L 1453 519 
Q 1906 519 2211 526 
Q 2516 534 2534 550 
Q 2609 631 2688 1141 
L 2875 1141 
L 2694 0 
L 319 0 
z
" transform="scale(0.015625)"/>
       </defs>
       <use xlink:href="#Cmmi10-bc"/>
       <use xlink:href="#Cmmi10-3d" transform="translate(56.982422 0)"/>
       <use xlink:href="#Cmr10-32" transform="translate(106.982422 0)"/>
      </g>
     </g>
    </g>
    <g id="xtick_3">
     <g id="line2d_5">
      <g>
       <use xlink:href="#mfd77a36587" x="167.609933" y="68.208933" style="stroke: #000000"/>
      </g>
     </g>
     <g id="line2d_6">
      <g>
       <use xlink:href="#meb3fe416be" x="167.609933" y="0" style="stroke: #000000"/>
      </g>
     </g>
     <g id="text_3">
      <!-- $\pi$ -->
      <g transform="translate(165.614933 75.719401) scale(0.07 -0.07)">
       <use xlink:href="#Cmmi10-bc" transform="translate(0 0.890625)"/>
      </g>
     </g>
    </g>
    <g id="text_4">
     <!-- $\theta_{PM}$ -->
     <g transform="translate(88.186125 82.719401) scale(0.07 -0.07)">
      <defs>
       <path id="Cmmi10-b5" d="M 1031 -72 
Q 741 -72 566 140 
Q 391 353 323 653 
Q 256 953 256 1247 
L 256 1253 
Q 256 1572 317 1915 
Q 378 2259 493 2601 
Q 609 2944 744 3213 
Q 838 3400 986 3631 
Q 1134 3863 1317 4064 
Q 1500 4266 1711 4389 
Q 1922 4513 2138 4513 
L 2144 4513 
Q 2375 4513 2529 4384 
Q 2684 4256 2770 4056 
Q 2856 3856 2890 3628 
Q 2925 3400 2925 3194 
Q 2925 2709 2794 2204 
Q 2663 1700 2431 1228 
Q 2344 1050 2189 809 
Q 2034 569 1861 378 
Q 1688 188 1472 58 
Q 1256 -72 1038 -72 
L 1031 -72 
z
M 1044 97 
Q 1256 97 1451 323 
Q 1647 550 1794 873 
Q 1941 1197 2052 1536 
Q 2163 1875 2216 2113 
L 909 2113 
Q 809 1709 753 1417 
Q 697 1125 697 844 
Q 697 97 1044 97 
z
M 959 2338 
L 2272 2338 
Q 2341 2619 2381 2808 
Q 2422 2997 2450 3206 
Q 2478 3416 2478 3597 
Q 2478 4347 2138 4347 
Q 1731 4347 1436 3692 
Q 1141 3038 959 2338 
z
" transform="scale(0.015625)"/>
       <path id="Cmmi10-50" d="M 313 0 
Q 250 0 250 84 
Q 253 100 262 139 
Q 272 178 289 201 
Q 306 225 331 225 
Q 722 225 878 269 
Q 959 297 997 441 
L 1875 3956 
Q 1888 4019 1888 4044 
Q 1888 4113 1813 4122 
Q 1691 4147 1350 4147 
Q 1288 4147 1288 4231 
Q 1291 4247 1300 4286 
Q 1309 4325 1326 4348 
Q 1344 4372 1369 4372 
L 3578 4372 
Q 3881 4372 4165 4264 
Q 4450 4156 4631 3934 
Q 4813 3713 4813 3397 
Q 4813 2991 4527 2672 
Q 4241 2353 3814 2175 
Q 3388 1997 2988 1997 
L 1947 1997 
L 1556 416 
Q 1544 353 1544 325 
Q 1544 300 1551 283 
Q 1559 266 1573 261 
Q 1588 256 1619 250 
Q 1741 225 2081 225 
Q 2144 225 2144 141 
Q 2122 50 2109 25 
Q 2097 0 2034 0 
L 313 0 
z
M 1978 2188 
L 2875 2188 
Q 3497 2188 3822 2522 
Q 3988 2688 4092 3000 
Q 4197 3313 4197 3566 
Q 4197 3881 3956 4014 
Q 3716 4147 3359 4147 
L 2747 4147 
Q 2572 4147 2515 4117 
Q 2459 4088 2413 3928 
L 1978 2188 
z
" transform="scale(0.015625)"/>
       <path id="Cmmi10-4d" d="M 325 0 
Q 263 0 263 84 
Q 266 100 275 137 
Q 284 175 300 200 
Q 316 225 347 225 
Q 956 225 1056 616 
L 1888 3956 
Q 1900 4019 1900 4044 
Q 1900 4113 1825 4122 
Q 1703 4147 1363 4147 
Q 1300 4147 1300 4231 
Q 1303 4247 1312 4286 
Q 1322 4325 1339 4348 
Q 1356 4372 1381 4372 
L 2509 4372 
Q 2581 4372 2591 4300 
L 3091 634 
L 5422 4300 
Q 5466 4372 5544 4372 
L 6631 4372 
Q 6694 4372 6694 4288 
Q 6691 4272 6681 4233 
Q 6672 4194 6655 4170 
Q 6638 4147 6613 4147 
Q 6222 4147 6069 4103 
Q 5984 4075 5947 3928 
L 5069 416 
Q 5056 353 5056 325 
Q 5056 300 5064 283 
Q 5072 266 5086 261 
Q 5100 256 5131 250 
Q 5253 225 5594 225 
Q 5656 225 5656 141 
Q 5634 50 5621 25 
Q 5609 0 5550 0 
L 3878 0 
Q 3816 0 3816 84 
Q 3819 100 3828 139 
Q 3838 178 3855 201 
Q 3872 225 3897 225 
Q 4288 225 4441 269 
Q 4525 297 4563 441 
L 5484 4147 
L 2900 72 
Q 2863 0 2772 0 
Q 2691 0 2681 72 
L 2138 4097 
L 1259 588 
Q 1253 572 1250 548 
Q 1247 525 1241 494 
Q 1241 328 1386 276 
Q 1531 225 1741 225 
Q 1806 225 1806 141 
Q 1784 56 1770 28 
Q 1756 0 1697 0 
L 325 0 
z
" transform="scale(0.015625)"/>
      </defs>
      <use xlink:href="#Cmmi10-b5" transform="translate(0 0.484375)"/>
      <use xlink:href="#Cmmi10-50" transform="translate(46.923828 -16.521875) scale(0.7)"/>
      <use xlink:href="#Cmmi10-4d" transform="translate(91.870117 -16.521875) scale(0.7)"/>
     </g>
    </g>
   </g>
   <g id="matplotlib.axis_2">
    <g id="ytick_1">
     <g id="line2d_7">
      <defs>
       <path id="m76fec2be70" d="M 0 0 
L 3 0 
" style="stroke: #000000"/>
      </defs>
      <g>
       <use xlink:href="#m76fec2be70" x="18.18248" y="62.533207" style="stroke: #000000"/>
      </g>
     </g>
     <g id="line2d_8">
      <defs>
       <path id="m72371f0c60" d="M 0 0 
L -3 0 
" style="stroke: #000000"/>
      </defs>
      <g>
       <use xlink:href="#m72371f0c60" x="169.879769" y="62.533207" style="stroke: #000000"/>
      </g>
     </g>
     <g id="text_5">
      <!-- $0$ -->
      <g transform="translate(11.18248 65.038441) scale(0.07 -0.07)">
       <use xlink:href="#Cmr10-30" transform="translate(0 0.390625)"/>
      </g>
     </g>
    </g>
    <g id="ytick_2">
     <g id="line2d_9">
      <g>
       <use xlink:href="#m76fec2be70" x="18.18248" y="36.957004" style="stroke: #000000"/>
      </g>
     </g>
     <g id="line2d_10">
      <g>
       <use xlink:href="#m72371f0c60" x="169.879769" y="36.957004" style="stroke: #000000"/>
      </g>
     </g>
     <g id="text_6">
      <!-- $\pi$ -->
      <g transform="translate(10.69248 39.462238) scale(0.07 -0.07)">
       <use xlink:href="#Cmmi10-bc" transform="translate(0 0.890625)"/>
      </g>
     </g>
    </g>
    <g id="ytick_3">
     <g id="line2d_11">
      <g>
       <use xlink:href="#m76fec2be70" x="18.18248" y="11.3808" style="stroke: #000000"/>
      </g>
     </g>
     <g id="line2d_12">
      <g>
       <use xlink:href="#m72371f0c60" x="169.879769" y="11.3808" style="stroke: #000000"/>
      </g>
     </g>
     <g id="text_7">
      <!-- $2 \pi$ -->
      <g transform="translate(7.19248 13.886035) scale(0.07 -0.07)">
       <use xlink:href="#Cmr10-32" transform="translate(0 0.390625)"/>
       <use xlink:href="#Cmmi10-bc" transform="translate(50 0.390625)"/>
      </g>
     </g>
    </g>
    <g id="text_8">
     <!-- $\phi$ -->
     <g transform="translate(5.72248 36.204466) rotate(-90) scale(0.07 -0.07)">
      <defs>
       <path id="Cmmi10-c1" d="M 1241 -1247 
L 1528 -91 
Q 1203 -91 922 61 
Q 641 213 470 484 
Q 300 756 300 1075 
Q 300 1422 472 1737 
Q 644 2053 942 2311 
Q 1241 2569 1584 2708 
Q 1928 2847 2266 2847 
L 2650 4403 
Q 2663 4441 2700 4441 
L 2778 4441 
Q 2803 4441 2818 4419 
Q 2834 4397 2834 4378 
L 2450 2847 
Q 2691 2847 2916 2759 
Q 3141 2672 3314 2514 
Q 3488 2356 3584 2142 
Q 3681 1928 3681 1684 
Q 3681 1338 3509 1022 
Q 3338 706 3047 453 
Q 2756 200 2398 54 
Q 2041 -91 1716 -91 
L 1422 -1275 
Q 1409 -1313 1369 -1313 
L 1294 -1313 
Q 1269 -1313 1255 -1289 
Q 1241 -1266 1241 -1247 
z
M 1569 78 
L 2222 2681 
Q 2059 2681 1881 2615 
Q 1703 2550 1545 2450 
Q 1388 2350 1259 2222 
Q 1103 2066 984 1853 
Q 866 1641 805 1405 
Q 744 1169 744 941 
Q 744 700 847 503 
Q 950 306 1137 192 
Q 1325 78 1569 78 
z
M 1759 78 
Q 2000 78 2272 215 
Q 2544 353 2719 538 
Q 2959 775 3098 1120 
Q 3238 1466 3238 1819 
Q 3238 2056 3134 2254 
Q 3031 2453 2843 2567 
Q 2656 2681 2413 2681 
L 1759 78 
z
" transform="scale(0.015625)"/>
      </defs>
      <use xlink:href="#Cmmi10-c1" transform="translate(0 0.609375)"/>
     </g>
    </g>
   </g>
   <g id="PathCollection_1">
    <defs>
     <path id="C0_0_8f502f5a67" d="M 0 1.732051 
C 0.459345 1.732051 0.899939 1.549551 1.224745 1.224745 
C 1.549551 0.899939 1.732051 0.459345 1.732051 -0 
C 1.732051 -0.459345 1.549551 -0.899939 1.224745 -1.224745 
C 0.899939 -1.549551 0.459345 -1.732051 0 -1.732051 
C -0.459345 -1.732051 -0.899939 -1.549551 -1.224745 -1.224745 
C -1.549551 -0.899939 -1.732051 -0.459345 -1.732051 0 
C -1.732051 0.459345 -1.549551 0.899939 -1.224745 1.224745 
C -0.899939 1.549551 -0.459345 1.732051 0 1.732051 
z
"/>
    </defs>
    <g clip-path="url(#pa0af2aa412)">
     <use xlink:href="#C0_0_8f502f5a67" x="151.763495" y="29.436771" style="fill: #41049d"/>
    </g>
    <g clip-path="url(#pa0af2aa412)">
     <use xlink:href="#C0_0_8f502f5a67" x="135.917056" y="27.846935" style="fill: #41049d"/>
    </g>
    <g clip-path="url(#pa0af2aa412)">
     <use xlink:href="#C0_0_8f502f5a67" x="120.070618" y="26.401308" style="fill: #41049d"/>
    </g>
    <g clip-path="url(#pa0af2aa412)">
     <use xlink:href="#C0_0_8f502f5a67" x="104.224179" y="25.996309" style="fill: #41049d"/>
    </g>
    <g clip-path="url(#pa0af2aa412)">
     <use xlink:href="#C0_0_8f502f5a67" x="88.37774" y="22.46382" style="fill: #41049d"/>
    </g>
    <g clip-path="url(#pa0af2aa412)">
     <use xlink:href="#C0_0_8f502f5a67" x="72.531302" y="21.802093" style="fill: #41049d"/>
    </g>
    <g clip-path="url(#pa0af2aa412)">
     <use xlink:href="#C0_0_8f502f5a67" x="56.684863" y="20.851432" style="fill: #41049d"/>
    </g>
    <g clip-path="url(#pa0af2aa412)">
     <use xlink:href="#C0_0_8f502f5a67" x="40.838424" y="19.777799" style="fill: #41049d"/>
    </g>
    <g clip-path="url(#pa0af2aa412)">
     <use xlink:href="#C0_0_8f502f5a67" x="24.991986" y="19.258278" style="fill: #41049d"/>
    </g>
   </g>
   <g id="PathCollection_2">
    <defs>
     <path id="C1_0_6fae7600f6" d="M 0 1.732051 
C 0.459345 1.732051 0.899939 1.549551 1.224745 1.224745 
C 1.549551 0.899939 1.732051 0.459345 1.732051 -0 
C 1.732051 -0.459345 1.549551 -0.899939 1.224745 -1.224745 
C 0.899939 -1.549551 0.459345 -1.732051 0 -1.732051 
C -0.459345 -1.732051 -0.899939 -1.549551 -1.224745 -1.224745 
C -1.549551 -0.899939 -1.732051 -0.459345 -1.732051 0 
C -1.732051 0.459345 -1.549551 0.899939 -1.224745 1.224745 
C -0.899939 1.549551 -0.459345 1.732051 0 1.732051 
z
"/>
    </defs>
    <g clip-path="url(#pa0af2aa412)">
     <use xlink:href="#C1_0_6fae7600f6" x="151.763495" y="41.313983" style="fill: #8f0da4"/>
    </g>
    <g clip-path="url(#pa0af2aa412)">
     <use xlink:href="#C1_0_6fae7600f6" x="135.917056" y="40.475169" style="fill: #8f0da4"/>
    </g>
    <g clip-path="url(#pa0af2aa412)">
     <use xlink:href="#C1_0_6fae7600f6" x="120.070618" y="38.78994" style="fill: #8f0da4"/>
    </g>
    <g clip-path="url(#pa0af2aa412)">
     <use xlink:href="#C1_0_6fae7600f6" x="104.224179" y="37.109434" style="fill: #8f0da4"/>
    </g>
    <g clip-path="url(#pa0af2aa412)">
     <use xlink:href="#C1_0_6fae7600f6" x="88.37774" y="37.506876" style="fill: #8f0da4"/>
    </g>
    <g clip-path="url(#pa0af2aa412)">
     <use xlink:href="#C1_0_6fae7600f6" x="72.531302" y="34.458937" style="fill: #8f0da4"/>
    </g>
    <g clip-path="url(#pa0af2aa412)">
     <use xlink:href="#C1_0_6fae7600f6" x="56.684863" y="33.680599" style="fill: #8f0da4"/>
    </g>
    <g clip-path="url(#pa0af2aa412)">
     <use xlink:href="#C1_0_6fae7600f6" x="40.838424" y="31.834618" style="fill: #8f0da4"/>
    </g>
    <g clip-path="url(#pa0af2aa412)">
     <use xlink:href="#C1_0_6fae7600f6" x="24.991986" y="30.131414" style="fill: #8f0da4"/>
    </g>
   </g>
   <g id="PathCollection_3">
    <defs>
     <path id="C2_0_15ad18d1ce" d="M 0 1.732051 
C 0.459345 1.732051 0.899939 1.549551 1.224745 1.224745 
C 1.549551 0.899939 1.732051 0.459345 1.732051 -0 
C 1.732051 -0.459345 1.549551 -0.899939 1.224745 -1.224745 
C 0.899939 -1.549551 0.459345 -1.732051 0 -1.732051 
C -0.459345 -1.732051 -0.899939 -1.549551 -1.224745 -1.224745 
C -1.549551 -0.899939 -1.732051 -0.459345 -1.732051 0 
C -1.732051 0.459345 -1.549551 0.899939 -1.224745 1.224745 
C -0.899939 1.549551 -0.459345 1.732051 0 1.732051 
z
"/>
    </defs>
    <g clip-path="url(#pa0af2aa412)">
     <use xlink:href="#C2_0_15ad18d1ce" x="151.763495" y="53.606563" style="fill: #cc4778"/>
    </g>
    <g clip-path="url(#pa0af2aa412)">
     <use xlink:href="#C2_0_15ad18d1ce" x="135.917056" y="52.347369" style="fill: #cc4778"/>
    </g>
    <g clip-path="url(#pa0af2aa412)">
     <use xlink:href="#C2_0_15ad18d1ce" x="120.070618" y="50.957889" style="fill: #cc4778"/>
    </g>
    <g clip-path="url(#pa0af2aa412)">
     <use xlink:href="#C2_0_15ad18d1ce" x="104.224179" y="50.495577" style="fill: #cc4778"/>
    </g>
    <g clip-path="url(#pa0af2aa412)">
     <use xlink:href="#C2_0_15ad18d1ce" x="88.37774" y="49.350094" style="fill: #cc4778"/>
    </g>
    <g clip-path="url(#pa0af2aa412)">
     <use xlink:href="#C2_0_15ad18d1ce" x="72.531302" y="47.305311" style="fill: #cc4778"/>
    </g>
    <g clip-path="url(#pa0af2aa412)">
     <use xlink:href="#C2_0_15ad18d1ce" x="56.684863" y="46.330981" style="fill: #cc4778"/>
    </g>
    <g clip-path="url(#pa0af2aa412)">
     <use xlink:href="#C2_0_15ad18d1ce" x="40.838424" y="44.533467" style="fill: #cc4778"/>
    </g>
    <g clip-path="url(#pa0af2aa412)">
     <use xlink:href="#C2_0_15ad18d1ce" x="24.991986" y="43.517006" style="fill: #cc4778"/>
    </g>
   </g>
   <g id="PathCollection_4">
    <defs>
     <path id="C3_0_96bac271e3" d="M 0 1.732051 
C 0.459345 1.732051 0.899939 1.549551 1.224745 1.224745 
C 1.549551 0.899939 1.732051 0.459345 1.732051 -0 
C 1.732051 -0.459345 1.549551 -0.899939 1.224745 -1.224745 
C 0.899939 -1.549551 0.459345 -1.732051 0 -1.732051 
C -0.459345 -1.732051 -0.899939 -1.549551 -1.224745 -1.224745 
C -1.549551 -0.899939 -1.732051 -0.459345 -1.732051 0 
C -1.732051 0.459345 -1.549551 0.899939 -1.224745 1.224745 
C -0.899939 1.549551 -0.459345 1.732051 0 1.732051 
z
"/>
    </defs>
    <g clip-path="url(#pa0af2aa412)">
     <use xlink:href="#C3_0_96bac271e3" x="151.763495" y="17.872831" style="fill: #f2844b"/>
    </g>
    <g clip-path="url(#pa0af2aa412)">
     <use xlink:href="#C3_0_96bac271e3" x="135.917056" y="13.862724" style="fill: #f2844b"/>
    </g>
    <g clip-path="url(#pa0af2aa412)">
     <use xlink:href="#C3_0_96bac271e3" x="120.070618" y="12.224574" style="fill: #f2844b"/>
    </g>
    <g clip-path="url(#pa0af2aa412)">
     <use xlink:href="#C3_0_96bac271e3" x="104.224179" y="10.789473" style="fill: #f2844b"/>
    </g>
    <g clip-path="url(#pa0af2aa412)">
     <use xlink:href="#C3_0_96bac271e3" x="88.37774" y="9.130633" style="fill: #f2844b"/>
    </g>
    <g clip-path="url(#pa0af2aa412)">
     <use xlink:href="#C3_0_96bac271e3" x="72.531302" y="11.04227" style="fill: #f2844b"/>
    </g>
    <g clip-path="url(#pa0af2aa412)">
     <use xlink:href="#C3_0_96bac271e3" x="56.684863" y="7.413137" style="fill: #f2844b"/>
    </g>
    <g clip-path="url(#pa0af2aa412)">
     <use xlink:href="#C3_0_96bac271e3" x="40.838424" y="5.313062" style="fill: #f2844b"/>
    </g>
    <g clip-path="url(#pa0af2aa412)">
     <use xlink:href="#C3_0_96bac271e3" x="24.991986" y="3.804737" style="fill: #f2844b"/>
    </g>
   </g>
   <g id="LineCollection_1">
    <path d="M 151.763495 30.018703 
L 151.763495 28.854839 
" clip-path="url(#pa0af2aa412)" style="fill: none; stroke: #41049d; stroke-width: 0.7"/>
    <path d="M 135.917056 28.19156 
L 135.917056 27.502309 
" clip-path="url(#pa0af2aa412)" style="fill: none; stroke: #41049d; stroke-width: 0.7"/>
    <path d="M 120.070618 26.879393 
L 120.070618 25.923223 
" clip-path="url(#pa0af2aa412)" style="fill: none; stroke: #41049d; stroke-width: 0.7"/>
    <path d="M 104.224179 26.5774 
L 104.224179 25.415217 
" clip-path="url(#pa0af2aa412)" style="fill: none; stroke: #41049d; stroke-width: 0.7"/>
    <path d="M 88.37774 25.247354 
L 88.37774 19.680287 
" clip-path="url(#pa0af2aa412)" style="fill: none; stroke: #41049d; stroke-width: 0.7"/>
    <path d="M 72.531302 22.038393 
L 72.531302 21.565794 
" clip-path="url(#pa0af2aa412)" style="fill: none; stroke: #41049d; stroke-width: 0.7"/>
    <path d="M 56.684863 21.229261 
L 56.684863 20.473602 
" clip-path="url(#pa0af2aa412)" style="fill: none; stroke: #41049d; stroke-width: 0.7"/>
    <path d="M 40.838424 20.870539 
L 40.838424 18.68506 
" clip-path="url(#pa0af2aa412)" style="fill: none; stroke: #41049d; stroke-width: 0.7"/>
    <path d="M 24.991986 19.633551 
L 24.991986 18.883005 
" clip-path="url(#pa0af2aa412)" style="fill: none; stroke: #41049d; stroke-width: 0.7"/>
   </g>
   <g id="line2d_13">
    <path d="M 167.609933 56.139156 
L 151.763495 54.718256 
L 135.917056 53.297356 
L 120.070618 51.876456 
L 104.224179 50.455555 
L 88.37774 49.034655 
L 72.531302 47.613755 
L 56.684863 46.192855 
L 40.838424 44.771955 
L 24.991986 43.351054 
L 20.452316 42.943997 
" clip-path="url(#pa0af2aa412)" style="fill: none; stroke-dasharray: 4.44,1.92; stroke-dashoffset: 0; stroke: #cc4778; stroke-opacity: 0.7; stroke-width: 1.2"/>
   </g>
   <g id="line2d_14">
    <path d="M 167.609933 56.983555 
L 166.169348 56.841465 
L 164.728763 56.841465 
L 163.288177 56.699375 
L 161.847592 56.557285 
L 160.407007 56.415195 
L 158.966421 56.273105 
L 157.525836 56.131015 
L 156.085251 55.988925 
L 154.644666 55.846835 
L 153.20408 55.704745 
L 151.763495 55.420565 
L 150.32291 55.278475 
L 148.882324 54.994295 
L 147.441739 54.710115 
L 146.001154 54.425935 
L 144.560568 54.141755 
L 143.119983 53.857575 
L 141.679398 53.573395 
L 140.238812 53.289215 
L 138.798227 53.005035 
L 137.357642 52.720854 
L 135.917056 52.578764 
L 134.476471 52.294584 
L 133.035886 52.152494 
L 131.5953 52.010404 
L 130.154715 51.868314 
L 128.71413 51.726224 
L 127.273544 51.584134 
L 125.832959 51.442044 
L 124.392374 51.299954 
L 122.951788 51.157864 
L 121.511203 51.157864 
L 120.070618 51.015774 
L 118.630032 50.873684 
L 117.189447 50.873684 
L 115.748862 50.731594 
L 114.308276 50.589504 
L 112.867691 50.589504 
L 111.427106 50.447414 
L 109.98652 50.447414 
L 108.545935 50.305324 
L 107.10535 50.305324 
L 105.664764 50.163234 
L 104.224179 50.163234 
L 102.783594 50.021144 
L 101.343008 50.021144 
L 99.902423 49.879054 
L 98.461838 49.879054 
L 97.021252 49.736964 
L 95.580667 49.736964 
L 94.140082 49.594874 
L 92.699496 49.594874 
L 91.258911 49.452784 
L 89.818326 49.452784 
L 88.37774 49.310694 
L 86.937155 49.310694 
L 85.49657 49.168604 
L 84.055984 49.168604 
L 82.615399 49.026514 
L 81.174814 49.026514 
L 79.734228 48.884424 
L 78.293643 48.884424 
L 76.853058 48.742334 
L 75.412472 48.600244 
L 73.971887 48.600244 
L 72.531302 48.458154 
L 71.090716 48.316064 
L 69.650131 48.316064 
L 68.209546 48.173974 
L 66.76896 48.031884 
L 65.328375 47.889794 
L 63.88779 47.747704 
L 62.447204 47.605614 
L 61.006619 47.463524 
L 59.566034 47.321434 
L 58.125448 47.179344 
L 56.684863 46.895164 
L 55.244278 46.753074 
L 53.803692 46.468894 
L 52.363107 46.184714 
L 50.922522 45.900534 
L 49.481936 45.616354 
L 48.041351 45.332174 
L 46.600766 45.047994 
L 45.16018 44.763813 
L 43.719595 44.479633 
L 42.27901 44.195453 
L 40.838424 44.053363 
L 39.397839 43.769183 
L 37.957254 43.627093 
L 36.516669 43.485003 
L 35.076083 43.342913 
L 33.635498 43.200823 
L 32.194913 43.058733 
L 30.754327 42.916643 
L 29.313742 42.774553 
L 27.873157 42.632463 
L 26.432571 42.632463 
L 24.991986 42.490373 
" clip-path="url(#pa0af2aa412)" style="fill: none; stroke: #cc4778; stroke-opacity: 0.6; stroke-width: 0.8; stroke-linecap: square"/>
   </g>
   <g id="LineCollection_2">
    <path d="M 151.763495 42.996049 
L 151.763495 39.631917 
" clip-path="url(#pa0af2aa412)" style="fill: none; stroke: #8f0da4; stroke-width: 0.7"/>
    <path d="M 135.917056 40.83159 
L 135.917056 40.118749 
" clip-path="url(#pa0af2aa412)" style="fill: none; stroke: #8f0da4; stroke-width: 0.7"/>
    <path d="M 120.070618 39.080379 
L 120.070618 38.499502 
" clip-path="url(#pa0af2aa412)" style="fill: none; stroke: #8f0da4; stroke-width: 0.7"/>
    <path d="M 104.224179 37.733423 
L 104.224179 36.485445 
" clip-path="url(#pa0af2aa412)" style="fill: none; stroke: #8f0da4; stroke-width: 0.7"/>
    <path d="M 88.37774 41.154582 
L 88.37774 33.85917 
" clip-path="url(#pa0af2aa412)" style="fill: none; stroke: #8f0da4; stroke-width: 0.7"/>
    <path d="M 72.531302 34.79582 
L 72.531302 34.122054 
" clip-path="url(#pa0af2aa412)" style="fill: none; stroke: #8f0da4; stroke-width: 0.7"/>
    <path d="M 56.684863 34.141351 
L 56.684863 33.219846 
" clip-path="url(#pa0af2aa412)" style="fill: none; stroke: #8f0da4; stroke-width: 0.7"/>
    <path d="M 40.838424 32.991037 
L 40.838424 30.678198 
" clip-path="url(#pa0af2aa412)" style="fill: none; stroke: #8f0da4; stroke-width: 0.7"/>
    <path d="M 24.991986 30.517189 
L 24.991986 29.74564 
" clip-path="url(#pa0af2aa412)" style="fill: none; stroke: #8f0da4; stroke-width: 0.7"/>
   </g>
   <g id="line2d_15">
    <path d="M 167.609933 43.351054 
L 151.763495 41.930154 
L 135.917056 40.509254 
L 120.070618 39.088354 
L 104.224179 37.667454 
L 88.37774 36.246554 
L 72.531302 34.825653 
L 56.684863 33.404753 
L 40.838424 31.983853 
L 24.991986 30.562953 
L 20.452316 30.155895 
" clip-path="url(#pa0af2aa412)" style="fill: none; stroke-dasharray: 4.44,1.92; stroke-dashoffset: 0; stroke: #8f0da4; stroke-opacity: 0.7; stroke-width: 1.2"/>
   </g>
   <g id="line2d_16">
    <path d="M 167.609933 42.490373 
L 166.169348 42.348283 
L 164.728763 42.348283 
L 163.288177 42.206193 
L 161.847592 42.064103 
L 160.407007 42.064103 
L 158.966421 41.922013 
L 157.525836 41.922013 
L 156.085251 41.779923 
L 154.644666 41.779923 
L 153.20408 41.637833 
L 151.763495 41.637833 
L 150.32291 41.495743 
L 148.882324 41.495743 
L 147.441739 41.353653 
L 146.001154 41.353653 
L 144.560568 41.211563 
L 143.119983 41.211563 
L 141.679398 41.069473 
L 140.238812 41.069473 
L 138.798227 40.927383 
L 137.357642 40.927383 
L 135.917056 40.785293 
L 134.476471 40.785293 
L 133.035886 40.643203 
L 131.5953 40.643203 
L 130.154715 40.501113 
L 128.71413 40.501113 
L 127.273544 40.359023 
L 125.832959 40.359023 
L 124.392374 40.216933 
L 122.951788 40.074843 
L 121.511203 40.074843 
L 120.070618 39.932753 
L 118.630032 39.790663 
L 117.189447 39.790663 
L 115.748862 39.648573 
L 114.308276 39.506483 
L 112.867691 39.364393 
L 111.427106 39.222303 
L 109.98652 39.080213 
L 108.545935 38.938123 
L 107.10535 38.796033 
L 105.664764 38.653943 
L 104.224179 38.369763 
L 102.783594 38.227673 
L 101.343008 37.943493 
L 99.902423 37.659313 
L 98.461838 37.375133 
L 97.021252 37.090953 
L 95.580667 36.806772 
L 94.140082 36.522592 
L 92.699496 36.238412 
L 91.258911 35.954232 
L 89.818326 35.670052 
L 88.37774 35.527962 
L 86.937155 35.243782 
L 85.49657 35.101692 
L 84.055984 34.959602 
L 82.615399 34.817512 
L 81.174814 34.675422 
L 79.734228 34.533332 
L 78.293643 34.391242 
L 76.853058 34.249152 
L 75.412472 34.107062 
L 73.971887 34.107062 
L 72.531302 33.964972 
L 71.090716 33.822882 
L 69.650131 33.822882 
L 68.209546 33.680792 
L 66.76896 33.538702 
L 65.328375 33.538702 
L 63.88779 33.396612 
L 62.447204 33.396612 
L 61.006619 33.254522 
L 59.566034 33.254522 
L 58.125448 33.112432 
L 56.684863 33.112432 
L 55.244278 32.970342 
L 53.803692 32.970342 
L 52.363107 32.828252 
L 50.922522 32.828252 
L 49.481936 32.686162 
L 48.041351 32.686162 
L 46.600766 32.544072 
L 45.16018 32.544072 
L 43.719595 32.401982 
L 42.27901 32.401982 
L 40.838424 32.259892 
L 39.397839 32.259892 
L 37.957254 32.117802 
L 36.516669 32.117802 
L 35.076083 31.975712 
L 33.635498 31.975712 
L 32.194913 31.833622 
L 30.754327 31.833622 
L 29.313742 31.691532 
L 27.873157 31.549442 
L 26.432571 31.549442 
L 24.991986 31.407352 
" clip-path="url(#pa0af2aa412)" style="fill: none; stroke: #8f0da4; stroke-opacity: 0.6; stroke-width: 0.8; stroke-linecap: square"/>
   </g>
   <g id="LineCollection_3">
    <path d="M 151.763495 55.10936 
L 151.763495 52.103766 
" clip-path="url(#pa0af2aa412)" style="fill: none; stroke: #cc4778; stroke-width: 0.7"/>
    <path d="M 135.917056 52.795549 
L 135.917056 51.89919 
" clip-path="url(#pa0af2aa412)" style="fill: none; stroke: #cc4778; stroke-width: 0.7"/>
    <path d="M 120.070618 51.378942 
L 120.070618 50.536835 
" clip-path="url(#pa0af2aa412)" style="fill: none; stroke: #cc4778; stroke-width: 0.7"/>
    <path d="M 104.224179 50.981906 
L 104.224179 50.009249 
" clip-path="url(#pa0af2aa412)" style="fill: none; stroke: #cc4778; stroke-width: 0.7"/>
    <path d="M 88.37774 50.907899 
L 88.37774 47.792289 
" clip-path="url(#pa0af2aa412)" style="fill: none; stroke: #cc4778; stroke-width: 0.7"/>
    <path d="M 72.531302 47.794907 
L 72.531302 46.815716 
" clip-path="url(#pa0af2aa412)" style="fill: none; stroke: #cc4778; stroke-width: 0.7"/>
    <path d="M 56.684863 46.801933 
L 56.684863 45.860029 
" clip-path="url(#pa0af2aa412)" style="fill: none; stroke: #cc4778; stroke-width: 0.7"/>
    <path d="M 40.838424 47.536217 
L 40.838424 41.530717 
" clip-path="url(#pa0af2aa412)" style="fill: none; stroke: #cc4778; stroke-width: 0.7"/>
    <path d="M 24.991986 43.894656 
L 24.991986 43.139355 
" clip-path="url(#pa0af2aa412)" style="fill: none; stroke: #cc4778; stroke-width: 0.7"/>
   </g>
   <g id="line2d_17">
    <path d="M 167.609933 30.562953 
L 151.763495 29.142053 
L 135.917056 27.721153 
L 120.070618 26.300252 
L 104.224179 24.879352 
L 88.37774 23.458452 
L 72.531302 22.037552 
L 56.684863 20.616652 
L 40.838424 19.195751 
L 24.991986 17.774851 
L 20.452316 17.367793 
" clip-path="url(#pa0af2aa412)" style="fill: none; stroke-dasharray: 4.44,1.92; stroke-dashoffset: 0; stroke: #41049d; stroke-opacity: 0.7; stroke-width: 1.2"/>
   </g>
   <g id="line2d_18">
    <path d="M 167.609933 31.407352 
L 166.169348 31.265262 
L 164.728763 31.265262 
L 163.288177 31.123172 
L 161.847592 30.981082 
L 160.407007 30.838992 
L 158.966421 30.696902 
L 157.525836 30.554812 
L 156.085251 30.412722 
L 154.644666 30.270632 
L 153.20408 30.128542 
L 151.763495 29.844362 
L 150.32291 29.702272 
L 148.882324 29.418092 
L 147.441739 29.133912 
L 146.001154 28.849731 
L 144.560568 28.565551 
L 143.119983 28.281371 
L 141.679398 27.997191 
L 140.238812 27.713011 
L 138.798227 27.428831 
L 137.357642 27.144651 
L 135.917056 27.002561 
L 134.476471 26.718381 
L 133.035886 26.576291 
L 131.5953 26.434201 
L 130.154715 26.292111 
L 128.71413 26.150021 
L 127.273544 26.007931 
L 125.832959 25.865841 
L 124.392374 25.723751 
L 122.951788 25.581661 
L 121.511203 25.581661 
L 120.070618 25.439571 
L 118.630032 25.297481 
L 117.189447 25.297481 
L 115.748862 25.155391 
L 114.308276 25.013301 
L 112.867691 25.013301 
L 111.427106 24.871211 
L 109.98652 24.871211 
L 108.545935 24.729121 
L 107.10535 24.729121 
L 105.664764 24.587031 
L 104.224179 24.587031 
L 102.783594 24.444941 
L 101.343008 24.444941 
L 99.902423 24.302851 
L 98.461838 24.302851 
L 97.021252 24.160761 
L 95.580667 24.160761 
L 94.140082 24.018671 
L 92.699496 24.018671 
L 91.258911 23.876581 
L 89.818326 23.876581 
L 88.37774 23.734491 
L 86.937155 23.734491 
L 85.49657 23.592401 
L 84.055984 23.592401 
L 82.615399 23.450311 
L 81.174814 23.450311 
L 79.734228 23.308221 
L 78.293643 23.308221 
L 76.853058 23.166131 
L 75.412472 23.024041 
L 73.971887 23.024041 
L 72.531302 22.881951 
L 71.090716 22.739861 
L 69.650131 22.739861 
L 68.209546 22.597771 
L 66.76896 22.455681 
L 65.328375 22.313591 
L 63.88779 22.171501 
L 62.447204 22.029411 
L 61.006619 21.887321 
L 59.566034 21.745231 
L 58.125448 21.603141 
L 56.684863 21.318961 
L 55.244278 21.176871 
L 53.803692 20.89269 
L 52.363107 20.60851 
L 50.922522 20.32433 
L 49.481936 20.04015 
L 48.041351 19.75597 
L 46.600766 19.47179 
L 45.16018 19.18761 
L 43.719595 18.90343 
L 42.27901 18.61925 
L 40.838424 18.47716 
L 39.397839 18.19298 
L 37.957254 18.05089 
L 36.516669 17.9088 
L 35.076083 17.76671 
L 33.635498 17.62462 
L 32.194913 17.48253 
L 30.754327 17.34044 
L 29.313742 17.19835 
L 27.873157 17.05626 
L 26.432571 17.05626 
L 24.991986 16.91417 
" clip-path="url(#pa0af2aa412)" style="fill: none; stroke: #41049d; stroke-opacity: 0.6; stroke-width: 0.8; stroke-linecap: square"/>
   </g>
   <g id="LineCollection_4">
    <path d="M 151.763495 18.869036 
L 151.763495 16.876625 
" clip-path="url(#pa0af2aa412)" style="fill: none; stroke: #f2844b; stroke-width: 0.7"/>
    <path d="M 135.917056 14.82871 
L 135.917056 12.896738 
" clip-path="url(#pa0af2aa412)" style="fill: none; stroke: #f2844b; stroke-width: 0.7"/>
    <path d="M 120.070618 12.631595 
L 120.070618 11.817553 
" clip-path="url(#pa0af2aa412)" style="fill: none; stroke: #f2844b; stroke-width: 0.7"/>
    <path d="M 104.224179 11.244958 
L 104.224179 10.333987 
" clip-path="url(#pa0af2aa412)" style="fill: none; stroke: #f2844b; stroke-width: 0.7"/>
    <path d="M 88.37774 12.376487 
L 88.37774 5.884779 
" clip-path="url(#pa0af2aa412)" style="fill: none; stroke: #f2844b; stroke-width: 0.7"/>
    <path d="M 72.531302 11.569352 
L 72.531302 10.515189 
" clip-path="url(#pa0af2aa412)" style="fill: none; stroke: #f2844b; stroke-width: 0.7"/>
    <path d="M 56.684863 8.170902 
L 56.684863 6.655373 
" clip-path="url(#pa0af2aa412)" style="fill: none; stroke: #f2844b; stroke-width: 0.7"/>
    <path d="M 40.838424 7.278439 
L 40.838424 3.347684 
" clip-path="url(#pa0af2aa412)" style="fill: none; stroke: #f2844b; stroke-width: 0.7"/>
    <path d="M 24.991986 4.509068 
L 24.991986 3.100406 
" clip-path="url(#pa0af2aa412)" style="fill: none; stroke: #f2844b; stroke-width: 0.7"/>
   </g>
   <g id="line2d_19">
    <path d="M 167.609933 17.774851 
L 151.763495 16.353951 
L 135.917056 14.933051 
L 120.070618 13.512151 
L 104.224179 12.091251 
L 88.37774 10.67035 
L 72.531302 9.24945 
L 56.684863 7.82855 
L 40.838424 6.40765 
L 24.991986 4.98675 
L 20.452316 4.579692 
" clip-path="url(#pa0af2aa412)" style="fill: none; stroke-dasharray: 4.44,1.92; stroke-dashoffset: 0; stroke: #f2844b; stroke-opacity: 0.7; stroke-width: 1.2"/>
   </g>
   <g id="line2d_20">
    <path d="M 167.609933 16.91417 
L 166.169348 16.77208 
L 164.728763 16.77208 
L 163.288177 16.62999 
L 161.847592 16.4879 
L 160.407007 16.4879 
L 158.966421 16.34581 
L 157.525836 16.34581 
L 156.085251 16.20372 
L 154.644666 16.20372 
L 153.20408 16.06163 
L 151.763495 16.06163 
L 150.32291 15.91954 
L 148.882324 15.91954 
L 147.441739 15.77745 
L 146.001154 15.77745 
L 144.560568 15.63536 
L 143.119983 15.63536 
L 141.679398 15.49327 
L 140.238812 15.49327 
L 138.798227 15.35118 
L 137.357642 15.35118 
L 135.917056 15.20909 
L 134.476471 15.20909 
L 133.035886 15.067 
L 131.5953 15.067 
L 130.154715 14.92491 
L 128.71413 14.92491 
L 127.273544 14.78282 
L 125.832959 14.78282 
L 124.392374 14.64073 
L 122.951788 14.49864 
L 121.511203 14.49864 
L 120.070618 14.35655 
L 118.630032 14.21446 
L 117.189447 14.21446 
L 115.748862 14.07237 
L 114.308276 13.93028 
L 112.867691 13.78819 
L 111.427106 13.6461 
L 109.98652 13.50401 
L 108.545935 13.36192 
L 107.10535 13.21983 
L 105.664764 13.07774 
L 104.224179 12.793559 
L 102.783594 12.651469 
L 101.343008 12.367289 
L 99.902423 12.083109 
L 98.461838 11.798929 
L 97.021252 11.514749 
L 95.580667 11.230569 
L 94.140082 10.946389 
L 92.699496 10.662209 
L 91.258911 10.378029 
L 89.818326 10.093849 
L 88.37774 9.951759 
L 86.937155 9.667579 
L 85.49657 9.525489 
L 84.055984 9.383399 
L 82.615399 9.241309 
L 81.174814 9.099219 
L 79.734228 8.957129 
L 78.293643 8.815039 
L 76.853058 8.672949 
L 75.412472 8.530859 
L 73.971887 8.530859 
L 72.531302 8.388769 
L 71.090716 8.246679 
L 69.650131 8.246679 
L 68.209546 8.104589 
L 66.76896 7.962499 
L 65.328375 7.962499 
L 63.88779 7.820409 
L 62.447204 7.820409 
L 61.006619 7.678319 
L 59.566034 7.678319 
L 58.125448 7.536229 
L 56.684863 7.536229 
L 55.244278 7.394139 
L 53.803692 7.394139 
L 52.363107 7.252049 
L 50.922522 7.252049 
L 49.481936 7.109959 
L 48.041351 7.109959 
L 46.600766 6.967869 
L 45.16018 6.967869 
L 43.719595 6.825779 
L 42.27901 6.825779 
L 40.838424 6.683689 
L 39.397839 6.683689 
L 37.957254 6.541599 
L 36.516669 6.541599 
L 35.076083 6.399509 
L 33.635498 6.399509 
L 32.194913 6.257419 
L 30.754327 6.257419 
L 29.313742 6.115329 
L 27.873157 5.973239 
L 26.432571 5.973239 
L 24.991986 5.831149 
" clip-path="url(#pa0af2aa412)" style="fill: none; stroke: #f2844b; stroke-opacity: 0.6; stroke-width: 0.8; stroke-linecap: square"/>
   </g>
   <g id="line2d_21">
    <path d="M 122.230618 61.870264 
L 117.910618 55.054992 
" style="fill: none; stroke: #444444; stroke-width: 1.5; stroke-linecap: square"/>
   </g>
   <g id="line2d_22">
    <path d="M 87.62758 62.337649 
L 89.1279 54.587607 
" style="fill: none; stroke: #444444; stroke-width: 1.5; stroke-linecap: square"/>
   </g>
   <g id="line2d_23">
    <path d="M 53.375551 60.991868 
L 59.994175 55.933387 
" style="fill: none; stroke: #444444; stroke-width: 1.5; stroke-linecap: square"/>
   </g>
   <g id="line2d_24">
    <path d="M 20.671986 58.462628 
L 29.311986 58.462628 
" style="fill: none; stroke: #444444; stroke-width: 1.5; stroke-linecap: square"/>
   </g>
   <g id="line2d_25"/>
   <g id="line2d_26"/>
   <g id="line2d_27"/>
   <g id="line2d_28"/>
   <g id="patch_3">
    <path d="M 18.18248 68.208933 
L 18.18248 0 
" style="fill: none; stroke: #000000; stroke-width: 0.8; stroke-linejoin: miter; stroke-linecap: square"/>
   </g>
   <g id="patch_4">
    <path d="M 169.879769 68.208933 
L 169.879769 0 
" style="fill: none; stroke: #000000; stroke-width: 0.8; stroke-linejoin: miter; stroke-linecap: square"/>
   </g>
   <g id="patch_5">
    <path d="M 18.18248 68.208933 
L 169.879769 68.208933 
" style="fill: none; stroke: #000000; stroke-width: 0.8; stroke-linejoin: miter; stroke-linecap: square"/>
   </g>
   <g id="patch_6">
    <path d="M 18.18248 0 
L 169.879769 0 
" style="fill: none; stroke: #000000; stroke-width: 0.8; stroke-linejoin: miter; stroke-linecap: square"/>
   </g>
   <g id="patch_7">
    <path d="M 123.401691 63.717761 
Q 120.070618 58.462628 116.739544 53.207495 
" style="fill: none"/>
    <path d="M 122.949416 59.268553 
L 123.401691 63.717761 
L 119.57096 61.410057 
z
" style="fill: #444444"/>
    <path d="M 117.191819 57.656702 
L 116.739544 53.207495 
L 120.570275 55.515199 
z
" style="fill: #444444"/>
   </g>
   <g id="patch_8">
    <path d="M 87.22433 64.420673 
Q 88.37774 58.462628 89.53115 52.504582 
" style="fill: none"/>
    <path d="M 89.948115 60.873703 
L 87.22433 64.420673 
L 86.021025 60.113463 
z
" style="fill: #444444"/>
    <path d="M 86.807365 56.051552 
L 89.53115 52.504582 
L 90.734455 56.811792 
z
" style="fill: #444444"/>
   </g>
   <g id="patch_9">
    <path d="M 51.559793 62.379615 
Q 56.684863 58.462628 61.809933 54.545641 
" style="fill: none"/>
    <path d="M 55.952351 61.539711 
L 51.559793 62.379615 
L 53.523405 58.361627 
z
" style="fill: #444444"/>
    <path d="M 57.417375 55.385544 
L 61.809933 54.545641 
L 59.846321 58.563629 
z
" style="fill: #444444"/>
   </g>
   <g id="patch_10">
    <path d="M 18.270511 58.462628 
Q 24.991986 58.462628 31.71346 58.462628 
" style="fill: none"/>
    <path d="M 22.270511 60.462628 
L 18.270511 58.462628 
L 22.270511 56.462628 
z
" style="fill: #444444"/>
    <path d="M 27.71346 56.462628 
L 31.71346 58.462628 
L 27.71346 60.462628 
z
" style="fill: #444444"/>
   </g>
  </g>
 </g>
 <defs>
  <clipPath id="pa0af2aa412">
   <rect x="18.18248" y="0" width="151.697288" height="68.208933"/>
  </clipPath>
 </defs>
</svg>
