<?xml version="1.0" encoding="utf-8" standalone="no"?>
<!DOCTYPE svg PUBLIC "-//W3C//DTD SVG 1.1//EN"
  "http://www.w3.org/Graphics/SVG/1.1/DTD/svg11.dtd">
<svg xmlns:xlink="http://www.w3.org/1999/xlink" width="360pt" height="324pt" viewBox="0 0 360 324" xmlns="http://www.w3.org/2000/svg" version="1.1">
 <metadata>
  <rdf:RDF xmlns:dc="http://purl.org/dc/elements/1.1/" xmlns:cc="http://creativecommons.org/ns#" xmlns:rdf="http://www.w3.org/1999/02/22-rdf-syntax-ns#">
   <cc:Work>
    <dc:type rdf:resource="http://purl.org/dc/dcmitype/StillImage"/>
    <dc:date>2026-02-13T23:18:19.222978</dc:date>
    <dc:format>image/svg+xml</dc:format>
    <dc:creator>
     <cc:Agent>
      <dc:title>Matplotlib v3.9.0, https://matplotlib.org/</dc:title>
     </cc:Agent>
    </dc:creator>
   </cc:Work>
  </rdf:RDF>
 </metadata>
 <defs>
  <style type="text/css">*{stroke-linejoin: round; stroke-linecap: butt}</style>
 </defs>
 <g id="figure_1">
  <g id="patch_1">
   <path d="M 0 324 
L 360 324 
L 360 0 
L 0 0 
L 0 324 
z
" style="fill: none"/>
  </g>
  <g id="axes_1">
   <g id="patch_2">
    <path d="M 121.948214 21.6 
L 239.210639 21.6 
L 297.841851 123.152239 
L 239.210639 224.704478 
L 121.948214 224.704478 
L 63.317001 123.152239 
z
" clip-path="url(#p23447bce7b)" style="fill: #ffb3b3; stroke: #000000; stroke-width: 2; stroke-linejoin: miter"/>
   </g>
   <g id="patch_3">
    <path d="M 121.948214 21.6 
L 180.579426 55.450746 
L 239.210639 21.6 
L 239.210639 89.301493 
L 297.841851 123.152239 
L 239.210639 157.002985 
L 239.210639 224.704478 
L 180.579426 190.853731 
L 121.948214 224.704478 
L 121.948214 157.002985 
L 63.317001 123.152239 
L 121.948214 89.301493 
z
" clip-path="url(#p23447bce7b)" style="fill: #b3ffff; stroke: #000000; stroke-width: 2; stroke-linejoin: miter"/>
   </g>
   <g id="patch_4">
    <path d="M 180.579426 55.450746 
L 239.210639 89.301493 
L 239.210639 157.002985 
L 180.579426 190.853731 
L 121.948214 157.002985 
L 121.948214 89.301493 
z
" clip-path="url(#p23447bce7b)" style="fill: #b3ffb3; stroke: #000000; stroke-width: 2; stroke-linejoin: miter"/>
   </g>
   <g id="PathCollection_1">
    <defs>
     <path id="mbfb70aa0f6" d="M 0 4 
C 1.060812 4 2.078319 3.578535 2.828427 2.828427 
C 3.578535 2.078319 4 1.060812 4 0 
C 4 -1.060812 3.578535 -2.078319 2.828427 -2.828427 
C 2.078319 -3.578535 1.060812 -4 0 -4 
C -1.060812 -4 -2.078319 -3.578535 -2.828427 -2.828427 
C -3.578535 -2.078319 -4 -1.060812 -4 0 
C -4 1.060812 -3.578535 2.078319 -2.828427 2.828427 
C -2.078319 3.578535 -1.060812 4 0 4 
z
" style="stroke: #000000"/>
    </defs>
    <g clip-path="url(#p23447bce7b)">
     <use xlink:href="#mbfb70aa0f6" x="180.579426" y="123.152239" style="stroke: #000000"/>
    </g>
   </g>
   <g id="PathCollection_2">
    <g clip-path="url(#p23447bce7b)">
     <use xlink:href="#mbfb70aa0f6" x="239.210639" y="123.152239" style="stroke: #000000"/>
    </g>
   </g>
   <g id="PathCollection_3">
    <g clip-path="url(#p23447bce7b)">
     <use xlink:href="#mbfb70aa0f6" x="239.210639" y="89.301493" style="stroke: #000000"/>
    </g>
   </g>
   <g id="patch_5">
    <path d="M 136.175858 121.646088 
Q 136.166097 122.033677 136.156335 122.421267 
" clip-path="url(#p23447bce7b)" style="fill: none"/>
    <path d="M 142.036546 111.36581 
L 136.156335 122.421267 
L 130.840096 111.083824 
z
" clip-path="url(#p23447bce7b)" style="fill: #ff0000"/>
   </g>
   <g id="patch_6">
    <path d="M 153.808473 109.511757 
Q 180.579426 123.152239 207.350379 136.792721 
" clip-path="url(#p23447bce7b)" style="fill: none"/>
    <path d="M 162.213625 121.650679 
L 153.808473 109.511757 
L 168.569491 109.176588 
z
" clip-path="url(#p23447bce7b)" style="fill: #444444"/>
    <path d="M 198.945228 124.653798 
L 207.350379 136.792721 
L 192.589361 137.12789 
z
" clip-path="url(#p23447bce7b)" style="fill: #444444"/>
   </g>
   <g id="patch_7">
    <path d="M 65.486889 299.176119 
Q 99.337635 299.176119 129.288381 299.176119 
" clip-path="url(#p23447bce7b)" style="fill: none; stroke: #000000; stroke-width: 3; stroke-linecap: round"/>
    <path d="M 117.288381 294.176119 
L 129.288381 299.176119 
L 117.288381 304.176119 
z
" clip-path="url(#p23447bce7b)" style="stroke: #000000; stroke-width: 3; stroke-linecap: round"/>
   </g>
   <g id="patch_8">
    <path d="M 65.486889 299.176119 
Q 65.486889 265.325373 65.486889 235.374627 
" clip-path="url(#p23447bce7b)" style="fill: none; stroke: #000000; stroke-width: 3; stroke-linecap: round"/>
    <path d="M 60.486889 247.374627 
L 65.486889 235.374627 
L 70.486889 247.374627 
z
" clip-path="url(#p23447bce7b)" style="stroke: #000000; stroke-width: 3; stroke-linecap: round"/>
   </g>
   <g id="line2d_1">
    <path d="M 136.150344 123.196668 
L 136.26167 126.295776 
L 136.588908 129.379569 
L 137.130463 132.433023 
L 137.883697 135.441262 
L 138.844941 138.38963 
L 140.009511 141.263763 
L 141.371733 144.049658 
L 142.924971 146.733743 
L 144.661658 149.302942 
L 146.573333 151.744737 
L 148.650682 154.047232 
L 150.883585 156.19921 
L 153.261162 158.190187 
L 155.771832 160.010462 
L 158.403362 161.651167 
L 161.142931 163.10431 
L 163.977193 164.36281 
L 166.892339 165.420536 
L 169.874168 166.272336 
L 172.908151 166.914059 
L 175.979508 167.342578 
L 179.073276 167.555807 
L 182.174381 167.552706 
L 185.267716 167.33329 
L 188.338209 166.898628 
L 191.370903 166.250839 
L 194.351022 165.393078 
L 197.264047 164.329523 
L 200.095786 163.065357 
L 202.832444 161.606738 
L 205.460687 159.960773 
L 207.967711 158.13548 
L 210.341302 156.139753 
L 212.569896 153.983313 
L 214.642636 151.676668 
L 216.549424 149.231054 
L 218.280969 146.658387 
L 219.828836 143.971201 
L 221.185483 141.182587 
L 222.344303 138.30613 
L 223.299647 135.355846 
L 224.046864 132.346106 
L 224.582311 129.291575 
L 224.903381 126.207134 
L 225.008508 123.10781 
L 224.897182 120.008702 
L 224.569944 116.924909 
L 224.028389 113.871455 
L 223.275155 110.863216 
L 222.313911 107.914848 
L 221.149341 105.040715 
L 219.787119 102.25482 
L 218.233881 99.570734 
L 216.497194 97.001536 
L 214.585519 94.559741 
L 212.50817 92.257245 
L 210.275268 90.105267 
L 207.89769 88.114291 
L 205.38702 86.294016 
L 202.755491 84.65331 
L 200.015921 83.200168 
L 197.181659 81.941668 
L 194.266513 80.883941 
L 191.284685 80.032142 
L 188.250701 79.390419 
L 185.179344 78.9619 
L 182.085577 78.748671 
L 178.984472 78.751772 
L 175.891137 78.971188 
L 172.820643 79.405849 
L 169.787949 80.053639 
L 166.80783 80.9114 
L 163.894805 81.974954 
L 161.063066 83.239121 
L 158.326408 84.697739 
L 155.698165 86.343705 
L 153.191141 88.168997 
L 150.81755 90.164725 
L 148.588956 92.321165 
L 146.516216 94.62781 
L 144.609429 97.073423 
L 142.877884 99.64609 
L 141.330017 102.333277 
L 139.973369 105.121891 
L 138.81455 107.998347 
L 137.859205 110.948632 
L 137.111989 113.958371 
L 137.111989 113.958371 
" clip-path="url(#p23447bce7b)" style="fill: none; stroke: #ff0000; stroke-width: 3; stroke-linecap: square"/>
   </g>
   <g id="line2d_2">
    <path d="M 180.579426 123.152239 
L 219.056159 123.152239 
" clip-path="url(#p23447bce7b)" style="fill: none; stroke-dasharray: 9.25,4; stroke-dashoffset: 0; stroke: #444444; stroke-width: 2.5"/>
   </g>
   <g id="line2d_3">
    <path d="M 180.579426 123.152239 
L 140.992804 102.981847 
" clip-path="url(#p23447bce7b)" style="fill: none; stroke-dasharray: 9.25,4; stroke-dashoffset: 0; stroke: #444444; stroke-width: 2.5"/>
   </g>
   <g id="line2d_4">
    <path d="M 194.119725 123.152239 
L 194.013787 121.461784 
L 193.697631 119.797781 
L 193.176204 118.186267 
L 192.457665 116.652461 
L 191.553259 115.220361 
L 190.477135 113.912378 
L 189.246135 112.748978 
L 187.87952 111.748366 
L 186.398674 110.9262 
L 184.826771 110.295344 
L 183.188405 109.86567 
L 181.509215 109.643902 
L 179.815476 109.633509 
L 178.13369 109.834654 
L 176.490175 110.24419 
L 174.910648 110.855709 
L 173.419825 111.659641 
L 172.041034 112.643407 
L 170.795849 113.791613 
L 169.703756 115.086292 
L 168.781844 116.507186 
L 168.579709 116.879563 
L 168.579709 116.879563 
" clip-path="url(#p23447bce7b)" style="fill: none; stroke: #444444; stroke-width: 1.8; stroke-linecap: square"/>
   </g>
   <g id="line2d_5">
    <path d="M 198.393406 132.228915 
L 162.765446 114.075563 
" clip-path="url(#p23447bce7b)" style="fill: none; stroke: #444444; stroke-width: 4; stroke-linecap: square"/>
   </g>
   <g id="text_1">
    <!-- $\mathbf{\Gamma}$ -->
    <g transform="translate(170.979426 152.717701) scale(0.3 -0.3)">
     <defs>
      <path id="DejaVuSans-Bold-393" d="M 588 0 
L 588 4666 
L 3903 4666 
L 3903 3756 
L 1791 3756 
L 1791 0 
L 588 0 
z
" transform="scale(0.015625)"/>
     </defs>
     <use xlink:href="#DejaVuSans-Bold-393" transform="translate(0 0.09375)"/>
    </g>
   </g>
   <g id="text_2">
    <!-- $\mathbf{M}$ -->
    <g transform="translate(241.918698 131.430364) scale(0.3 -0.3)">
     <defs>
      <path id="DejaVuSans-Bold-4d" d="M 588 4666 
L 2119 4666 
L 3181 2169 
L 4250 4666 
L 5778 4666 
L 5778 0 
L 4641 0 
L 4641 3413 
L 3566 897 
L 2803 897 
L 1728 3413 
L 1728 0 
L 588 0 
L 588 4666 
z
" transform="scale(0.015625)"/>
     </defs>
     <use xlink:href="#DejaVuSans-Bold-4d" transform="translate(0 0.09375)"/>
    </g>
   </g>
   <g id="text_3">
    <!-- $\mathbf{K}$ -->
    <g transform="translate(241.918698 87.947463) scale(0.3 -0.3)">
     <defs>
      <path id="DejaVuSans-Bold-4b" d="M 588 4666 
L 1791 4666 
L 1791 2963 
L 3525 4666 
L 4922 4666 
L 2675 2456 
L 5153 0 
L 3647 0 
L 1791 1838 
L 1791 0 
L 588 0 
L 588 4666 
z
" transform="scale(0.015625)"/>
     </defs>
     <use xlink:href="#DejaVuSans-Bold-4b" transform="translate(0 0.09375)"/>
    </g>
   </g>
   <g id="text_4">
    <!-- $\theta_{\mathrm{PM}}$ -->
    <g style="fill: #444444" transform="translate(180.579426 106.226866) scale(0.32 -0.32)">
     <defs>
      <path id="DejaVuSans-Oblique-3b8" d="M 2913 2219 
L 925 2219 
Q 791 1284 928 888 
Q 1100 400 1566 400 
Q 2034 400 2391 891 
Q 2703 1322 2913 2219 
z
M 3009 2750 
Q 3094 3638 2984 3950 
Q 2813 4444 2353 4444 
Q 1875 4444 1525 3956 
Q 1250 3563 1034 2750 
L 3009 2750 
z
M 2444 4913 
Q 3194 4913 3494 4250 
Q 3794 3591 3566 2422 
Q 3341 1256 2781 594 
Q 2225 -72 1475 -72 
Q 722 -72 425 594 
Q 128 1256 353 2422 
Q 581 3591 1134 4250 
Q 1691 4913 2444 4913 
z
" transform="scale(0.015625)"/>
      <path id="DejaVuSans-50" d="M 1259 4147 
L 1259 2394 
L 2053 2394 
Q 2494 2394 2734 2622 
Q 2975 2850 2975 3272 
Q 2975 3691 2734 3919 
Q 2494 4147 2053 4147 
L 1259 4147 
z
M 628 4666 
L 2053 4666 
Q 2838 4666 3239 4311 
Q 3641 3956 3641 3272 
Q 3641 2581 3239 2228 
Q 2838 1875 2053 1875 
L 1259 1875 
L 1259 0 
L 628 0 
L 628 4666 
z
" transform="scale(0.015625)"/>
      <path id="DejaVuSans-4d" d="M 628 4666 
L 1569 4666 
L 2759 1491 
L 3956 4666 
L 4897 4666 
L 4897 0 
L 4281 0 
L 4281 4097 
L 3078 897 
L 2444 897 
L 1241 4097 
L 1241 0 
L 628 0 
L 628 4666 
z
" transform="scale(0.015625)"/>
     </defs>
     <use xlink:href="#DejaVuSans-Oblique-3b8" transform="translate(0 0.234375)"/>
     <use xlink:href="#DejaVuSans-50" transform="translate(61.181641 -16.171875) scale(0.7)"/>
     <use xlink:href="#DejaVuSans-4d" transform="translate(103.393555 -16.171875) scale(0.7)"/>
    </g>
   </g>
   <g id="text_5">
    <!-- $q_x$ -->
    <g transform="translate(133.188381 292.40597) scale(0.3 -0.3)">
     <defs>
      <path id="DejaVuSans-Oblique-71" d="M 2669 525 
Q 2438 222 2123 65 
Q 1809 -91 1428 -91 
Q 897 -91 595 267 
Q 294 625 294 1253 
Q 294 1759 480 2231 
Q 666 2703 1013 3078 
Q 1238 3322 1530 3453 
Q 1822 3584 2144 3584 
Q 2531 3584 2781 3431 
Q 3031 3278 3144 2969 
L 3244 3494 
L 3822 3494 
L 2888 -1319 
L 2309 -1319 
L 2669 525 
z
M 891 1338 
Q 891 875 1084 633 
Q 1278 391 1644 391 
Q 2188 391 2572 911 
Q 2956 1431 2956 2175 
Q 2956 2625 2757 2864 
Q 2559 3103 2188 3103 
Q 1916 3103 1684 2976 
Q 1453 2850 1281 2606 
Q 1100 2350 995 2006 
Q 891 1663 891 1338 
z
" transform="scale(0.015625)"/>
      <path id="DejaVuSans-Oblique-78" d="M 3841 3500 
L 2234 1784 
L 3219 0 
L 2559 0 
L 1819 1388 
L 531 0 
L -166 0 
L 1556 1844 
L 641 3500 
L 1300 3500 
L 1972 2234 
L 3144 3500 
L 3841 3500 
z
" transform="scale(0.015625)"/>
     </defs>
     <use xlink:href="#DejaVuSans-Oblique-71"/>
     <use xlink:href="#DejaVuSans-Oblique-78" transform="translate(63.476562 -16.40625) scale(0.7)"/>
    </g>
   </g>
   <g id="text_6">
    <!-- $q_y$ -->
    <g transform="translate(79.027187 245.014925) scale(0.3 -0.3)">
     <defs>
      <path id="DejaVuSans-Oblique-79" d="M 1588 -325 
Q 1188 -997 936 -1164 
Q 684 -1331 294 -1331 
L -159 -1331 
L -63 -850 
L 269 -850 
Q 509 -850 678 -719 
Q 847 -588 1056 -206 
L 1234 128 
L 459 3500 
L 1069 3500 
L 1650 819 
L 3256 3500 
L 3859 3500 
L 1588 -325 
z
" transform="scale(0.015625)"/>
     </defs>
     <use xlink:href="#DejaVuSans-Oblique-71"/>
     <use xlink:href="#DejaVuSans-Oblique-79" transform="translate(63.476562 -16.40625) scale(0.7)"/>
    </g>
   </g>
  </g>
 </g>
 <defs>
  <clipPath id="p23447bce7b">
   <rect x="50.373964" y="7.56" width="259.252072" height="308.88"/>
  </clipPath>
 </defs>
</svg>
