<?xml version="1.0" encoding="utf-8" standalone="no"?>
<!DOCTYPE svg PUBLIC "-//W3C//DTD SVG 1.1//EN"
  "http://www.w3.org/Graphics/SVG/1.1/DTD/svg11.dtd">
<svg xmlns:xlink="http://www.w3.org/1999/xlink" width="85.03937pt" height="113.385827pt" viewBox="0 0 85.03937 113.385827" xmlns="http://www.w3.org/2000/svg" version="1.1">
 <metadata>
  <rdf:RDF xmlns:dc="http://purl.org/dc/elements/1.1/" xmlns:cc="http://creativecommons.org/ns#" xmlns:rdf="http://www.w3.org/1999/02/22-rdf-syntax-ns#">
   <cc:Work>
    <dc:type rdf:resource="http://purl.org/dc/dcmitype/StillImage"/>
    <dc:date>2026-02-14T14:01:11.398613</dc:date>
    <dc:format>image/svg+xml</dc:format>
    <dc:creator>
     <cc:Agent>
      <dc:title>Matplotlib v3.9.0, https://matplotlib.org/</dc:title>
     </cc:Agent>
    </dc:creator>
   </cc:Work>
  </rdf:RDF>
 </metadata>
 <defs>
  <style type="text/css">*{stroke-linejoin: round; stroke-linecap: butt}</style>
 </defs>
 <g id="figure_1">
  <g id="patch_1">
   <path d="M 0 113.385827 
L 85.03937 113.385827 
L 85.03937 0 
L 0 0 
L 0 113.385827 
z
" style="fill: none"/>
  </g>
  <g id="axes_1">
   <g id="patch_2">
    <path d="M 12.212013 55.580052 
Q 12.204801 55.866433 12.197588 56.152814 
" clip-path="url(#p021cba753d)" style="fill: none"/>
    <path d="M 13.822999 51.192165 
L 12.197588 56.152814 
L 10.82395 51.116633 
z
" clip-path="url(#p021cba753d)" style="fill: #ff0000"/>
   </g>
   <g id="line2d_1">
    <path d="M 12.198734 57.298658 
L 12.376426 60.156988 
L 12.802562 62.988955 
L 13.473899 65.773005 
L 14.385326 68.48795 
L 15.529909 71.113127 
L 16.898935 73.628558 
L 18.481986 76.015099 
L 20.267014 78.254586 
L 22.240433 80.329975 
L 24.387225 82.225473 
L 26.691052 83.926652 
L 29.134379 85.420566 
L 31.698612 86.695845 
L 34.364234 87.742784 
L 37.110961 88.553414 
L 39.917886 89.121567 
L 42.763647 89.442918 
L 45.626588 89.515022 
L 48.484918 89.33733 
L 51.316884 88.911194 
L 54.100934 88.239858 
L 56.815879 87.32843 
L 59.441057 86.183847 
L 61.956488 84.814821 
L 64.343028 83.23177 
L 66.582515 81.446742 
L 68.657905 79.473323 
L 70.553402 77.326531 
L 72.254581 75.022705 
L 73.748495 72.579377 
L 75.023775 70.015145 
L 76.070713 67.349522 
L 76.881344 64.602796 
L 77.449497 61.795871 
L 77.770848 58.950109 
L 77.842952 56.087169 
L 77.66526 53.228838 
L 77.239124 50.396872 
L 76.567787 47.612822 
L 75.65636 44.897877 
L 74.511777 42.2727 
L 73.142751 39.757269 
L 71.5597 37.370728 
L 69.774672 35.131241 
L 67.801253 33.055851 
L 65.65446 31.160354 
L 63.350634 29.459175 
L 60.907307 27.965261 
L 58.343074 26.689982 
L 55.677452 25.643043 
L 52.930725 24.832412 
L 50.1238 24.26426 
L 47.278039 23.942908 
L 44.415098 23.870805 
L 41.556768 24.048497 
L 38.724801 24.474633 
L 35.940752 25.145969 
L 33.225807 26.057397 
L 30.600629 27.201979 
L 28.085198 28.571006 
L 25.698658 30.154057 
L 23.459171 31.939084 
L 21.383781 33.912504 
L 19.488284 36.059296 
L 17.787105 38.363122 
L 16.293191 40.806449 
L 15.017911 43.370682 
L 13.970973 46.036305 
L 13.160342 48.783031 
L 12.9037 49.899765 
L 12.9037 49.899765 
" clip-path="url(#p021cba753d)" style="fill: none; stroke: #ff0000; stroke-linecap: square"/>
   </g>
   <g id="text_1">
    <!-- $\vec{A}_{12}(\vec{q})$ -->
    <g transform="translate(34.415843 59.667913) scale(0.07 -0.07)">
     <defs>
      <path id="DejaVuSans-20d7" d="M -3009 4066 
L -3009 4378 
L -694 4378 
L -1106 4863 
L -713 4863 
L -166 4222 
L -713 3581 
L -1106 3581 
L -694 4066 
L -3009 4066 
z
" transform="scale(0.015625)"/>
      <path id="DejaVuSans-Oblique-41" d="M 2356 4666 
L 3072 4666 
L 3938 0 
L 3278 0 
L 3084 1197 
L 984 1197 
L 325 0 
L -341 0 
L 2356 4666 
z
M 2584 4044 
L 1275 1722 
L 2988 1722 
L 2584 4044 
z
" transform="scale(0.015625)"/>
      <path id="DejaVuSans-31" d="M 794 531 
L 1825 531 
L 1825 4091 
L 703 3866 
L 703 4441 
L 1819 4666 
L 2450 4666 
L 2450 531 
L 3481 531 
L 3481 0 
L 794 0 
L 794 531 
z
" transform="scale(0.015625)"/>
      <path id="DejaVuSans-32" d="M 1228 531 
L 3431 531 
L 3431 0 
L 469 0 
L 469 531 
Q 828 903 1448 1529 
Q 2069 2156 2228 2338 
Q 2531 2678 2651 2914 
Q 2772 3150 2772 3378 
Q 2772 3750 2511 3984 
Q 2250 4219 1831 4219 
Q 1534 4219 1204 4116 
Q 875 4013 500 3803 
L 500 4441 
Q 881 4594 1212 4672 
Q 1544 4750 1819 4750 
Q 2544 4750 2975 4387 
Q 3406 4025 3406 3419 
Q 3406 3131 3298 2873 
Q 3191 2616 2906 2266 
Q 2828 2175 2409 1742 
Q 1991 1309 1228 531 
z
" transform="scale(0.015625)"/>
      <path id="DejaVuSans-28" d="M 1984 4856 
Q 1566 4138 1362 3434 
Q 1159 2731 1159 2009 
Q 1159 1288 1364 580 
Q 1569 -128 1984 -844 
L 1484 -844 
Q 1016 -109 783 600 
Q 550 1309 550 2009 
Q 550 2706 781 3412 
Q 1013 4119 1484 4856 
L 1984 4856 
z
" transform="scale(0.015625)"/>
      <path id="DejaVuSans-Oblique-71" d="M 2669 525 
Q 2438 222 2123 65 
Q 1809 -91 1428 -91 
Q 897 -91 595 267 
Q 294 625 294 1253 
Q 294 1759 480 2231 
Q 666 2703 1013 3078 
Q 1238 3322 1530 3453 
Q 1822 3584 2144 3584 
Q 2531 3584 2781 3431 
Q 3031 3278 3144 2969 
L 3244 3494 
L 3822 3494 
L 2888 -1319 
L 2309 -1319 
L 2669 525 
z
M 891 1338 
Q 891 875 1084 633 
Q 1278 391 1644 391 
Q 2188 391 2572 911 
Q 2956 1431 2956 2175 
Q 2956 2625 2757 2864 
Q 2559 3103 2188 3103 
Q 1916 3103 1684 2976 
Q 1453 2850 1281 2606 
Q 1100 2350 995 2006 
Q 891 1663 891 1338 
z
" transform="scale(0.015625)"/>
      <path id="DejaVuSans-29" d="M 513 4856 
L 1013 4856 
Q 1481 4119 1714 3412 
Q 1947 2706 1947 2009 
Q 1947 1309 1714 600 
Q 1481 -109 1013 -844 
L 513 -844 
Q 928 -128 1133 580 
Q 1338 1288 1338 2009 
Q 1338 2731 1133 3434 
Q 928 4138 513 4856 
z
" transform="scale(0.015625)"/>
     </defs>
     <use xlink:href="#DejaVuSans-20d7" transform="translate(67.117676 30.015625)"/>
     <use xlink:href="#DejaVuSans-Oblique-41" transform="translate(0 0.5625)"/>
     <use xlink:href="#DejaVuSans-31" transform="translate(69.365234 -15.84375) scale(0.7)"/>
     <use xlink:href="#DejaVuSans-32" transform="translate(113.901367 -15.84375) scale(0.7)"/>
     <use xlink:href="#DejaVuSans-28" transform="translate(161.171875 0.5625)"/>
     <use xlink:href="#DejaVuSans-20d7" transform="translate(265.070312 13.109375)"/>
     <use xlink:href="#DejaVuSans-Oblique-71" transform="translate(200.185547 0.5625)"/>
     <use xlink:href="#DejaVuSans-29" transform="translate(263.662109 0.5625)"/>
    </g>
   </g>
   <g id="Quiver_1">
    <path d="M 12.192737 57.21275 
L 7.840988 57.208958 
L 8.327148 58.1834 
L 3.458335 56.718131 
L 8.329693 55.261348 
L 7.841836 56.234941 
L 12.193586 56.238733 
L 12.192737 57.21275 
" clip-path="url(#p021cba753d)" style="fill: #1a33cc; fill-opacity: 1; stroke: #000000; stroke-width: 0.3"/>
    <path d="M 13.177752 65.686752 
L 9.016409 64.413584 
L 9.197146 65.487465 
L 4.96759 62.665551 
L 10.052035 62.693265 
L 9.301372 63.482184 
L 13.462715 64.755352 
L 13.177752 65.686752 
" clip-path="url(#p021cba753d)" style="fill: #1a33cc; fill-opacity: 0.999743; stroke: #000000; stroke-width: 0.3"/>
    <path d="M 16.184961 73.377073 
L 14.023514 69.600053 
L 13.420023 70.506522 
L 12.269197 65.553953 
L 15.956164 69.055184 
L 14.868894 69.116274 
L 17.030341 72.893294 
L 16.184961 73.377073 
" clip-path="url(#p021cba753d)" style="fill: #1a33cc; fill-opacity: 0.999024; stroke: #000000; stroke-width: 0.3"/>
    <path d="M 21.357203 79.817743 
L 22.349592 75.580657 
L 21.29018 75.832715 
L 23.823302 71.424128 
L 24.135239 76.49907 
L 23.297945 75.802775 
L 22.305556 80.039862 
L 21.357203 79.817743 
" clip-path="url(#p021cba753d)" style="fill: #1a33cc; fill-opacity: 0.997844; stroke: #000000; stroke-width: 0.3"/>
    <path d="M 28.213882 84.895062 
L 30.39304 81.128232 
L 29.306069 81.062038 
L 33.009435 77.578157 
L 31.835367 82.525268 
L 31.23614 81.615975 
L 29.056981 85.382805 
L 28.213882 84.895062 
" clip-path="url(#p021cba753d)" style="fill: #1a33cc; fill-opacity: 0.996204; stroke: #000000; stroke-width: 0.3"/>
    <path d="M 36.224056 88.054273 
L 39.407323 85.087027 
L 38.386946 84.70661 
L 42.945573 82.454664 
L 40.37935 86.844065 
L 40.071458 85.799512 
L 36.88819 88.766758 
L 36.224056 88.054273 
" clip-path="url(#p021cba753d)" style="fill: #1a33cc; fill-opacity: 0.994103; stroke: #000000; stroke-width: 0.3"/>
    <path d="M 45.055533 89.03359 
L 49.407252 89.050232 
L 48.923972 88.07436 
L 53.788436 89.554 
L 48.912797 90.99639 
L 49.403527 90.024243 
L 45.051808 90.0076 
L 45.055533 89.03359 
" clip-path="url(#p021cba753d)" style="fill: #1a33cc; fill-opacity: 0.991544; stroke: #000000; stroke-width: 0.3"/>
    <path d="M 53.88225 88.038403 
L 57.055479 91.016381 
L 57.366897 89.972874 
L 59.918284 94.370915 
L 55.367287 92.103589 
L 56.388943 91.726619 
L 53.215713 88.748642 
L 53.88225 88.038403 
" clip-path="url(#p021cba753d)" style="fill: #1a33cc; fill-opacity: 0.98853; stroke: #000000; stroke-width: 0.3"/>
    <path d="M 61.885087 84.862969 
L 64.057679 88.63359 
L 64.65849 87.725343 
L 65.823936 92.674492 
L 62.126646 89.184163 
L 63.213731 89.119864 
L 61.041139 85.349243 
L 61.885087 84.862969 
" clip-path="url(#p021cba753d)" style="fill: #1a33cc; fill-opacity: 0.985064; stroke: #000000; stroke-width: 0.3"/>
    <path d="M 68.731281 79.77292 
L 69.709357 84.013333 
L 70.548997 83.319869 
L 70.219925 88.393729 
L 67.701704 83.976614 
L 68.760259 84.232248 
L 67.782183 79.991834 
L 68.731281 79.77292 
" clip-path="url(#p021cba753d)" style="fill: #1a33cc; fill-opacity: 0.981151; stroke: #000000; stroke-width: 0.3"/>
    <path d="M 73.887691 73.32344 
L 71.697418 77.083818 
L 72.784189 77.153222 
L 69.070551 80.626151 
L 70.259223 75.682529 
L 70.855763 76.593587 
L 73.046035 72.833209 
L 73.887691 73.32344 
" clip-path="url(#p021cba753d)" style="fill: #1a33cc; fill-opacity: 0.976801; stroke: #000000; stroke-width: 0.3"/>
    <path d="M 76.879353 65.623812 
L 72.713734 66.882921 
L 73.461729 67.67437 
L 68.377219 67.684915 
L 72.61628 64.877299 
L 72.431918 65.950564 
L 76.597537 64.691455 
L 76.879353 65.623812 
" clip-path="url(#p021cba753d)" style="fill: #1a33cc; fill-opacity: 0.972023; stroke: #000000; stroke-width: 0.3"/>
    <path d="M 77.8481 57.147094 
L 73.496351 57.143303 
L 73.982511 58.117744 
L 69.113699 56.652476 
L 73.985057 55.195693 
L 73.4972 56.169286 
L 77.848949 56.173077 
L 77.8481 57.147094 
" clip-path="url(#p021cba753d)" style="fill: #1a33cc; fill-opacity: 0.966834; stroke: #000000; stroke-width: 0.3"/>
    <path d="M 76.578971 48.630475 
L 72.417627 47.357307 
L 72.598364 48.431189 
L 68.368808 45.609274 
L 73.453253 45.636989 
L 72.70259 46.425907 
L 76.863933 47.699075 
L 76.578971 48.630475 
" clip-path="url(#p021cba753d)" style="fill: #1a33cc; fill-opacity: 0.961253; stroke: #000000; stroke-width: 0.3"/>
    <path d="M 73.011345 40.492533 
L 70.849898 36.715512 
L 70.246408 37.621981 
L 69.095582 32.669412 
L 72.782548 36.170644 
L 71.695279 36.231733 
L 73.856725 40.008753 
L 73.011345 40.492533 
" clip-path="url(#p021cba753d)" style="fill: #1a33cc; fill-opacity: 0.955306; stroke: #000000; stroke-width: 0.3"/>
    <path d="M 67.73613 33.345965 
L 68.728519 29.108879 
L 67.669107 29.360937 
L 70.202229 24.95235 
L 70.514166 30.027292 
L 69.676872 29.330997 
L 68.684483 33.568084 
L 67.73613 33.345965 
" clip-path="url(#p021cba753d)" style="fill: #1a33cc; fill-opacity: 0.949026; stroke: #000000; stroke-width: 0.3"/>
    <path d="M 60.984705 28.003022 
L 63.163863 24.236192 
L 62.076892 24.169998 
L 65.780258 20.686117 
L 64.606189 25.633228 
L 64.006962 24.723935 
L 61.827804 28.490765 
L 60.984705 28.003022 
" clip-path="url(#p021cba753d)" style="fill: #1a33cc; fill-opacity: 0.942453; stroke: #000000; stroke-width: 0.3"/>
    <path d="M 53.153496 24.619069 
L 56.336763 21.651824 
L 55.316386 21.271406 
L 59.875014 19.01946 
L 57.30879 23.408861 
L 57.000898 22.364309 
L 53.81763 25.331554 
L 53.153496 24.619069 
" clip-path="url(#p021cba753d)" style="fill: #1a33cc; fill-opacity: 0.93564; stroke: #000000; stroke-width: 0.3"/>
    <path d="M 44.989878 23.378227 
L 49.341597 23.394869 
L 48.858317 22.418996 
L 53.722781 23.898636 
L 48.847142 25.341027 
L 49.337872 24.368879 
L 44.986153 24.352237 
L 44.989878 23.378227 
" clip-path="url(#p021cba753d)" style="fill: #1a33cc; fill-opacity: 0.928647; stroke: #000000; stroke-width: 0.3"/>
    <path d="M 36.825973 24.637185 
L 39.999203 27.615163 
L 40.31062 26.571656 
L 42.862008 30.969697 
L 38.31101 28.702371 
L 39.332666 28.325401 
L 36.159436 25.347424 
L 36.825973 24.637185 
" clip-path="url(#p021cba753d)" style="fill: #1a33cc; fill-opacity: 0.921551; stroke: #000000; stroke-width: 0.3"/>
    <path d="M 29.000546 28.036584 
L 31.173138 31.807205 
L 31.773949 30.898958 
L 32.939395 35.848107 
L 29.242105 32.357779 
L 30.32919 32.293479 
L 28.156599 28.522858 
L 29.000546 28.036584 
" clip-path="url(#p021cba753d)" style="fill: #1a33cc; fill-opacity: 0.914437; stroke: #000000; stroke-width: 0.3"/>
    <path d="M 22.259503 33.393992 
L 23.237579 37.634406 
L 24.077219 36.940942 
L 23.748147 42.014802 
L 21.229926 37.597687 
L 22.288481 37.85332 
L 21.310405 33.612907 
L 22.259503 33.393992 
" clip-path="url(#p021cba753d)" style="fill: #1a33cc; fill-opacity: 0.90741; stroke: #000000; stroke-width: 0.3"/>
    <path d="M 16.995651 40.552618 
L 14.805378 44.312996 
L 15.892149 44.382399 
L 12.178511 47.855329 
L 13.367183 42.911706 
L 13.963723 43.822765 
L 16.153995 40.062387 
L 16.995651 40.552618 
" clip-path="url(#p021cba753d)" style="fill: #1a33cc; fill-opacity: 0.900583; stroke: #000000; stroke-width: 0.3"/>
    <path d="M 13.444149 48.694372 
L 9.27853 49.953481 
L 10.026525 50.74493 
L 4.942016 50.755475 
L 9.181076 47.947859 
L 8.996714 49.021124 
L 13.162333 47.762015 
L 13.444149 48.694372 
" clip-path="url(#p021cba753d)" style="fill: #1a33cc; fill-opacity: 0.894086; stroke: #000000; stroke-width: 0.3"/>
   </g>
  </g>
 </g>
 <defs>
  <clipPath id="p021cba753d">
   <rect x="0" y="16.674386" width="85.03937" height="80.037054"/>
  </clipPath>
 </defs>
</svg>
