<?xml version="1.0" encoding="utf-8" standalone="no"?>
<!DOCTYPE svg PUBLIC "-//W3C//DTD SVG 1.1//EN"
  "http://www.w3.org/Graphics/SVG/1.1/DTD/svg11.dtd">
<svg xmlns:xlink="http://www.w3.org/1999/xlink" width="170.07874pt" height="85.03937pt" viewBox="0 0 170.07874 85.03937" xmlns="http://www.w3.org/2000/svg" version="1.1">
 <metadata>
  <rdf:RDF xmlns:dc="http://purl.org/dc/elements/1.1/" xmlns:cc="http://creativecommons.org/ns#" xmlns:rdf="http://www.w3.org/1999/02/22-rdf-syntax-ns#">
   <cc:Work>
    <dc:type rdf:resource="http://purl.org/dc/dcmitype/StillImage"/>
    <dc:date>2026-02-25T16:43:05.773296</dc:date>
    <dc:format>image/svg+xml</dc:format>
    <dc:creator>
     <cc:Agent>
      <dc:title>Matplotlib v3.7.2, https://matplotlib.org/</dc:title>
     </cc:Agent>
    </dc:creator>
   </cc:Work>
  </rdf:RDF>
 </metadata>
 <defs>
  <style type="text/css">*{stroke-linejoin: round; stroke-linecap: butt}</style>
 </defs>
 <g id="figure_1">
  <g id="patch_1">
   <path d="M 0 85.03937 
L 170.07874 85.03937 
L 170.07874 0 
L 0 0 
L 0 85.03937 
z
" style="fill: none"/>
  </g>
  <g id="axes_1">
   <g id="patch_2">
    <path d="M 18.18248 68.208933 
L 169.879769 68.208933 
L 169.879769 0 
L 18.18248 0 
z
" style="fill: #ffffff"/>
   </g>
   <g id="matplotlib.axis_1">
    <g id="xtick_1">
     <g id="line2d_1">
      <defs>
       <path id="m00ed6b1fae" d="M 0 0 
L 0 -3 
" style="stroke: #000000"/>
      </defs>
      <g>
       <use xlink:href="#m00ed6b1fae" x="24.991986" y="68.208933" style="stroke: #000000"/>
      </g>
     </g>
     <g id="line2d_2">
      <defs>
       <path id="m8f1f895fdf" d="M 0 0 
L 0 3 
" style="stroke: #000000"/>
      </defs>
      <g>
       <use xlink:href="#m8f1f895fdf" x="24.991986" y="0" style="stroke: #000000"/>
      </g>
     </g>
     <g id="text_1">
      <!-- $0$ -->
      <g transform="translate(23.241986 75.719401) scale(0.07 -0.07)">
       <defs>
        <path id="Cmr10-30" d="M 1600 -141 
Q 816 -141 533 504 
Q 250 1150 250 2041 
Q 250 2597 351 3087 
Q 453 3578 754 3920 
Q 1056 4263 1600 4263 
Q 2022 4263 2290 4056 
Q 2559 3850 2700 3523 
Q 2841 3197 2892 2823 
Q 2944 2450 2944 2041 
Q 2944 1491 2842 1011 
Q 2741 531 2444 195 
Q 2147 -141 1600 -141 
z
M 1600 25 
Q 1956 25 2131 390 
Q 2306 756 2347 1200 
Q 2388 1644 2388 2144 
Q 2388 2625 2347 3031 
Q 2306 3438 2132 3767 
Q 1959 4097 1600 4097 
Q 1238 4097 1063 3765 
Q 888 3434 847 3029 
Q 806 2625 806 2144 
Q 806 1788 823 1472 
Q 841 1156 916 820 
Q 991 484 1158 254 
Q 1325 25 1600 25 
z
" transform="scale(0.015625)"/>
       </defs>
       <use xlink:href="#Cmr10-30" transform="translate(0 0.390625)"/>
      </g>
     </g>
    </g>
    <g id="xtick_2">
     <g id="line2d_3">
      <g>
       <use xlink:href="#m00ed6b1fae" x="96.30096" y="68.208933" style="stroke: #000000"/>
      </g>
     </g>
     <g id="line2d_4">
      <g>
       <use xlink:href="#m8f1f895fdf" x="96.30096" y="0" style="stroke: #000000"/>
      </g>
     </g>
     <g id="text_2">
      <!-- $\pi/2$ -->
      <g transform="translate(90.80596 75.958933) scale(0.07 -0.07)">
       <defs>
        <path id="Cmmi10-bc" d="M 647 109 
Q 647 144 672 213 
Q 850 584 1004 942 
Q 1159 1300 1282 1639 
Q 1406 1978 1509 2363 
L 1100 2363 
Q 866 2363 662 2216 
Q 459 2069 325 1844 
Q 313 1819 288 1819 
L 213 1819 
Q 153 1819 153 1881 
Q 153 1894 166 1919 
Q 375 2275 614 2517 
Q 853 2759 1153 2759 
L 3475 2759 
Q 3541 2759 3587 2715 
Q 3634 2672 3634 2597 
Q 3634 2503 3567 2433 
Q 3500 2363 3406 2363 
L 2591 2363 
Q 2488 1859 2478 1381 
Q 2478 766 2694 269 
Q 2713 231 2713 191 
Q 2713 122 2672 62 
Q 2631 3 2567 -34 
Q 2503 -72 2431 -72 
Q 2263 -72 2200 203 
Q 2138 478 2138 738 
Q 2138 1103 2200 1442 
Q 2263 1781 2400 2363 
L 1703 2363 
Q 1197 313 1094 103 
Q 1003 -72 844 -72 
Q 766 -72 706 -20 
Q 647 31 647 109 
z
" transform="scale(0.015625)"/>
        <path id="Cmmi10-3d" d="M 359 -1472 
Q 359 -1453 366 -1447 
L 2591 4722 
Q 2603 4759 2634 4779 
Q 2666 4800 2706 4800 
Q 2763 4800 2798 4765 
Q 2834 4731 2834 4672 
L 2834 4647 
L 609 -1522 
Q 572 -1600 488 -1600 
Q 434 -1600 396 -1562 
Q 359 -1525 359 -1472 
z
" transform="scale(0.015625)"/>
        <path id="Cmr10-32" d="M 319 0 
L 319 172 
Q 319 188 331 206 
L 1325 1306 
Q 1550 1550 1690 1715 
Q 1831 1881 1968 2097 
Q 2106 2313 2186 2536 
Q 2266 2759 2266 3009 
Q 2266 3272 2169 3511 
Q 2072 3750 1880 3894 
Q 1688 4038 1416 4038 
Q 1138 4038 916 3870 
Q 694 3703 603 3438 
Q 628 3444 672 3444 
Q 816 3444 917 3347 
Q 1019 3250 1019 3097 
Q 1019 2950 917 2848 
Q 816 2747 672 2747 
Q 522 2747 420 2851 
Q 319 2956 319 3097 
Q 319 3338 409 3548 
Q 500 3759 670 3923 
Q 841 4088 1055 4175 
Q 1269 4263 1509 4263 
Q 1875 4263 2190 4108 
Q 2506 3953 2690 3670 
Q 2875 3388 2875 3009 
Q 2875 2731 2753 2481 
Q 2631 2231 2440 2026 
Q 2250 1822 1953 1562 
Q 1656 1303 1563 1216 
L 838 519 
L 1453 519 
Q 1906 519 2211 526 
Q 2516 534 2534 550 
Q 2609 631 2688 1141 
L 2875 1141 
L 2694 0 
L 319 0 
z
" transform="scale(0.015625)"/>
       </defs>
       <use xlink:href="#Cmmi10-bc"/>
       <use xlink:href="#Cmmi10-3d" transform="translate(56.982422 0)"/>
       <use xlink:href="#Cmr10-32" transform="translate(106.982422 0)"/>
      </g>
     </g>
    </g>
    <g id="xtick_3">
     <g id="line2d_5">
      <g>
       <use xlink:href="#m00ed6b1fae" x="167.609933" y="68.208933" style="stroke: #000000"/>
      </g>
     </g>
     <g id="line2d_6">
      <g>
       <use xlink:href="#m8f1f895fdf" x="167.609933" y="0" style="stroke: #000000"/>
      </g>
     </g>
     <g id="text_3">
      <!-- $\pi$ -->
      <g transform="translate(165.614933 75.719401) scale(0.07 -0.07)">
       <use xlink:href="#Cmmi10-bc" transform="translate(0 0.890625)"/>
      </g>
     </g>
    </g>
    <g id="text_4">
     <!-- $\theta_{PM}$ -->
     <g transform="translate(88.186125 82.719401) scale(0.07 -0.07)">
      <defs>
       <path id="Cmmi10-b5" d="M 1031 -72 
Q 741 -72 566 140 
Q 391 353 323 653 
Q 256 953 256 1247 
L 256 1253 
Q 256 1572 317 1915 
Q 378 2259 493 2601 
Q 609 2944 744 3213 
Q 838 3400 986 3631 
Q 1134 3863 1317 4064 
Q 1500 4266 1711 4389 
Q 1922 4513 2138 4513 
L 2144 4513 
Q 2375 4513 2529 4384 
Q 2684 4256 2770 4056 
Q 2856 3856 2890 3628 
Q 2925 3400 2925 3194 
Q 2925 2709 2794 2204 
Q 2663 1700 2431 1228 
Q 2344 1050 2189 809 
Q 2034 569 1861 378 
Q 1688 188 1472 58 
Q 1256 -72 1038 -72 
L 1031 -72 
z
M 1044 97 
Q 1256 97 1451 323 
Q 1647 550 1794 873 
Q 1941 1197 2052 1536 
Q 2163 1875 2216 2113 
L 909 2113 
Q 809 1709 753 1417 
Q 697 1125 697 844 
Q 697 97 1044 97 
z
M 959 2338 
L 2272 2338 
Q 2341 2619 2381 2808 
Q 2422 2997 2450 3206 
Q 2478 3416 2478 3597 
Q 2478 4347 2138 4347 
Q 1731 4347 1436 3692 
Q 1141 3038 959 2338 
z
" transform="scale(0.015625)"/>
       <path id="Cmmi10-50" d="M 313 0 
Q 250 0 250 84 
Q 253 100 262 139 
Q 272 178 289 201 
Q 306 225 331 225 
Q 722 225 878 269 
Q 959 297 997 441 
L 1875 3956 
Q 1888 4019 1888 4044 
Q 1888 4113 1813 4122 
Q 1691 4147 1350 4147 
Q 1288 4147 1288 4231 
Q 1291 4247 1300 4286 
Q 1309 4325 1326 4348 
Q 1344 4372 1369 4372 
L 3578 4372 
Q 3881 4372 4165 4264 
Q 4450 4156 4631 3934 
Q 4813 3713 4813 3397 
Q 4813 2991 4527 2672 
Q 4241 2353 3814 2175 
Q 3388 1997 2988 1997 
L 1947 1997 
L 1556 416 
Q 1544 353 1544 325 
Q 1544 300 1551 283 
Q 1559 266 1573 261 
Q 1588 256 1619 250 
Q 1741 225 2081 225 
Q 2144 225 2144 141 
Q 2122 50 2109 25 
Q 2097 0 2034 0 
L 313 0 
z
M 1978 2188 
L 2875 2188 
Q 3497 2188 3822 2522 
Q 3988 2688 4092 3000 
Q 4197 3313 4197 3566 
Q 4197 3881 3956 4014 
Q 3716 4147 3359 4147 
L 2747 4147 
Q 2572 4147 2515 4117 
Q 2459 4088 2413 3928 
L 1978 2188 
z
" transform="scale(0.015625)"/>
       <path id="Cmmi10-4d" d="M 325 0 
Q 263 0 263 84 
Q 266 100 275 137 
Q 284 175 300 200 
Q 316 225 347 225 
Q 956 225 1056 616 
L 1888 3956 
Q 1900 4019 1900 4044 
Q 1900 4113 1825 4122 
Q 1703 4147 1363 4147 
Q 1300 4147 1300 4231 
Q 1303 4247 1312 4286 
Q 1322 4325 1339 4348 
Q 1356 4372 1381 4372 
L 2509 4372 
Q 2581 4372 2591 4300 
L 3091 634 
L 5422 4300 
Q 5466 4372 5544 4372 
L 6631 4372 
Q 6694 4372 6694 4288 
Q 6691 4272 6681 4233 
Q 6672 4194 6655 4170 
Q 6638 4147 6613 4147 
Q 6222 4147 6069 4103 
Q 5984 4075 5947 3928 
L 5069 416 
Q 5056 353 5056 325 
Q 5056 300 5064 283 
Q 5072 266 5086 261 
Q 5100 256 5131 250 
Q 5253 225 5594 225 
Q 5656 225 5656 141 
Q 5634 50 5621 25 
Q 5609 0 5550 0 
L 3878 0 
Q 3816 0 3816 84 
Q 3819 100 3828 139 
Q 3838 178 3855 201 
Q 3872 225 3897 225 
Q 4288 225 4441 269 
Q 4525 297 4563 441 
L 5484 4147 
L 2900 72 
Q 2863 0 2772 0 
Q 2691 0 2681 72 
L 2138 4097 
L 1259 588 
Q 1253 572 1250 548 
Q 1247 525 1241 494 
Q 1241 328 1386 276 
Q 1531 225 1741 225 
Q 1806 225 1806 141 
Q 1784 56 1770 28 
Q 1756 0 1697 0 
L 325 0 
z
" transform="scale(0.015625)"/>
      </defs>
      <use xlink:href="#Cmmi10-b5" transform="translate(0 0.484375)"/>
      <use xlink:href="#Cmmi10-50" transform="translate(46.923828 -16.521875) scale(0.7)"/>
      <use xlink:href="#Cmmi10-4d" transform="translate(91.870117 -16.521875) scale(0.7)"/>
     </g>
    </g>
   </g>
   <g id="matplotlib.axis_2">
    <g id="ytick_1">
     <g id="line2d_7">
      <defs>
       <path id="m31e40eaf46" d="M 0 0 
L 3 0 
" style="stroke: #000000"/>
      </defs>
      <g>
       <use xlink:href="#m31e40eaf46" x="18.18248" y="62.547669" style="stroke: #000000"/>
      </g>
     </g>
     <g id="line2d_8">
      <defs>
       <path id="ma9a1d5902e" d="M 0 0 
L -3 0 
" style="stroke: #000000"/>
      </defs>
      <g>
       <use xlink:href="#ma9a1d5902e" x="169.879769" y="62.547669" style="stroke: #000000"/>
      </g>
     </g>
     <g id="text_5">
      <!-- $0$ -->
      <g transform="translate(11.18248 65.052903) scale(0.07 -0.07)">
       <use xlink:href="#Cmr10-30" transform="translate(0 0.390625)"/>
      </g>
     </g>
    </g>
    <g id="ytick_2">
     <g id="line2d_9">
      <g>
       <use xlink:href="#m31e40eaf46" x="18.18248" y="36.871124" style="stroke: #000000"/>
      </g>
     </g>
     <g id="line2d_10">
      <g>
       <use xlink:href="#ma9a1d5902e" x="169.879769" y="36.871124" style="stroke: #000000"/>
      </g>
     </g>
     <g id="text_6">
      <!-- $\pi$ -->
      <g transform="translate(10.69248 39.376358) scale(0.07 -0.07)">
       <use xlink:href="#Cmmi10-bc" transform="translate(0 0.890625)"/>
      </g>
     </g>
    </g>
    <g id="ytick_3">
     <g id="line2d_11">
      <g>
       <use xlink:href="#m31e40eaf46" x="18.18248" y="11.194579" style="stroke: #000000"/>
      </g>
     </g>
     <g id="line2d_12">
      <g>
       <use xlink:href="#ma9a1d5902e" x="169.879769" y="11.194579" style="stroke: #000000"/>
      </g>
     </g>
     <g id="text_7">
      <!-- $2 \pi$ -->
      <g transform="translate(7.19248 13.699813) scale(0.07 -0.07)">
       <use xlink:href="#Cmr10-32" transform="translate(0 0.390625)"/>
       <use xlink:href="#Cmmi10-bc" transform="translate(50 0.390625)"/>
      </g>
     </g>
    </g>
    <g id="text_8">
     <!-- $\phi$ -->
     <g transform="translate(5.72248 36.204466) rotate(-90) scale(0.07 -0.07)">
      <defs>
       <path id="Cmmi10-c1" d="M 1241 -1247 
L 1528 -91 
Q 1203 -91 922 61 
Q 641 213 470 484 
Q 300 756 300 1075 
Q 300 1422 472 1737 
Q 644 2053 942 2311 
Q 1241 2569 1584 2708 
Q 1928 2847 2266 2847 
L 2650 4403 
Q 2663 4441 2700 4441 
L 2778 4441 
Q 2803 4441 2818 4419 
Q 2834 4397 2834 4378 
L 2450 2847 
Q 2691 2847 2916 2759 
Q 3141 2672 3314 2514 
Q 3488 2356 3584 2142 
Q 3681 1928 3681 1684 
Q 3681 1338 3509 1022 
Q 3338 706 3047 453 
Q 2756 200 2398 54 
Q 2041 -91 1716 -91 
L 1422 -1275 
Q 1409 -1313 1369 -1313 
L 1294 -1313 
Q 1269 -1313 1255 -1289 
Q 1241 -1266 1241 -1247 
z
M 1569 78 
L 2222 2681 
Q 2059 2681 1881 2615 
Q 1703 2550 1545 2450 
Q 1388 2350 1259 2222 
Q 1103 2066 984 1853 
Q 866 1641 805 1405 
Q 744 1169 744 941 
Q 744 700 847 503 
Q 950 306 1137 192 
Q 1325 78 1569 78 
z
M 1759 78 
Q 2000 78 2272 215 
Q 2544 353 2719 538 
Q 2959 775 3098 1120 
Q 3238 1466 3238 1819 
Q 3238 2056 3134 2254 
Q 3031 2453 2843 2567 
Q 2656 2681 2413 2681 
L 1759 78 
z
" transform="scale(0.015625)"/>
      </defs>
      <use xlink:href="#Cmmi10-c1" transform="translate(0 0.609375)"/>
     </g>
    </g>
   </g>
   <g id="PathCollection_1">
    <defs>
     <path id="C0_0_61336c0c2c" d="M 0 1.732051 
C 0.459345 1.732051 0.899939 1.549551 1.224745 1.224745 
C 1.549551 0.899939 1.732051 0.459345 1.732051 -0 
C 1.732051 -0.459345 1.549551 -0.899939 1.224745 -1.224745 
C 0.899939 -1.549551 0.459345 -1.732051 0 -1.732051 
C -0.459345 -1.732051 -0.899939 -1.549551 -1.224745 -1.224745 
C -1.549551 -0.899939 -1.732051 -0.459345 -1.732051 0 
C -1.732051 0.459345 -1.549551 0.899939 -1.224745 1.224745 
C -0.899939 1.549551 -0.459345 1.732051 0 1.732051 
z
"/>
    </defs>
    <g clip-path="url(#p8c41903e86)">
     <use xlink:href="#C0_0_61336c0c2c" x="151.763495" y="29.233247" style="fill: #41049d"/>
    </g>
    <g clip-path="url(#p8c41903e86)">
     <use xlink:href="#C0_0_61336c0c2c" x="135.917056" y="27.824254" style="fill: #41049d"/>
    </g>
    <g clip-path="url(#p8c41903e86)">
     <use xlink:href="#C0_0_61336c0c2c" x="120.070618" y="26.327454" style="fill: #41049d"/>
    </g>
    <g clip-path="url(#p8c41903e86)">
     <use xlink:href="#C0_0_61336c0c2c" x="104.224179" y="25.707362" style="fill: #41049d"/>
    </g>
    <g clip-path="url(#p8c41903e86)">
     <use xlink:href="#C0_0_61336c0c2c" x="88.37774" y="22.21912" style="fill: #41049d"/>
    </g>
    <g clip-path="url(#p8c41903e86)">
     <use xlink:href="#C0_0_61336c0c2c" x="72.531302" y="21.683498" style="fill: #41049d"/>
    </g>
    <g clip-path="url(#p8c41903e86)">
     <use xlink:href="#C0_0_61336c0c2c" x="56.684863" y="20.595071" style="fill: #41049d"/>
    </g>
    <g clip-path="url(#p8c41903e86)">
     <use xlink:href="#C0_0_61336c0c2c" x="40.838424" y="19.395861" style="fill: #41049d"/>
    </g>
    <g clip-path="url(#p8c41903e86)">
     <use xlink:href="#C0_0_61336c0c2c" x="24.991986" y="19.103355" style="fill: #41049d"/>
    </g>
   </g>
   <g id="PathCollection_2">
    <defs>
     <path id="C1_0_22a4b33ecc" d="M 0 1.732051 
C 0.459345 1.732051 0.899939 1.549551 1.224745 1.224745 
C 1.549551 0.899939 1.732051 0.459345 1.732051 -0 
C 1.732051 -0.459345 1.549551 -0.899939 1.224745 -1.224745 
C 0.899939 -1.549551 0.459345 -1.732051 0 -1.732051 
C -0.459345 -1.732051 -0.899939 -1.549551 -1.224745 -1.224745 
C -1.549551 -0.899939 -1.732051 -0.459345 -1.732051 0 
C -1.732051 0.459345 -1.549551 0.899939 -1.224745 1.224745 
C -0.899939 1.549551 -0.459345 1.732051 0 1.732051 
z
"/>
    </defs>
    <g clip-path="url(#p8c41903e86)">
     <use xlink:href="#C1_0_22a4b33ecc" x="151.763495" y="41.64366" style="fill: #8f0da4"/>
    </g>
    <g clip-path="url(#p8c41903e86)">
     <use xlink:href="#C1_0_22a4b33ecc" x="135.917056" y="40.303877" style="fill: #8f0da4"/>
    </g>
    <g clip-path="url(#p8c41903e86)">
     <use xlink:href="#C1_0_22a4b33ecc" x="120.070618" y="38.659089" style="fill: #8f0da4"/>
    </g>
    <g clip-path="url(#p8c41903e86)">
     <use xlink:href="#C1_0_22a4b33ecc" x="104.224179" y="37.32062" style="fill: #8f0da4"/>
    </g>
    <g clip-path="url(#p8c41903e86)">
     <use xlink:href="#C1_0_22a4b33ecc" x="88.37774" y="37.342135" style="fill: #8f0da4"/>
    </g>
    <g clip-path="url(#p8c41903e86)">
     <use xlink:href="#C1_0_22a4b33ecc" x="72.531302" y="34.417978" style="fill: #8f0da4"/>
    </g>
    <g clip-path="url(#p8c41903e86)">
     <use xlink:href="#C1_0_22a4b33ecc" x="56.684863" y="33.548233" style="fill: #8f0da4"/>
    </g>
    <g clip-path="url(#p8c41903e86)">
     <use xlink:href="#C1_0_22a4b33ecc" x="40.838424" y="31.288507" style="fill: #8f0da4"/>
    </g>
    <g clip-path="url(#p8c41903e86)">
     <use xlink:href="#C1_0_22a4b33ecc" x="24.991986" y="29.963355" style="fill: #8f0da4"/>
    </g>
   </g>
   <g id="PathCollection_3">
    <defs>
     <path id="C2_0_3afa91f8da" d="M 0 1.732051 
C 0.459345 1.732051 0.899939 1.549551 1.224745 1.224745 
C 1.549551 0.899939 1.732051 0.459345 1.732051 -0 
C 1.732051 -0.459345 1.549551 -0.899939 1.224745 -1.224745 
C 0.899939 -1.549551 0.459345 -1.732051 0 -1.732051 
C -0.459345 -1.732051 -0.899939 -1.549551 -1.224745 -1.224745 
C -1.549551 -0.899939 -1.732051 -0.459345 -1.732051 0 
C -1.732051 0.459345 -1.549551 0.899939 -1.224745 1.224745 
C -0.899939 1.549551 -0.459345 1.732051 0 1.732051 
z
"/>
    </defs>
    <g clip-path="url(#p8c41903e86)">
     <use xlink:href="#C2_0_3afa91f8da" x="151.763495" y="53.689043" style="fill: #cc4778"/>
    </g>
    <g clip-path="url(#p8c41903e86)">
     <use xlink:href="#C2_0_3afa91f8da" x="135.917056" y="52.38832" style="fill: #cc4778"/>
    </g>
    <g clip-path="url(#p8c41903e86)">
     <use xlink:href="#C2_0_3afa91f8da" x="120.070618" y="50.854402" style="fill: #cc4778"/>
    </g>
    <g clip-path="url(#p8c41903e86)">
     <use xlink:href="#C2_0_3afa91f8da" x="104.224179" y="50.282916" style="fill: #cc4778"/>
    </g>
    <g clip-path="url(#p8c41903e86)">
     <use xlink:href="#C2_0_3afa91f8da" x="88.37774" y="49.468349" style="fill: #cc4778"/>
    </g>
    <g clip-path="url(#p8c41903e86)">
     <use xlink:href="#C2_0_3afa91f8da" x="72.531302" y="47.143617" style="fill: #cc4778"/>
    </g>
    <g clip-path="url(#p8c41903e86)">
     <use xlink:href="#C2_0_3afa91f8da" x="56.684863" y="46.118057" style="fill: #cc4778"/>
    </g>
    <g clip-path="url(#p8c41903e86)">
     <use xlink:href="#C2_0_3afa91f8da" x="40.838424" y="44.578321" style="fill: #cc4778"/>
    </g>
    <g clip-path="url(#p8c41903e86)">
     <use xlink:href="#C2_0_3afa91f8da" x="24.991986" y="43.45875" style="fill: #cc4778"/>
    </g>
   </g>
   <g id="PathCollection_4">
    <defs>
     <path id="C3_0_f4f912a156" d="M 0 1.732051 
C 0.459345 1.732051 0.899939 1.549551 1.224745 1.224745 
C 1.549551 0.899939 1.732051 0.459345 1.732051 -0 
C 1.732051 -0.459345 1.549551 -0.899939 1.224745 -1.224745 
C 0.899939 -1.549551 0.459345 -1.732051 0 -1.732051 
C -0.459345 -1.732051 -0.899939 -1.549551 -1.224745 -1.224745 
C -1.549551 -0.899939 -1.732051 -0.459345 -1.732051 0 
C -1.732051 0.459345 -1.549551 0.899939 -1.224745 1.224745 
C -0.899939 1.549551 -0.459345 1.732051 0 1.732051 
z
"/>
    </defs>
    <g clip-path="url(#p8c41903e86)">
     <use xlink:href="#C3_0_f4f912a156" x="151.763495" y="17.499408" style="fill: #f2844b"/>
    </g>
    <g clip-path="url(#p8c41903e86)">
     <use xlink:href="#C3_0_f4f912a156" x="135.917056" y="13.629207" style="fill: #f2844b"/>
    </g>
    <g clip-path="url(#p8c41903e86)">
     <use xlink:href="#C3_0_f4f912a156" x="120.070618" y="12.160861" style="fill: #f2844b"/>
    </g>
    <g clip-path="url(#p8c41903e86)">
     <use xlink:href="#C3_0_f4f912a156" x="104.224179" y="10.887446" style="fill: #f2844b"/>
    </g>
    <g clip-path="url(#p8c41903e86)">
     <use xlink:href="#C3_0_f4f912a156" x="88.37774" y="9.102423" style="fill: #f2844b"/>
    </g>
    <g clip-path="url(#p8c41903e86)">
     <use xlink:href="#C3_0_f4f912a156" x="72.531302" y="11.002357" style="fill: #f2844b"/>
    </g>
    <g clip-path="url(#p8c41903e86)">
     <use xlink:href="#C3_0_f4f912a156" x="56.684863" y="7.647446" style="fill: #f2844b"/>
    </g>
    <g clip-path="url(#p8c41903e86)">
     <use xlink:href="#C3_0_f4f912a156" x="40.838424" y="4.776108" style="fill: #f2844b"/>
    </g>
    <g clip-path="url(#p8c41903e86)">
     <use xlink:href="#C3_0_f4f912a156" x="24.991986" y="3.685181" style="fill: #f2844b"/>
    </g>
   </g>
   <g id="LineCollection_1">
    <path d="M 151.763495 29.661125 
L 151.763495 28.805369 
" clip-path="url(#p8c41903e86)" style="fill: none; stroke: #41049d; stroke-width: 0.7"/>
    <path d="M 135.917056 28.100147 
L 135.917056 27.548362 
" clip-path="url(#p8c41903e86)" style="fill: none; stroke: #41049d; stroke-width: 0.7"/>
    <path d="M 120.070618 26.698129 
L 120.070618 25.956778 
" clip-path="url(#p8c41903e86)" style="fill: none; stroke: #41049d; stroke-width: 0.7"/>
    <path d="M 104.224179 26.273506 
L 104.224179 25.141218 
" clip-path="url(#p8c41903e86)" style="fill: none; stroke: #41049d; stroke-width: 0.7"/>
    <path d="M 88.37774 24.674864 
L 88.37774 19.763375 
" clip-path="url(#p8c41903e86)" style="fill: none; stroke: #41049d; stroke-width: 0.7"/>
    <path d="M 72.531302 21.859537 
L 72.531302 21.50746 
" clip-path="url(#p8c41903e86)" style="fill: none; stroke: #41049d; stroke-width: 0.7"/>
    <path d="M 56.684863 20.928578 
L 56.684863 20.261565 
" clip-path="url(#p8c41903e86)" style="fill: none; stroke: #41049d; stroke-width: 0.7"/>
    <path d="M 40.838424 20.317701 
L 40.838424 18.474022 
" clip-path="url(#p8c41903e86)" style="fill: none; stroke: #41049d; stroke-width: 0.7"/>
    <path d="M 24.991986 19.445998 
L 24.991986 18.760711 
" clip-path="url(#p8c41903e86)" style="fill: none; stroke: #41049d; stroke-width: 0.7"/>
   </g>
   <g id="line2d_13">
    <path d="M 167.609933 56.128533 
L 151.763495 54.702058 
L 135.917056 53.275583 
L 120.070618 51.849108 
L 104.224179 50.422634 
L 88.37774 48.996159 
L 72.531302 47.569684 
L 56.684863 46.14321 
L 40.838424 44.716735 
L 24.991986 43.29026 
L 20.452316 42.881605 
" clip-path="url(#p8c41903e86)" style="fill: none; stroke-dasharray: 2.96,1.28; stroke-dashoffset: 0; stroke: #cc4778; stroke-opacity: 0.7; stroke-width: 0.8"/>
   </g>
   <g id="line2d_14">
    <path d="M 167.609933 56.976244 
L 166.169348 56.833597 
L 164.728763 56.833597 
L 163.288177 56.690949 
L 161.847592 56.548302 
L 160.407007 56.405654 
L 158.966421 56.263007 
L 157.525836 56.120359 
L 156.085251 55.977712 
L 154.644666 55.835065 
L 153.20408 55.692417 
L 151.763495 55.407122 
L 150.32291 55.264475 
L 148.882324 54.97918 
L 147.441739 54.693885 
L 146.001154 54.40859 
L 144.560568 54.123295 
L 143.119983 53.838 
L 141.679398 53.552705 
L 140.238812 53.26741 
L 138.798227 52.982115 
L 137.357642 52.69682 
L 135.917056 52.554173 
L 134.476471 52.268878 
L 133.035886 52.12623 
L 131.5953 51.983583 
L 130.154715 51.840935 
L 128.71413 51.698288 
L 127.273544 51.55564 
L 125.832959 51.412993 
L 124.392374 51.270345 
L 122.951788 51.127698 
L 121.511203 51.127698 
L 120.070618 50.98505 
L 118.630032 50.842403 
L 117.189447 50.842403 
L 115.748862 50.699756 
L 114.308276 50.557108 
L 112.867691 50.557108 
L 111.427106 50.414461 
L 109.98652 50.414461 
L 108.545935 50.271813 
L 107.10535 50.271813 
L 105.664764 50.129166 
L 104.224179 50.129166 
L 102.783594 49.986518 
L 101.343008 49.986518 
L 99.902423 49.843871 
L 98.461838 49.843871 
L 97.021252 49.701223 
L 95.580667 49.701223 
L 94.140082 49.558576 
L 92.699496 49.558576 
L 91.258911 49.415928 
L 89.818326 49.415928 
L 88.37774 49.273281 
L 86.937155 49.273281 
L 85.49657 49.130633 
L 84.055984 49.130633 
L 82.615399 48.987986 
L 81.174814 48.987986 
L 79.734228 48.845338 
L 78.293643 48.845338 
L 76.853058 48.702691 
L 75.412472 48.560043 
L 73.971887 48.560043 
L 72.531302 48.417396 
L 71.090716 48.274749 
L 69.650131 48.274749 
L 68.209546 48.132101 
L 66.76896 47.989454 
L 65.328375 47.846806 
L 63.88779 47.704159 
L 62.447204 47.561511 
L 61.006619 47.418864 
L 59.566034 47.276216 
L 58.125448 47.133569 
L 56.684863 46.848274 
L 55.244278 46.705626 
L 53.803692 46.420331 
L 52.363107 46.135036 
L 50.922522 45.849741 
L 49.481936 45.564447 
L 48.041351 45.279152 
L 46.600766 44.993857 
L 45.16018 44.708562 
L 43.719595 44.423267 
L 42.27901 44.137972 
L 40.838424 43.995324 
L 39.397839 43.710029 
L 37.957254 43.567382 
L 36.516669 43.424734 
L 35.076083 43.282087 
L 33.635498 43.13944 
L 32.194913 42.996792 
L 30.754327 42.854145 
L 29.313742 42.711497 
L 27.873157 42.56885 
L 26.432571 42.56885 
L 24.991986 42.426202 
" clip-path="url(#p8c41903e86)" style="fill: none; stroke: #cc4778; stroke-opacity: 0.6; stroke-width: 0.6; stroke-linecap: square"/>
   </g>
   <g id="LineCollection_2">
    <path d="M 151.763495 42.699816 
L 151.763495 40.587503 
" clip-path="url(#p8c41903e86)" style="fill: none; stroke: #8f0da4; stroke-width: 0.7"/>
    <path d="M 135.917056 40.578458 
L 135.917056 40.029295 
" clip-path="url(#p8c41903e86)" style="fill: none; stroke: #8f0da4; stroke-width: 0.7"/>
    <path d="M 120.070618 38.897754 
L 120.070618 38.420423 
" clip-path="url(#p8c41903e86)" style="fill: none; stroke: #8f0da4; stroke-width: 0.7"/>
    <path d="M 104.224179 38.378415 
L 104.224179 36.262824 
" clip-path="url(#p8c41903e86)" style="fill: none; stroke: #8f0da4; stroke-width: 0.7"/>
    <path d="M 88.37774 40.29338 
L 88.37774 34.390891 
" clip-path="url(#p8c41903e86)" style="fill: none; stroke: #8f0da4; stroke-width: 0.7"/>
    <path d="M 72.531302 34.666973 
L 72.531302 34.168982 
" clip-path="url(#p8c41903e86)" style="fill: none; stroke: #8f0da4; stroke-width: 0.7"/>
    <path d="M 56.684863 33.988365 
L 56.684863 33.108102 
" clip-path="url(#p8c41903e86)" style="fill: none; stroke: #8f0da4; stroke-width: 0.7"/>
    <path d="M 40.838424 32.013451 
L 40.838424 30.563563 
" clip-path="url(#p8c41903e86)" style="fill: none; stroke: #8f0da4; stroke-width: 0.7"/>
    <path d="M 24.991986 30.311881 
L 24.991986 29.614828 
" clip-path="url(#p8c41903e86)" style="fill: none; stroke: #8f0da4; stroke-width: 0.7"/>
   </g>
   <g id="line2d_15">
    <path d="M 167.609933 43.29026 
L 151.763495 41.863785 
L 135.917056 40.437311 
L 120.070618 39.010836 
L 104.224179 37.584361 
L 88.37774 36.157886 
L 72.531302 34.731412 
L 56.684863 33.304937 
L 40.838424 31.878462 
L 24.991986 30.451988 
L 20.452316 30.043333 
" clip-path="url(#p8c41903e86)" style="fill: none; stroke-dasharray: 2.96,1.28; stroke-dashoffset: 0; stroke: #8f0da4; stroke-opacity: 0.7; stroke-width: 0.8"/>
   </g>
   <g id="line2d_16">
    <path d="M 167.609933 42.426202 
L 166.169348 42.283555 
L 164.728763 42.283555 
L 163.288177 42.140907 
L 161.847592 41.99826 
L 160.407007 41.99826 
L 158.966421 41.855612 
L 157.525836 41.855612 
L 156.085251 41.712965 
L 154.644666 41.712965 
L 153.20408 41.570317 
L 151.763495 41.570317 
L 150.32291 41.42767 
L 148.882324 41.42767 
L 147.441739 41.285022 
L 146.001154 41.285022 
L 144.560568 41.142375 
L 143.119983 41.142375 
L 141.679398 40.999727 
L 140.238812 40.999727 
L 138.798227 40.85708 
L 137.357642 40.85708 
L 135.917056 40.714432 
L 134.476471 40.714432 
L 133.035886 40.571785 
L 131.5953 40.571785 
L 130.154715 40.429138 
L 128.71413 40.429138 
L 127.273544 40.28649 
L 125.832959 40.28649 
L 124.392374 40.143843 
L 122.951788 40.001195 
L 121.511203 40.001195 
L 120.070618 39.858548 
L 118.630032 39.7159 
L 117.189447 39.7159 
L 115.748862 39.573253 
L 114.308276 39.430605 
L 112.867691 39.287958 
L 111.427106 39.14531 
L 109.98652 39.002663 
L 108.545935 38.860015 
L 107.10535 38.717368 
L 105.664764 38.57472 
L 104.224179 38.289425 
L 102.783594 38.146778 
L 101.343008 37.861483 
L 99.902423 37.576188 
L 98.461838 37.290893 
L 97.021252 37.005598 
L 95.580667 36.720303 
L 94.140082 36.435008 
L 92.699496 36.149713 
L 91.258911 35.864418 
L 89.818326 35.579123 
L 88.37774 35.436476 
L 86.937155 35.151181 
L 85.49657 35.008534 
L 84.055984 34.865886 
L 82.615399 34.723239 
L 81.174814 34.580591 
L 79.734228 34.437944 
L 78.293643 34.295296 
L 76.853058 34.152649 
L 75.412472 34.010001 
L 73.971887 34.010001 
L 72.531302 33.867354 
L 71.090716 33.724706 
L 69.650131 33.724706 
L 68.209546 33.582059 
L 66.76896 33.439411 
L 65.328375 33.439411 
L 63.88779 33.296764 
L 62.447204 33.296764 
L 61.006619 33.154116 
L 59.566034 33.154116 
L 58.125448 33.011469 
L 56.684863 33.011469 
L 55.244278 32.868822 
L 53.803692 32.868822 
L 52.363107 32.726174 
L 50.922522 32.726174 
L 49.481936 32.583527 
L 48.041351 32.583527 
L 46.600766 32.440879 
L 45.16018 32.440879 
L 43.719595 32.298232 
L 42.27901 32.298232 
L 40.838424 32.155584 
L 39.397839 32.155584 
L 37.957254 32.012937 
L 36.516669 32.012937 
L 35.076083 31.870289 
L 33.635498 31.870289 
L 32.194913 31.727642 
L 30.754327 31.727642 
L 29.313742 31.584994 
L 27.873157 31.442347 
L 26.432571 31.442347 
L 24.991986 31.299699 
" clip-path="url(#p8c41903e86)" style="fill: none; stroke: #8f0da4; stroke-opacity: 0.6; stroke-width: 0.6; stroke-linecap: square"/>
   </g>
   <g id="LineCollection_3">
    <path d="M 151.763495 54.665307 
L 151.763495 52.712778 
" clip-path="url(#p8c41903e86)" style="fill: none; stroke: #cc4778; stroke-width: 0.7"/>
    <path d="M 135.917056 52.744106 
L 135.917056 52.032535 
" clip-path="url(#p8c41903e86)" style="fill: none; stroke: #cc4778; stroke-width: 0.7"/>
    <path d="M 120.070618 51.221446 
L 120.070618 50.487357 
" clip-path="url(#p8c41903e86)" style="fill: none; stroke: #cc4778; stroke-width: 0.7"/>
    <path d="M 104.224179 50.98107 
L 104.224179 49.584762 
" clip-path="url(#p8c41903e86)" style="fill: none; stroke: #cc4778; stroke-width: 0.7"/>
    <path d="M 88.37774 50.890462 
L 88.37774 48.046237 
" clip-path="url(#p8c41903e86)" style="fill: none; stroke: #cc4778; stroke-width: 0.7"/>
    <path d="M 72.531302 47.493615 
L 72.531302 46.793619 
" clip-path="url(#p8c41903e86)" style="fill: none; stroke: #cc4778; stroke-width: 0.7"/>
    <path d="M 56.684863 46.514521 
L 56.684863 45.721592 
" clip-path="url(#p8c41903e86)" style="fill: none; stroke: #cc4778; stroke-width: 0.7"/>
    <path d="M 40.838424 45.817721 
L 40.838424 43.338921 
" clip-path="url(#p8c41903e86)" style="fill: none; stroke: #cc4778; stroke-width: 0.7"/>
    <path d="M 24.991986 43.792612 
L 24.991986 43.124888 
" clip-path="url(#p8c41903e86)" style="fill: none; stroke: #cc4778; stroke-width: 0.7"/>
   </g>
   <g id="line2d_17">
    <path d="M 167.609933 30.451988 
L 151.763495 29.025513 
L 135.917056 27.599038 
L 120.070618 26.172563 
L 104.224179 24.746089 
L 88.37774 23.319614 
L 72.531302 21.893139 
L 56.684863 20.466665 
L 40.838424 19.04019 
L 24.991986 17.613715 
L 20.452316 17.20506 
" clip-path="url(#p8c41903e86)" style="fill: none; stroke-dasharray: 2.96,1.28; stroke-dashoffset: 0; stroke: #41049d; stroke-opacity: 0.7; stroke-width: 0.8"/>
   </g>
   <g id="line2d_18">
    <path d="M 167.609933 31.299699 
L 166.169348 31.157052 
L 164.728763 31.157052 
L 163.288177 31.014404 
L 161.847592 30.871757 
L 160.407007 30.729109 
L 158.966421 30.586462 
L 157.525836 30.443814 
L 156.085251 30.301167 
L 154.644666 30.15852 
L 153.20408 30.015872 
L 151.763495 29.730577 
L 150.32291 29.58793 
L 148.882324 29.302635 
L 147.441739 29.01734 
L 146.001154 28.732045 
L 144.560568 28.44675 
L 143.119983 28.161455 
L 141.679398 27.87616 
L 140.238812 27.590865 
L 138.798227 27.30557 
L 137.357642 27.020275 
L 135.917056 26.877628 
L 134.476471 26.592333 
L 133.035886 26.449685 
L 131.5953 26.307038 
L 130.154715 26.16439 
L 128.71413 26.021743 
L 127.273544 25.879095 
L 125.832959 25.736448 
L 124.392374 25.5938 
L 122.951788 25.451153 
L 121.511203 25.451153 
L 120.070618 25.308505 
L 118.630032 25.165858 
L 117.189447 25.165858 
L 115.748862 25.023211 
L 114.308276 24.880563 
L 112.867691 24.880563 
L 111.427106 24.737916 
L 109.98652 24.737916 
L 108.545935 24.595268 
L 107.10535 24.595268 
L 105.664764 24.452621 
L 104.224179 24.452621 
L 102.783594 24.309973 
L 101.343008 24.309973 
L 99.902423 24.167326 
L 98.461838 24.167326 
L 97.021252 24.024678 
L 95.580667 24.024678 
L 94.140082 23.882031 
L 92.699496 23.882031 
L 91.258911 23.739383 
L 89.818326 23.739383 
L 88.37774 23.596736 
L 86.937155 23.596736 
L 85.49657 23.454088 
L 84.055984 23.454088 
L 82.615399 23.311441 
L 81.174814 23.311441 
L 79.734228 23.168793 
L 78.293643 23.168793 
L 76.853058 23.026146 
L 75.412472 22.883498 
L 73.971887 22.883498 
L 72.531302 22.740851 
L 71.090716 22.598203 
L 69.650131 22.598203 
L 68.209546 22.455556 
L 66.76896 22.312909 
L 65.328375 22.170261 
L 63.88779 22.027614 
L 62.447204 21.884966 
L 61.006619 21.742319 
L 59.566034 21.599671 
L 58.125448 21.457024 
L 56.684863 21.171729 
L 55.244278 21.029081 
L 53.803692 20.743786 
L 52.363107 20.458491 
L 50.922522 20.173196 
L 49.481936 19.887902 
L 48.041351 19.602607 
L 46.600766 19.317312 
L 45.16018 19.032017 
L 43.719595 18.746722 
L 42.27901 18.461427 
L 40.838424 18.318779 
L 39.397839 18.033484 
L 37.957254 17.890837 
L 36.516669 17.748189 
L 35.076083 17.605542 
L 33.635498 17.462894 
L 32.194913 17.320247 
L 30.754327 17.1776 
L 29.313742 17.034952 
L 27.873157 16.892305 
L 26.432571 16.892305 
L 24.991986 16.749657 
" clip-path="url(#p8c41903e86)" style="fill: none; stroke: #41049d; stroke-opacity: 0.6; stroke-width: 0.6; stroke-linecap: square"/>
   </g>
   <g id="LineCollection_4">
    <path d="M 151.763495 18.157829 
L 151.763495 16.840987 
" clip-path="url(#p8c41903e86)" style="fill: none; stroke: #f2844b; stroke-width: 0.7"/>
    <path d="M 135.917056 14.347878 
L 135.917056 12.910536 
" clip-path="url(#p8c41903e86)" style="fill: none; stroke: #f2844b; stroke-width: 0.7"/>
    <path d="M 120.070618 12.484138 
L 120.070618 11.837583 
" clip-path="url(#p8c41903e86)" style="fill: none; stroke: #f2844b; stroke-width: 0.7"/>
    <path d="M 104.224179 11.355815 
L 104.224179 10.419077 
" clip-path="url(#p8c41903e86)" style="fill: none; stroke: #f2844b; stroke-width: 0.7"/>
    <path d="M 88.37774 11.557419 
L 88.37774 6.647427 
" clip-path="url(#p8c41903e86)" style="fill: none; stroke: #f2844b; stroke-width: 0.7"/>
    <path d="M 72.531302 11.390751 
L 72.531302 10.613964 
" clip-path="url(#p8c41903e86)" style="fill: none; stroke: #f2844b; stroke-width: 0.7"/>
    <path d="M 56.684863 8.402759 
L 56.684863 6.892133 
" clip-path="url(#p8c41903e86)" style="fill: none; stroke: #f2844b; stroke-width: 0.7"/>
    <path d="M 40.838424 5.91514 
L 40.838424 3.637077 
" clip-path="url(#p8c41903e86)" style="fill: none; stroke: #f2844b; stroke-width: 0.7"/>
    <path d="M 24.991986 4.269957 
L 24.991986 3.100406 
" clip-path="url(#p8c41903e86)" style="fill: none; stroke: #f2844b; stroke-width: 0.7"/>
   </g>
   <g id="line2d_19">
    <path d="M 167.609933 17.613715 
L 151.763495 16.18724 
L 135.917056 14.760766 
L 120.070618 13.334291 
L 104.224179 11.907816 
L 88.37774 10.481341 
L 72.531302 9.054867 
L 56.684863 7.628392 
L 40.838424 6.201917 
L 24.991986 4.775443 
L 20.452316 4.366788 
" clip-path="url(#p8c41903e86)" style="fill: none; stroke-dasharray: 2.96,1.28; stroke-dashoffset: 0; stroke: #f2844b; stroke-opacity: 0.7; stroke-width: 0.8"/>
   </g>
   <g id="line2d_20">
    <path d="M 167.609933 16.749657 
L 166.169348 16.60701 
L 164.728763 16.60701 
L 163.288177 16.464362 
L 161.847592 16.321715 
L 160.407007 16.321715 
L 158.966421 16.179067 
L 157.525836 16.179067 
L 156.085251 16.03642 
L 154.644666 16.03642 
L 153.20408 15.893772 
L 151.763495 15.893772 
L 150.32291 15.751125 
L 148.882324 15.751125 
L 147.441739 15.608477 
L 146.001154 15.608477 
L 144.560568 15.46583 
L 143.119983 15.46583 
L 141.679398 15.323182 
L 140.238812 15.323182 
L 138.798227 15.180535 
L 137.357642 15.180535 
L 135.917056 15.037887 
L 134.476471 15.037887 
L 133.035886 14.89524 
L 131.5953 14.89524 
L 130.154715 14.752593 
L 128.71413 14.752593 
L 127.273544 14.609945 
L 125.832959 14.609945 
L 124.392374 14.467298 
L 122.951788 14.32465 
L 121.511203 14.32465 
L 120.070618 14.182003 
L 118.630032 14.039355 
L 117.189447 14.039355 
L 115.748862 13.896708 
L 114.308276 13.75406 
L 112.867691 13.611413 
L 111.427106 13.468765 
L 109.98652 13.326118 
L 108.545935 13.18347 
L 107.10535 13.040823 
L 105.664764 12.898175 
L 104.224179 12.61288 
L 102.783594 12.470233 
L 101.343008 12.184938 
L 99.902423 11.899643 
L 98.461838 11.614348 
L 97.021252 11.329053 
L 95.580667 11.043758 
L 94.140082 10.758463 
L 92.699496 10.473168 
L 91.258911 10.187873 
L 89.818326 9.902578 
L 88.37774 9.759931 
L 86.937155 9.474636 
L 85.49657 9.331989 
L 84.055984 9.189341 
L 82.615399 9.046694 
L 81.174814 8.904046 
L 79.734228 8.761399 
L 78.293643 8.618751 
L 76.853058 8.476104 
L 75.412472 8.333456 
L 73.971887 8.333456 
L 72.531302 8.190809 
L 71.090716 8.048161 
L 69.650131 8.048161 
L 68.209546 7.905514 
L 66.76896 7.762866 
L 65.328375 7.762866 
L 63.88779 7.620219 
L 62.447204 7.620219 
L 61.006619 7.477571 
L 59.566034 7.477571 
L 58.125448 7.334924 
L 56.684863 7.334924 
L 55.244278 7.192276 
L 53.803692 7.192276 
L 52.363107 7.049629 
L 50.922522 7.049629 
L 49.481936 6.906982 
L 48.041351 6.906982 
L 46.600766 6.764334 
L 45.16018 6.764334 
L 43.719595 6.621687 
L 42.27901 6.621687 
L 40.838424 6.479039 
L 39.397839 6.479039 
L 37.957254 6.336392 
L 36.516669 6.336392 
L 35.076083 6.193744 
L 33.635498 6.193744 
L 32.194913 6.051097 
L 30.754327 6.051097 
L 29.313742 5.908449 
L 27.873157 5.765802 
L 26.432571 5.765802 
L 24.991986 5.623154 
" clip-path="url(#p8c41903e86)" style="fill: none; stroke: #f2844b; stroke-opacity: 0.6; stroke-width: 0.6; stroke-linecap: square"/>
   </g>
   <g id="line2d_21">
    <path d="M 122.230618 61.869529 
L 117.910618 55.05271 
" style="fill: none; stroke: #444444; stroke-width: 1.5; stroke-linecap: square"/>
   </g>
   <g id="line2d_22">
    <path d="M 87.62758 62.33702 
L 89.1279 54.58522 
" style="fill: none; stroke: #444444; stroke-width: 1.5; stroke-linecap: square"/>
   </g>
   <g id="line2d_23">
    <path d="M 53.375551 60.990934 
L 59.994175 55.931306 
" style="fill: none; stroke: #444444; stroke-width: 1.5; stroke-linecap: square"/>
   </g>
   <g id="line2d_24">
    <path d="M 20.671986 58.46112 
L 29.311986 58.46112 
" style="fill: none; stroke: #444444; stroke-width: 1.5; stroke-linecap: square"/>
   </g>
   <g id="line2d_25"/>
   <g id="line2d_26"/>
   <g id="line2d_27"/>
   <g id="line2d_28"/>
   <g id="patch_3">
    <path d="M 18.18248 68.208933 
L 18.18248 0 
" style="fill: none; stroke: #000000; stroke-width: 0.8; stroke-linejoin: miter; stroke-linecap: square"/>
   </g>
   <g id="patch_4">
    <path d="M 169.879769 68.208933 
L 169.879769 0 
" style="fill: none; stroke: #000000; stroke-width: 0.8; stroke-linejoin: miter; stroke-linecap: square"/>
   </g>
   <g id="patch_5">
    <path d="M 18.18248 68.208933 
L 169.879769 68.208933 
" style="fill: none; stroke: #000000; stroke-width: 0.8; stroke-linejoin: miter; stroke-linecap: square"/>
   </g>
   <g id="patch_6">
    <path d="M 18.18248 0 
L 169.879769 0 
" style="fill: none; stroke: #000000; stroke-width: 0.8; stroke-linejoin: miter; stroke-linecap: square"/>
   </g>
   <g id="patch_7">
    <path d="M 123.401764 63.71756 
Q 120.070618 58.46112 116.739471 53.20468 
" style="fill: none"/>
    <path d="M 122.949945 59.268306 
L 123.401764 63.71756 
L 119.571269 61.409463 
z
" style="fill: #444444"/>
    <path d="M 117.19129 57.653934 
L 116.739471 53.20468 
L 120.569966 55.512777 
z
" style="fill: #444444"/>
   </g>
   <g id="patch_8">
    <path d="M 87.224295 64.420697 
Q 88.37774 58.46112 89.531185 52.501543 
" style="fill: none"/>
    <path d="M 89.94793 60.873612 
L 87.224295 64.420697 
L 86.020808 60.113538 
z
" style="fill: #444444"/>
    <path d="M 86.80755 56.048628 
L 89.531185 52.501543 
L 90.734672 56.808702 
z
" style="fill: #444444"/>
   </g>
   <g id="patch_9">
    <path d="M 51.559738 62.379038 
Q 56.684863 58.46112 61.809989 54.543201 
" style="fill: none"/>
    <path d="M 55.952203 61.538654 
L 51.559738 62.379038 
L 53.52291 58.360835 
z
" style="fill: #444444"/>
    <path d="M 57.417523 55.383586 
L 61.809989 54.543201 
L 59.846817 58.561404 
z
" style="fill: #444444"/>
   </g>
   <g id="patch_10">
    <path d="M 18.270511 58.46112 
Q 24.991986 58.46112 31.71346 58.46112 
" style="fill: none"/>
    <path d="M 22.270511 60.46112 
L 18.270511 58.46112 
L 22.270511 56.46112 
z
" style="fill: #444444"/>
    <path d="M 27.71346 56.46112 
L 31.71346 58.46112 
L 27.71346 60.46112 
z
" style="fill: #444444"/>
   </g>
  </g>
 </g>
 <defs>
  <clipPath id="p8c41903e86">
   <rect x="18.18248" y="0" width="151.697288" height="68.208933"/>
  </clipPath>
 </defs>
</svg>
