<?xml version="1.0" encoding="utf-8" standalone="no"?>
<!DOCTYPE svg PUBLIC "-//W3C//DTD SVG 1.1//EN"
  "http://www.w3.org/Graphics/SVG/1.1/DTD/svg11.dtd">
<svg xmlns:xlink="http://www.w3.org/1999/xlink" width="216pt" height="108pt" viewBox="0 0 216 108" xmlns="http://www.w3.org/2000/svg" version="1.1">
 <metadata>
  <rdf:RDF xmlns:dc="http://purl.org/dc/elements/1.1/" xmlns:cc="http://creativecommons.org/ns#" xmlns:rdf="http://www.w3.org/1999/02/22-rdf-syntax-ns#">
   <cc:Work>
    <dc:type rdf:resource="http://purl.org/dc/dcmitype/StillImage"/>
    <dc:date>2026-02-25T15:03:30.727615</dc:date>
    <dc:format>image/svg+xml</dc:format>
    <dc:creator>
     <cc:Agent>
      <dc:title>Matplotlib v3.7.2, https://matplotlib.org/</dc:title>
     </cc:Agent>
    </dc:creator>
   </cc:Work>
  </rdf:RDF>
 </metadata>
 <defs>
  <style type="text/css">*{stroke-linejoin: round; stroke-linecap: butt}</style>
 </defs>
 <g id="figure_1">
  <g id="patch_1">
   <path d="M 0 108 
L 216 108 
L 216 0 
L 0 0 
L 0 108 
z
" style="fill: none"/>
  </g>
  <g id="axes_1">
   <g id="patch_2">
    <path d="M 28.02377 81.964812 
L 215.202919 81.964812 
L 215.202919 0 
L 28.02377 0 
z
" style="fill: #ffffff"/>
   </g>
   <g id="matplotlib.axis_1">
    <g id="xtick_1">
     <g id="line2d_1">
      <defs>
       <path id="ma50e284dad" d="M 0 0 
L 0 -3 
" style="stroke: #000000"/>
      </defs>
      <g>
       <use xlink:href="#ma50e284dad" x="36.426012" y="81.964812" style="stroke: #000000"/>
      </g>
     </g>
     <g id="line2d_2">
      <defs>
       <path id="mdd00b393e6" d="M 0 0 
L 0 3 
" style="stroke: #000000"/>
      </defs>
      <g>
       <use xlink:href="#mdd00b393e6" x="36.426012" y="0" style="stroke: #000000"/>
      </g>
     </g>
     <g id="text_1">
      <!-- $0$ -->
      <g transform="translate(33.676012 92.338406) scale(0.11 -0.11)">
       <defs>
        <path id="Cmr10-30" d="M 1600 -141 
Q 816 -141 533 504 
Q 250 1150 250 2041 
Q 250 2597 351 3087 
Q 453 3578 754 3920 
Q 1056 4263 1600 4263 
Q 2022 4263 2290 4056 
Q 2559 3850 2700 3523 
Q 2841 3197 2892 2823 
Q 2944 2450 2944 2041 
Q 2944 1491 2842 1011 
Q 2741 531 2444 195 
Q 2147 -141 1600 -141 
z
M 1600 25 
Q 1956 25 2131 390 
Q 2306 756 2347 1200 
Q 2388 1644 2388 2144 
Q 2388 2625 2347 3031 
Q 2306 3438 2132 3767 
Q 1959 4097 1600 4097 
Q 1238 4097 1063 3765 
Q 888 3434 847 3029 
Q 806 2625 806 2144 
Q 806 1788 823 1472 
Q 841 1156 916 820 
Q 991 484 1158 254 
Q 1325 25 1600 25 
z
" transform="scale(0.015625)"/>
       </defs>
       <use xlink:href="#Cmr10-30" transform="translate(0 0.390625)"/>
      </g>
     </g>
    </g>
    <g id="xtick_2">
     <g id="line2d_3">
      <g>
       <use xlink:href="#ma50e284dad" x="124.414092" y="81.964812" style="stroke: #000000"/>
      </g>
     </g>
     <g id="line2d_4">
      <g>
       <use xlink:href="#mdd00b393e6" x="124.414092" y="0" style="stroke: #000000"/>
      </g>
     </g>
     <g id="text_2">
      <!-- $\pi/2$ -->
      <g transform="translate(115.779092 92.714812) scale(0.11 -0.11)">
       <defs>
        <path id="Cmmi10-bc" d="M 647 109 
Q 647 144 672 213 
Q 850 584 1004 942 
Q 1159 1300 1282 1639 
Q 1406 1978 1509 2363 
L 1100 2363 
Q 866 2363 662 2216 
Q 459 2069 325 1844 
Q 313 1819 288 1819 
L 213 1819 
Q 153 1819 153 1881 
Q 153 1894 166 1919 
Q 375 2275 614 2517 
Q 853 2759 1153 2759 
L 3475 2759 
Q 3541 2759 3587 2715 
Q 3634 2672 3634 2597 
Q 3634 2503 3567 2433 
Q 3500 2363 3406 2363 
L 2591 2363 
Q 2488 1859 2478 1381 
Q 2478 766 2694 269 
Q 2713 231 2713 191 
Q 2713 122 2672 62 
Q 2631 3 2567 -34 
Q 2503 -72 2431 -72 
Q 2263 -72 2200 203 
Q 2138 478 2138 738 
Q 2138 1103 2200 1442 
Q 2263 1781 2400 2363 
L 1703 2363 
Q 1197 313 1094 103 
Q 1003 -72 844 -72 
Q 766 -72 706 -20 
Q 647 31 647 109 
z
" transform="scale(0.015625)"/>
        <path id="Cmmi10-3d" d="M 359 -1472 
Q 359 -1453 366 -1447 
L 2591 4722 
Q 2603 4759 2634 4779 
Q 2666 4800 2706 4800 
Q 2763 4800 2798 4765 
Q 2834 4731 2834 4672 
L 2834 4647 
L 609 -1522 
Q 572 -1600 488 -1600 
Q 434 -1600 396 -1562 
Q 359 -1525 359 -1472 
z
" transform="scale(0.015625)"/>
        <path id="Cmr10-32" d="M 319 0 
L 319 172 
Q 319 188 331 206 
L 1325 1306 
Q 1550 1550 1690 1715 
Q 1831 1881 1968 2097 
Q 2106 2313 2186 2536 
Q 2266 2759 2266 3009 
Q 2266 3272 2169 3511 
Q 2072 3750 1880 3894 
Q 1688 4038 1416 4038 
Q 1138 4038 916 3870 
Q 694 3703 603 3438 
Q 628 3444 672 3444 
Q 816 3444 917 3347 
Q 1019 3250 1019 3097 
Q 1019 2950 917 2848 
Q 816 2747 672 2747 
Q 522 2747 420 2851 
Q 319 2956 319 3097 
Q 319 3338 409 3548 
Q 500 3759 670 3923 
Q 841 4088 1055 4175 
Q 1269 4263 1509 4263 
Q 1875 4263 2190 4108 
Q 2506 3953 2690 3670 
Q 2875 3388 2875 3009 
Q 2875 2731 2753 2481 
Q 2631 2231 2440 2026 
Q 2250 1822 1953 1562 
Q 1656 1303 1563 1216 
L 838 519 
L 1453 519 
Q 1906 519 2211 526 
Q 2516 534 2534 550 
Q 2609 631 2688 1141 
L 2875 1141 
L 2694 0 
L 319 0 
z
" transform="scale(0.015625)"/>
       </defs>
       <use xlink:href="#Cmmi10-bc"/>
       <use xlink:href="#Cmmi10-3d" transform="translate(56.982422 0)"/>
       <use xlink:href="#Cmr10-32" transform="translate(106.982422 0)"/>
      </g>
     </g>
    </g>
    <g id="xtick_3">
     <g id="line2d_5">
      <g>
       <use xlink:href="#ma50e284dad" x="212.402171" y="81.964812" style="stroke: #000000"/>
      </g>
     </g>
     <g id="line2d_6">
      <g>
       <use xlink:href="#mdd00b393e6" x="212.402171" y="0" style="stroke: #000000"/>
      </g>
     </g>
     <g id="text_3">
      <!-- $\pi$ -->
      <g transform="translate(209.267171 92.338406) scale(0.11 -0.11)">
       <use xlink:href="#Cmmi10-bc" transform="translate(0 0.890625)"/>
      </g>
     </g>
    </g>
    <g id="text_4">
     <!-- $\theta_{PM}$ -->
     <g transform="translate(110.758344 104.769969) scale(0.13 -0.13)">
      <defs>
       <path id="Cmmi10-b5" d="M 1031 -72 
Q 741 -72 566 140 
Q 391 353 323 653 
Q 256 953 256 1247 
L 256 1253 
Q 256 1572 317 1915 
Q 378 2259 493 2601 
Q 609 2944 744 3213 
Q 838 3400 986 3631 
Q 1134 3863 1317 4064 
Q 1500 4266 1711 4389 
Q 1922 4513 2138 4513 
L 2144 4513 
Q 2375 4513 2529 4384 
Q 2684 4256 2770 4056 
Q 2856 3856 2890 3628 
Q 2925 3400 2925 3194 
Q 2925 2709 2794 2204 
Q 2663 1700 2431 1228 
Q 2344 1050 2189 809 
Q 2034 569 1861 378 
Q 1688 188 1472 58 
Q 1256 -72 1038 -72 
L 1031 -72 
z
M 1044 97 
Q 1256 97 1451 323 
Q 1647 550 1794 873 
Q 1941 1197 2052 1536 
Q 2163 1875 2216 2113 
L 909 2113 
Q 809 1709 753 1417 
Q 697 1125 697 844 
Q 697 97 1044 97 
z
M 959 2338 
L 2272 2338 
Q 2341 2619 2381 2808 
Q 2422 2997 2450 3206 
Q 2478 3416 2478 3597 
Q 2478 4347 2138 4347 
Q 1731 4347 1436 3692 
Q 1141 3038 959 2338 
z
" transform="scale(0.015625)"/>
       <path id="Cmmi10-50" d="M 313 0 
Q 250 0 250 84 
Q 253 100 262 139 
Q 272 178 289 201 
Q 306 225 331 225 
Q 722 225 878 269 
Q 959 297 997 441 
L 1875 3956 
Q 1888 4019 1888 4044 
Q 1888 4113 1813 4122 
Q 1691 4147 1350 4147 
Q 1288 4147 1288 4231 
Q 1291 4247 1300 4286 
Q 1309 4325 1326 4348 
Q 1344 4372 1369 4372 
L 3578 4372 
Q 3881 4372 4165 4264 
Q 4450 4156 4631 3934 
Q 4813 3713 4813 3397 
Q 4813 2991 4527 2672 
Q 4241 2353 3814 2175 
Q 3388 1997 2988 1997 
L 1947 1997 
L 1556 416 
Q 1544 353 1544 325 
Q 1544 300 1551 283 
Q 1559 266 1573 261 
Q 1588 256 1619 250 
Q 1741 225 2081 225 
Q 2144 225 2144 141 
Q 2122 50 2109 25 
Q 2097 0 2034 0 
L 313 0 
z
M 1978 2188 
L 2875 2188 
Q 3497 2188 3822 2522 
Q 3988 2688 4092 3000 
Q 4197 3313 4197 3566 
Q 4197 3881 3956 4014 
Q 3716 4147 3359 4147 
L 2747 4147 
Q 2572 4147 2515 4117 
Q 2459 4088 2413 3928 
L 1978 2188 
z
" transform="scale(0.015625)"/>
       <path id="Cmmi10-4d" d="M 325 0 
Q 263 0 263 84 
Q 266 100 275 137 
Q 284 175 300 200 
Q 316 225 347 225 
Q 956 225 1056 616 
L 1888 3956 
Q 1900 4019 1900 4044 
Q 1900 4113 1825 4122 
Q 1703 4147 1363 4147 
Q 1300 4147 1300 4231 
Q 1303 4247 1312 4286 
Q 1322 4325 1339 4348 
Q 1356 4372 1381 4372 
L 2509 4372 
Q 2581 4372 2591 4300 
L 3091 634 
L 5422 4300 
Q 5466 4372 5544 4372 
L 6631 4372 
Q 6694 4372 6694 4288 
Q 6691 4272 6681 4233 
Q 6672 4194 6655 4170 
Q 6638 4147 6613 4147 
Q 6222 4147 6069 4103 
Q 5984 4075 5947 3928 
L 5069 416 
Q 5056 353 5056 325 
Q 5056 300 5064 283 
Q 5072 266 5086 261 
Q 5100 256 5131 250 
Q 5253 225 5594 225 
Q 5656 225 5656 141 
Q 5634 50 5621 25 
Q 5609 0 5550 0 
L 3878 0 
Q 3816 0 3816 84 
Q 3819 100 3828 139 
Q 3838 178 3855 201 
Q 3872 225 3897 225 
Q 4288 225 4441 269 
Q 4525 297 4563 441 
L 5484 4147 
L 2900 72 
Q 2863 0 2772 0 
Q 2691 0 2681 72 
L 2138 4097 
L 1259 588 
Q 1253 572 1250 548 
Q 1247 525 1241 494 
Q 1241 328 1386 276 
Q 1531 225 1741 225 
Q 1806 225 1806 141 
Q 1784 56 1770 28 
Q 1756 0 1697 0 
L 325 0 
z
" transform="scale(0.015625)"/>
      </defs>
      <use xlink:href="#Cmmi10-b5" transform="translate(0 0.484375)"/>
      <use xlink:href="#Cmmi10-50" transform="translate(46.923828 -16.521875) scale(0.7)"/>
      <use xlink:href="#Cmmi10-4d" transform="translate(91.870117 -16.521875) scale(0.7)"/>
     </g>
    </g>
   </g>
   <g id="matplotlib.axis_2">
    <g id="ytick_1">
     <g id="line2d_7">
      <defs>
       <path id="ma555d0cc09" d="M 0 0 
L 3 0 
" style="stroke: #000000"/>
      </defs>
      <g>
       <use xlink:href="#ma555d0cc09" x="28.02377" y="76.452609" style="stroke: #000000"/>
      </g>
     </g>
     <g id="line2d_8">
      <defs>
       <path id="m8b32d90bfb" d="M 0 0 
L -3 0 
" style="stroke: #000000"/>
      </defs>
      <g>
       <use xlink:href="#m8b32d90bfb" x="215.202919" y="76.452609" style="stroke: #000000"/>
      </g>
     </g>
     <g id="text_5">
      <!-- $0$ -->
      <g transform="translate(19.02377 80.389406) scale(0.11 -0.11)">
       <use xlink:href="#Cmr10-30" transform="translate(0 0.390625)"/>
      </g>
     </g>
    </g>
    <g id="ytick_2">
     <g id="line2d_9">
      <g>
       <use xlink:href="#ma555d0cc09" x="28.02377" y="45.155432" style="stroke: #000000"/>
      </g>
     </g>
     <g id="line2d_10">
      <g>
       <use xlink:href="#m8b32d90bfb" x="215.202919" y="45.155432" style="stroke: #000000"/>
      </g>
     </g>
     <g id="text_6">
      <!-- $\pi$ -->
      <g transform="translate(18.25377 49.092229) scale(0.11 -0.11)">
       <use xlink:href="#Cmmi10-bc" transform="translate(0 0.890625)"/>
      </g>
     </g>
    </g>
    <g id="ytick_3">
     <g id="line2d_11">
      <g>
       <use xlink:href="#ma555d0cc09" x="28.02377" y="13.858255" style="stroke: #000000"/>
      </g>
     </g>
     <g id="line2d_12">
      <g>
       <use xlink:href="#m8b32d90bfb" x="215.202919" y="13.858255" style="stroke: #000000"/>
      </g>
     </g>
     <g id="text_7">
      <!-- $2 \pi$ -->
      <g transform="translate(12.75377 17.795052) scale(0.11 -0.11)">
       <use xlink:href="#Cmr10-32" transform="translate(0 0.390625)"/>
       <use xlink:href="#Cmmi10-bc" transform="translate(50 0.390625)"/>
      </g>
     </g>
    </g>
    <g id="text_8">
     <!-- $\phi$ -->
     <g transform="translate(10.02377 44.882406) rotate(-90) scale(0.13 -0.13)">
      <defs>
       <path id="Cmmi10-c1" d="M 1241 -1247 
L 1528 -91 
Q 1203 -91 922 61 
Q 641 213 470 484 
Q 300 756 300 1075 
Q 300 1422 472 1737 
Q 644 2053 942 2311 
Q 1241 2569 1584 2708 
Q 1928 2847 2266 2847 
L 2650 4403 
Q 2663 4441 2700 4441 
L 2778 4441 
Q 2803 4441 2818 4419 
Q 2834 4397 2834 4378 
L 2450 2847 
Q 2691 2847 2916 2759 
Q 3141 2672 3314 2514 
Q 3488 2356 3584 2142 
Q 3681 1928 3681 1684 
Q 3681 1338 3509 1022 
Q 3338 706 3047 453 
Q 2756 200 2398 54 
Q 2041 -91 1716 -91 
L 1422 -1275 
Q 1409 -1313 1369 -1313 
L 1294 -1313 
Q 1269 -1313 1255 -1289 
Q 1241 -1266 1241 -1247 
z
M 1569 78 
L 2222 2681 
Q 2059 2681 1881 2615 
Q 1703 2550 1545 2450 
Q 1388 2350 1259 2222 
Q 1103 2066 984 1853 
Q 866 1641 805 1405 
Q 744 1169 744 941 
Q 744 700 847 503 
Q 950 306 1137 192 
Q 1325 78 1569 78 
z
M 1759 78 
Q 2000 78 2272 215 
Q 2544 353 2719 538 
Q 2959 775 3098 1120 
Q 3238 1466 3238 1819 
Q 3238 2056 3134 2254 
Q 3031 2453 2843 2567 
Q 2656 2681 2413 2681 
L 1759 78 
z
" transform="scale(0.015625)"/>
      </defs>
      <use xlink:href="#Cmmi10-c1" transform="translate(0 0.609375)"/>
     </g>
    </g>
   </g>
   <g id="PathCollection_1">
    <defs>
     <path id="C0_0_9929601262" d="M 0 1.936492 
C 0.513564 1.936492 1.006162 1.732451 1.369306 1.369306 
C 1.732451 1.006162 1.936492 0.513564 1.936492 -0 
C 1.936492 -0.513564 1.732451 -1.006162 1.369306 -1.369306 
C 1.006162 -1.732451 0.513564 -1.936492 0 -1.936492 
C -0.513564 -1.936492 -1.006162 -1.732451 -1.369306 -1.369306 
C -1.732451 -1.006162 -1.936492 -0.513564 -1.936492 0 
C -1.936492 0.513564 -1.732451 1.006162 -1.369306 1.369306 
C -1.006162 1.732451 -0.513564 1.936492 0 1.936492 
z
"/>
    </defs>
    <g clip-path="url(#p9dada8c3c3)">
     <use xlink:href="#C0_0_9929601262" x="192.849265" y="35.953048" style="fill: #41049d"/>
    </g>
    <g clip-path="url(#p9dada8c3c3)">
     <use xlink:href="#C0_0_9929601262" x="173.296358" y="34.007592" style="fill: #41049d"/>
    </g>
    <g clip-path="url(#p9dada8c3c3)">
     <use xlink:href="#C0_0_9929601262" x="153.743451" y="32.238602" style="fill: #41049d"/>
    </g>
    <g clip-path="url(#p9dada8c3c3)">
     <use xlink:href="#C0_0_9929601262" x="134.190545" y="31.743011" style="fill: #41049d"/>
    </g>
    <g clip-path="url(#p9dada8c3c3)">
     <use xlink:href="#C0_0_9929601262" x="114.637638" y="27.420363" style="fill: #41049d"/>
    </g>
    <g clip-path="url(#p9dada8c3c3)">
     <use xlink:href="#C0_0_9929601262" x="95.084732" y="26.610619" style="fill: #41049d"/>
    </g>
    <g clip-path="url(#p9dada8c3c3)">
     <use xlink:href="#C0_0_9929601262" x="75.531825" y="25.44731" style="fill: #41049d"/>
    </g>
    <g clip-path="url(#p9dada8c3c3)">
     <use xlink:href="#C0_0_9929601262" x="55.978919" y="24.133524" style="fill: #41049d"/>
    </g>
    <g clip-path="url(#p9dada8c3c3)">
     <use xlink:href="#C0_0_9929601262" x="36.426012" y="23.497794" style="fill: #41049d"/>
    </g>
   </g>
   <g id="PathCollection_2">
    <defs>
     <path id="C1_0_ae550589eb" d="M 0 1.936492 
C 0.513564 1.936492 1.006162 1.732451 1.369306 1.369306 
C 1.732451 1.006162 1.936492 0.513564 1.936492 -0 
C 1.936492 -0.513564 1.732451 -1.006162 1.369306 -1.369306 
C 1.006162 -1.732451 0.513564 -1.936492 0 -1.936492 
C -0.513564 -1.936492 -1.006162 -1.732451 -1.369306 -1.369306 
C -1.732451 -1.006162 -1.936492 -0.513564 -1.936492 0 
C -1.936492 0.513564 -1.732451 1.006162 -1.369306 1.369306 
C -1.006162 1.732451 -0.513564 1.936492 0 1.936492 
z
"/>
    </defs>
    <g clip-path="url(#p9dada8c3c3)">
     <use xlink:href="#C1_0_ae550589eb" x="192.849265" y="50.486995" style="fill: #8f0da4"/>
    </g>
    <g clip-path="url(#p9dada8c3c3)">
     <use xlink:href="#C1_0_ae550589eb" x="173.296358" y="49.460553" style="fill: #8f0da4"/>
    </g>
    <g clip-path="url(#p9dada8c3c3)">
     <use xlink:href="#C1_0_ae550589eb" x="153.743451" y="47.398366" style="fill: #8f0da4"/>
    </g>
    <g clip-path="url(#p9dada8c3c3)">
     <use xlink:href="#C1_0_ae550589eb" x="134.190545" y="45.341959" style="fill: #8f0da4"/>
    </g>
    <g clip-path="url(#p9dada8c3c3)">
     <use xlink:href="#C1_0_ae550589eb" x="114.637638" y="45.828302" style="fill: #8f0da4"/>
    </g>
    <g clip-path="url(#p9dada8c3c3)">
     <use xlink:href="#C1_0_ae550589eb" x="95.084732" y="42.09859" style="fill: #8f0da4"/>
    </g>
    <g clip-path="url(#p9dada8c3c3)">
     <use xlink:href="#C1_0_ae550589eb" x="75.531825" y="41.14615" style="fill: #8f0da4"/>
    </g>
    <g clip-path="url(#p9dada8c3c3)">
     <use xlink:href="#C1_0_ae550589eb" x="55.978919" y="38.887253" style="fill: #8f0da4"/>
    </g>
    <g clip-path="url(#p9dada8c3c3)">
     <use xlink:href="#C1_0_ae550589eb" x="36.426012" y="36.803071" style="fill: #8f0da4"/>
    </g>
   </g>
   <g id="PathCollection_3">
    <defs>
     <path id="C2_0_31ac15c87e" d="M 0 1.936492 
C 0.513564 1.936492 1.006162 1.732451 1.369306 1.369306 
C 1.732451 1.006162 1.936492 0.513564 1.936492 -0 
C 1.936492 -0.513564 1.732451 -1.006162 1.369306 -1.369306 
C 1.006162 -1.732451 0.513564 -1.936492 0 -1.936492 
C -0.513564 -1.936492 -1.006162 -1.732451 -1.369306 -1.369306 
C -1.732451 -1.006162 -1.936492 -0.513564 -1.936492 0 
C -1.936492 0.513564 -1.732451 1.006162 -1.369306 1.369306 
C -1.006162 1.732451 -0.513564 1.936492 0 1.936492 
z
"/>
    </defs>
    <g clip-path="url(#p9dada8c3c3)">
     <use xlink:href="#C2_0_31ac15c87e" x="192.849265" y="65.529223" style="fill: #cc4778"/>
    </g>
    <g clip-path="url(#p9dada8c3c3)">
     <use xlink:href="#C2_0_31ac15c87e" x="173.296358" y="63.988368" style="fill: #cc4778"/>
    </g>
    <g clip-path="url(#p9dada8c3c3)">
     <use xlink:href="#C2_0_31ac15c87e" x="153.743451" y="62.288084" style="fill: #cc4778"/>
    </g>
    <g clip-path="url(#p9dada8c3c3)">
     <use xlink:href="#C2_0_31ac15c87e" x="134.190545" y="61.722361" style="fill: #cc4778"/>
    </g>
    <g clip-path="url(#p9dada8c3c3)">
     <use xlink:href="#C2_0_31ac15c87e" x="114.637638" y="60.320652" style="fill: #cc4778"/>
    </g>
    <g clip-path="url(#p9dada8c3c3)">
     <use xlink:href="#C2_0_31ac15c87e" x="95.084732" y="57.818485" style="fill: #cc4778"/>
    </g>
    <g clip-path="url(#p9dada8c3c3)">
     <use xlink:href="#C2_0_31ac15c87e" x="75.531825" y="56.626213" style="fill: #cc4778"/>
    </g>
    <g clip-path="url(#p9dada8c3c3)">
     <use xlink:href="#C2_0_31ac15c87e" x="55.978919" y="54.426625" style="fill: #cc4778"/>
    </g>
    <g clip-path="url(#p9dada8c3c3)">
     <use xlink:href="#C2_0_31ac15c87e" x="36.426012" y="53.182799" style="fill: #cc4778"/>
    </g>
   </g>
   <g id="PathCollection_4">
    <defs>
     <path id="C3_0_5e724e4df6" d="M 0 1.936492 
C 0.513564 1.936492 1.006162 1.732451 1.369306 1.369306 
C 1.732451 1.006162 1.936492 0.513564 1.936492 -0 
C 1.936492 -0.513564 1.732451 -1.006162 1.369306 -1.369306 
C 1.006162 -1.732451 0.513564 -1.936492 0 -1.936492 
C -0.513564 -1.936492 -1.006162 -1.732451 -1.369306 -1.369306 
C -1.732451 -1.006162 -1.936492 -0.513564 -1.936492 0 
C -1.936492 0.513564 -1.732451 1.006162 -1.369306 1.369306 
C -1.006162 1.732451 -0.513564 1.936492 0 1.936492 
z
"/>
    </defs>
    <g clip-path="url(#p9dada8c3c3)">
     <use xlink:href="#C3_0_5e724e4df6" x="192.849265" y="21.802445" style="fill: #f2844b"/>
    </g>
    <g clip-path="url(#p9dada8c3c3)">
     <use xlink:href="#C3_0_5e724e4df6" x="173.296358" y="16.895344" style="fill: #f2844b"/>
    </g>
    <g clip-path="url(#p9dada8c3c3)">
     <use xlink:href="#C3_0_5e724e4df6" x="153.743451" y="14.890767" style="fill: #f2844b"/>
    </g>
    <g clip-path="url(#p9dada8c3c3)">
     <use xlink:href="#C3_0_5e724e4df6" x="134.190545" y="13.134657" style="fill: #f2844b"/>
    </g>
    <g clip-path="url(#p9dada8c3c3)">
     <use xlink:href="#C3_0_5e724e4df6" x="114.637638" y="11.104762" style="fill: #f2844b"/>
    </g>
    <g clip-path="url(#p9dada8c3c3)">
     <use xlink:href="#C3_0_5e724e4df6" x="95.084732" y="13.444001" style="fill: #f2844b"/>
    </g>
    <g clip-path="url(#p9dada8c3c3)">
     <use xlink:href="#C3_0_5e724e4df6" x="75.531825" y="9.003091" style="fill: #f2844b"/>
    </g>
    <g clip-path="url(#p9dada8c3c3)">
     <use xlink:href="#C3_0_5e724e4df6" x="55.978919" y="6.433263" style="fill: #f2844b"/>
    </g>
    <g clip-path="url(#p9dada8c3c3)">
     <use xlink:href="#C3_0_5e724e4df6" x="36.426012" y="4.587552" style="fill: #f2844b"/>
    </g>
   </g>
   <g id="LineCollection_1">
    <path d="M 192.849265 36.665149 
L 192.849265 35.240947 
" clip-path="url(#p9dada8c3c3)" style="fill: none; stroke: #41049d; stroke-width: 0.7"/>
    <path d="M 173.296358 34.429304 
L 173.296358 33.585879 
" clip-path="url(#p9dada8c3c3)" style="fill: none; stroke: #41049d; stroke-width: 0.7"/>
    <path d="M 153.743451 32.823627 
L 153.743451 31.653577 
" clip-path="url(#p9dada8c3c3)" style="fill: none; stroke: #41049d; stroke-width: 0.7"/>
    <path d="M 134.190545 32.454083 
L 134.190545 31.031938 
" clip-path="url(#p9dada8c3c3)" style="fill: none; stroke: #41049d; stroke-width: 0.7"/>
    <path d="M 114.637638 30.826527 
L 114.637638 24.0142 
" clip-path="url(#p9dada8c3c3)" style="fill: none; stroke: #41049d; stroke-width: 0.7"/>
    <path d="M 95.084732 26.899775 
L 95.084732 26.321463 
" clip-path="url(#p9dada8c3c3)" style="fill: none; stroke: #41049d; stroke-width: 0.7"/>
    <path d="M 75.531825 25.909654 
L 75.531825 24.984966 
" clip-path="url(#p9dada8c3c3)" style="fill: none; stroke: #41049d; stroke-width: 0.7"/>
    <path d="M 55.978919 25.470691 
L 55.978919 22.796357 
" clip-path="url(#p9dada8c3c3)" style="fill: none; stroke: #41049d; stroke-width: 0.7"/>
    <path d="M 36.426012 23.957009 
L 36.426012 23.038579 
" clip-path="url(#p9dada8c3c3)" style="fill: none; stroke: #41049d; stroke-width: 0.7"/>
   </g>
   <g id="line2d_13">
    <path d="M 212.402171 68.628315 
L 192.849265 66.889583 
L 173.296358 65.150851 
L 153.743451 63.412119 
L 134.190545 61.673387 
L 114.637638 59.934655 
L 95.084732 58.195923 
L 75.531825 56.457191 
L 55.978919 54.718459 
L 36.426012 52.979727 
L 30.824517 52.481616 
" clip-path="url(#p9dada8c3c3)" style="fill: none; stroke-dasharray: 4.44,1.92; stroke-dashoffset: 0; stroke: #cc4778; stroke-opacity: 0.7; stroke-width: 1.2"/>
   </g>
   <g id="line2d_14">
    <path d="M 212.402171 69.661592 
L 210.624634 69.487719 
L 208.847097 69.487719 
L 207.06956 69.313846 
L 205.292023 69.139973 
L 203.514486 68.966099 
L 201.736949 68.792226 
L 199.959412 68.618353 
L 198.181875 68.44448 
L 196.404338 68.270606 
L 194.626801 68.096733 
L 192.849265 67.748987 
L 191.071728 67.575114 
L 189.294191 67.227367 
L 187.516654 66.879621 
L 185.739117 66.531874 
L 183.96158 66.184128 
L 182.184043 65.836382 
L 180.406506 65.488635 
L 178.628969 65.140889 
L 176.851432 64.793142 
L 175.073895 64.445396 
L 173.296358 64.271523 
L 171.518821 63.923776 
L 169.741284 63.749903 
L 167.963747 63.57603 
L 166.18621 63.402157 
L 164.408673 63.228284 
L 162.631136 63.05441 
L 160.853599 62.880537 
L 159.076062 62.706664 
L 157.298525 62.532791 
L 155.520988 62.532791 
L 153.743451 62.358917 
L 151.965914 62.185044 
L 150.188378 62.185044 
L 148.410841 62.011171 
L 146.633304 61.837298 
L 144.855767 61.837298 
L 143.07823 61.663425 
L 141.300693 61.663425 
L 139.523156 61.489551 
L 137.745619 61.489551 
L 135.968082 61.315678 
L 134.190545 61.315678 
L 132.413008 61.141805 
L 130.635471 61.141805 
L 128.857934 60.967932 
L 127.080397 60.967932 
L 125.30286 60.794059 
L 123.525323 60.794059 
L 121.747786 60.620185 
L 119.970249 60.620185 
L 118.192712 60.446312 
L 116.415175 60.446312 
L 114.637638 60.272439 
L 112.860101 60.272439 
L 111.082564 60.098566 
L 109.305027 60.098566 
L 107.527491 59.924693 
L 105.749954 59.924693 
L 103.972417 59.750819 
L 102.19488 59.750819 
L 100.417343 59.576946 
L 98.639806 59.403073 
L 96.862269 59.403073 
L 95.084732 59.2292 
L 93.307195 59.055327 
L 91.529658 59.055327 
L 89.752121 58.881453 
L 87.974584 58.70758 
L 86.197047 58.533707 
L 84.41951 58.359834 
L 82.641973 58.185961 
L 80.864436 58.012087 
L 79.086899 57.838214 
L 77.309362 57.664341 
L 75.531825 57.316594 
L 73.754288 57.142721 
L 71.976751 56.794975 
L 70.199214 56.447228 
L 68.421677 56.099482 
L 66.64414 55.751736 
L 64.866604 55.403989 
L 63.089067 55.056243 
L 61.31153 54.708496 
L 59.533993 54.36075 
L 57.756456 54.013004 
L 55.978919 53.83913 
L 54.201382 53.491384 
L 52.423845 53.317511 
L 50.646308 53.143638 
L 48.868771 52.969764 
L 47.091234 52.795891 
L 45.313697 52.622018 
L 43.53616 52.448145 
L 41.758623 52.274272 
L 39.981086 52.100398 
L 38.203549 52.100398 
L 36.426012 51.926525 
" clip-path="url(#p9dada8c3c3)" style="fill: none; stroke: #cc4778; stroke-opacity: 0.6; stroke-width: 0.8; stroke-linecap: square"/>
   </g>
   <g id="LineCollection_2">
    <path d="M 192.849265 52.545312 
L 192.849265 48.428679 
" clip-path="url(#p9dada8c3c3)" style="fill: none; stroke: #8f0da4; stroke-width: 0.7"/>
    <path d="M 173.296358 49.896699 
L 173.296358 49.024407 
" clip-path="url(#p9dada8c3c3)" style="fill: none; stroke: #8f0da4; stroke-width: 0.7"/>
    <path d="M 153.743451 47.753771 
L 153.743451 47.042962 
" clip-path="url(#p9dada8c3c3)" style="fill: none; stroke: #8f0da4; stroke-width: 0.7"/>
    <path d="M 134.190545 46.105524 
L 134.190545 44.578394 
" clip-path="url(#p9dada8c3c3)" style="fill: none; stroke: #8f0da4; stroke-width: 0.7"/>
    <path d="M 114.637638 50.291939 
L 114.637638 41.364664 
" clip-path="url(#p9dada8c3c3)" style="fill: none; stroke: #8f0da4; stroke-width: 0.7"/>
    <path d="M 95.084732 42.510828 
L 95.084732 41.686351 
" clip-path="url(#p9dada8c3c3)" style="fill: none; stroke: #8f0da4; stroke-width: 0.7"/>
    <path d="M 75.531825 41.709965 
L 75.531825 40.582335 
" clip-path="url(#p9dada8c3c3)" style="fill: none; stroke: #8f0da4; stroke-width: 0.7"/>
    <path d="M 55.978919 40.302345 
L 55.978919 37.472161 
" clip-path="url(#p9dada8c3c3)" style="fill: none; stroke: #8f0da4; stroke-width: 0.7"/>
    <path d="M 36.426012 37.275137 
L 36.426012 36.331006 
" clip-path="url(#p9dada8c3c3)" style="fill: none; stroke: #8f0da4; stroke-width: 0.7"/>
   </g>
   <g id="line2d_15">
    <path d="M 212.402171 52.979727 
L 192.849265 51.240994 
L 173.296358 49.502262 
L 153.743451 47.76353 
L 134.190545 46.024798 
L 114.637638 44.286066 
L 95.084732 42.547334 
L 75.531825 40.808602 
L 55.978919 39.06987 
L 36.426012 37.331138 
L 30.824517 36.833028 
" clip-path="url(#p9dada8c3c3)" style="fill: none; stroke-dasharray: 4.44,1.92; stroke-dashoffset: 0; stroke: #8f0da4; stroke-opacity: 0.7; stroke-width: 1.2"/>
   </g>
   <g id="line2d_16">
    <path d="M 212.402171 51.926525 
L 210.624634 51.752652 
L 208.847097 51.752652 
L 207.06956 51.578779 
L 205.292023 51.404905 
L 203.514486 51.404905 
L 201.736949 51.231032 
L 199.959412 51.231032 
L 198.181875 51.057159 
L 196.404338 51.057159 
L 194.626801 50.883286 
L 192.849265 50.883286 
L 191.071728 50.709413 
L 189.294191 50.709413 
L 187.516654 50.535539 
L 185.739117 50.535539 
L 183.96158 50.361666 
L 182.184043 50.361666 
L 180.406506 50.187793 
L 178.628969 50.187793 
L 176.851432 50.01392 
L 175.073895 50.01392 
L 173.296358 49.840047 
L 171.518821 49.840047 
L 169.741284 49.666173 
L 167.963747 49.666173 
L 166.18621 49.4923 
L 164.408673 49.4923 
L 162.631136 49.318427 
L 160.853599 49.318427 
L 159.076062 49.144554 
L 157.298525 48.970681 
L 155.520988 48.970681 
L 153.743451 48.796807 
L 151.965914 48.622934 
L 150.188378 48.622934 
L 148.410841 48.449061 
L 146.633304 48.275188 
L 144.855767 48.101315 
L 143.07823 47.927441 
L 141.300693 47.753568 
L 139.523156 47.579695 
L 137.745619 47.405822 
L 135.968082 47.231949 
L 134.190545 46.884202 
L 132.413008 46.710329 
L 130.635471 46.362582 
L 128.857934 46.014836 
L 127.080397 45.66709 
L 125.30286 45.319343 
L 123.525323 44.971597 
L 121.747786 44.62385 
L 119.970249 44.276104 
L 118.192712 43.928358 
L 116.415175 43.580611 
L 114.637638 43.406738 
L 112.860101 43.058992 
L 111.082564 42.885118 
L 109.305027 42.711245 
L 107.527491 42.537372 
L 105.749954 42.363499 
L 103.972417 42.189626 
L 102.19488 42.015752 
L 100.417343 41.841879 
L 98.639806 41.668006 
L 96.862269 41.668006 
L 95.084732 41.494133 
L 93.307195 41.32026 
L 91.529658 41.32026 
L 89.752121 41.146386 
L 87.974584 40.972513 
L 86.197047 40.972513 
L 84.41951 40.79864 
L 82.641973 40.79864 
L 80.864436 40.624767 
L 79.086899 40.624767 
L 77.309362 40.450893 
L 75.531825 40.450893 
L 73.754288 40.27702 
L 71.976751 40.27702 
L 70.199214 40.103147 
L 68.421677 40.103147 
L 66.64414 39.929274 
L 64.866604 39.929274 
L 63.089067 39.755401 
L 61.31153 39.755401 
L 59.533993 39.581527 
L 57.756456 39.581527 
L 55.978919 39.407654 
L 54.201382 39.407654 
L 52.423845 39.233781 
L 50.646308 39.233781 
L 48.868771 39.059908 
L 47.091234 39.059908 
L 45.313697 38.886035 
L 43.53616 38.886035 
L 41.758623 38.712161 
L 39.981086 38.538288 
L 38.203549 38.538288 
L 36.426012 38.364415 
" clip-path="url(#p9dada8c3c3)" style="fill: none; stroke: #8f0da4; stroke-opacity: 0.6; stroke-width: 0.8; stroke-linecap: square"/>
   </g>
   <g id="LineCollection_3">
    <path d="M 192.849265 67.36817 
L 192.849265 63.690275 
" clip-path="url(#p9dada8c3c3)" style="fill: none; stroke: #cc4778; stroke-width: 0.7"/>
    <path d="M 173.296358 64.536798 
L 173.296358 63.439939 
" clip-path="url(#p9dada8c3c3)" style="fill: none; stroke: #cc4778; stroke-width: 0.7"/>
    <path d="M 153.743451 62.80332 
L 153.743451 61.772848 
" clip-path="url(#p9dada8c3c3)" style="fill: none; stroke: #cc4778; stroke-width: 0.7"/>
    <path d="M 134.190545 62.317473 
L 134.190545 61.127249 
" clip-path="url(#p9dada8c3c3)" style="fill: none; stroke: #cc4778; stroke-width: 0.7"/>
    <path d="M 114.637638 62.226912 
L 114.637638 58.414392 
" clip-path="url(#p9dada8c3c3)" style="fill: none; stroke: #cc4778; stroke-width: 0.7"/>
    <path d="M 95.084732 58.417595 
L 95.084732 57.219375 
" clip-path="url(#p9dada8c3c3)" style="fill: none; stroke: #cc4778; stroke-width: 0.7"/>
    <path d="M 75.531825 57.20251 
L 75.531825 56.049917 
" clip-path="url(#p9dada8c3c3)" style="fill: none; stroke: #cc4778; stroke-width: 0.7"/>
    <path d="M 55.978919 58.101041 
L 55.978919 50.752209 
" clip-path="url(#p9dada8c3c3)" style="fill: none; stroke: #cc4778; stroke-width: 0.7"/>
    <path d="M 36.426012 53.644923 
L 36.426012 52.720674 
" clip-path="url(#p9dada8c3c3)" style="fill: none; stroke: #cc4778; stroke-width: 0.7"/>
   </g>
   <g id="line2d_17">
    <path d="M 212.402171 37.331138 
L 192.849265 35.592406 
L 173.296358 33.853674 
L 153.743451 32.114942 
L 134.190545 30.37621 
L 114.637638 28.637478 
L 95.084732 26.898746 
L 75.531825 25.160014 
L 55.978919 23.421281 
L 36.426012 21.682549 
L 30.824517 21.184439 
" clip-path="url(#p9dada8c3c3)" style="fill: none; stroke-dasharray: 4.44,1.92; stroke-dashoffset: 0; stroke: #41049d; stroke-opacity: 0.7; stroke-width: 1.2"/>
   </g>
   <g id="line2d_18">
    <path d="M 212.402171 38.364415 
L 210.624634 38.190542 
L 208.847097 38.190542 
L 207.06956 38.016669 
L 205.292023 37.842795 
L 203.514486 37.668922 
L 201.736949 37.495049 
L 199.959412 37.321176 
L 198.181875 37.147303 
L 196.404338 36.973429 
L 194.626801 36.799556 
L 192.849265 36.45181 
L 191.071728 36.277937 
L 189.294191 35.93019 
L 187.516654 35.582444 
L 185.739117 35.234697 
L 183.96158 34.886951 
L 182.184043 34.539204 
L 180.406506 34.191458 
L 178.628969 33.843712 
L 176.851432 33.495965 
L 175.073895 33.148219 
L 173.296358 32.974346 
L 171.518821 32.626599 
L 169.741284 32.452726 
L 167.963747 32.278853 
L 166.18621 32.10498 
L 164.408673 31.931106 
L 162.631136 31.757233 
L 160.853599 31.58336 
L 159.076062 31.409487 
L 157.298525 31.235614 
L 155.520988 31.235614 
L 153.743451 31.06174 
L 151.965914 30.887867 
L 150.188378 30.887867 
L 148.410841 30.713994 
L 146.633304 30.540121 
L 144.855767 30.540121 
L 143.07823 30.366248 
L 141.300693 30.366248 
L 139.523156 30.192374 
L 137.745619 30.192374 
L 135.968082 30.018501 
L 134.190545 30.018501 
L 132.413008 29.844628 
L 130.635471 29.844628 
L 128.857934 29.670755 
L 127.080397 29.670755 
L 125.30286 29.496881 
L 123.525323 29.496881 
L 121.747786 29.323008 
L 119.970249 29.323008 
L 118.192712 29.149135 
L 116.415175 29.149135 
L 114.637638 28.975262 
L 112.860101 28.975262 
L 111.082564 28.801389 
L 109.305027 28.801389 
L 107.527491 28.627515 
L 105.749954 28.627515 
L 103.972417 28.453642 
L 102.19488 28.453642 
L 100.417343 28.279769 
L 98.639806 28.105896 
L 96.862269 28.105896 
L 95.084732 27.932023 
L 93.307195 27.758149 
L 91.529658 27.758149 
L 89.752121 27.584276 
L 87.974584 27.410403 
L 86.197047 27.23653 
L 84.41951 27.062657 
L 82.641973 26.888783 
L 80.864436 26.71491 
L 79.086899 26.541037 
L 77.309362 26.367164 
L 75.531825 26.019417 
L 73.754288 25.845544 
L 71.976751 25.497798 
L 70.199214 25.150051 
L 68.421677 24.802305 
L 66.64414 24.454558 
L 64.866604 24.106812 
L 63.089067 23.759066 
L 61.31153 23.411319 
L 59.533993 23.063573 
L 57.756456 22.715826 
L 55.978919 22.541953 
L 54.201382 22.194207 
L 52.423845 22.020334 
L 50.646308 21.84646 
L 48.868771 21.672587 
L 47.091234 21.498714 
L 45.313697 21.324841 
L 43.53616 21.150968 
L 41.758623 20.977094 
L 39.981086 20.803221 
L 38.203549 20.803221 
L 36.426012 20.629348 
" clip-path="url(#p9dada8c3c3)" style="fill: none; stroke: #41049d; stroke-opacity: 0.6; stroke-width: 0.8; stroke-linecap: square"/>
   </g>
   <g id="LineCollection_4">
    <path d="M 192.849265 23.021486 
L 192.849265 20.583405 
" clip-path="url(#p9dada8c3c3)" style="fill: none; stroke: #f2844b; stroke-width: 0.7"/>
    <path d="M 173.296358 18.077405 
L 173.296358 15.713283 
" clip-path="url(#p9dada8c3c3)" style="fill: none; stroke: #f2844b; stroke-width: 0.7"/>
    <path d="M 153.743451 15.388832 
L 153.743451 14.392702 
" clip-path="url(#p9dada8c3c3)" style="fill: none; stroke: #f2844b; stroke-width: 0.7"/>
    <path d="M 134.190545 13.692027 
L 134.190545 12.577287 
" clip-path="url(#p9dada8c3c3)" style="fill: none; stroke: #f2844b; stroke-width: 0.7"/>
    <path d="M 114.637638 15.07666 
L 114.637638 7.132864 
" clip-path="url(#p9dada8c3c3)" style="fill: none; stroke: #f2844b; stroke-width: 0.7"/>
    <path d="M 95.084732 14.088982 
L 95.084732 12.79902 
" clip-path="url(#p9dada8c3c3)" style="fill: none; stroke: #f2844b; stroke-width: 0.7"/>
    <path d="M 75.531825 9.930355 
L 75.531825 8.075828 
" clip-path="url(#p9dada8c3c3)" style="fill: none; stroke: #f2844b; stroke-width: 0.7"/>
    <path d="M 55.978919 8.838263 
L 55.978919 4.028264 
" clip-path="url(#p9dada8c3c3)" style="fill: none; stroke: #f2844b; stroke-width: 0.7"/>
    <path d="M 36.426012 5.44943 
L 36.426012 3.725673 
" clip-path="url(#p9dada8c3c3)" style="fill: none; stroke: #f2844b; stroke-width: 0.7"/>
   </g>
   <g id="line2d_19">
    <path d="M 212.402171 21.682549 
L 192.849265 19.943817 
L 173.296358 18.205085 
L 153.743451 16.466353 
L 134.190545 14.727621 
L 114.637638 12.988889 
L 95.084732 11.250157 
L 75.531825 9.511425 
L 55.978919 7.772693 
L 36.426012 6.033961 
L 30.824517 5.535851 
" clip-path="url(#p9dada8c3c3)" style="fill: none; stroke-dasharray: 4.44,1.92; stroke-dashoffset: 0; stroke: #f2844b; stroke-opacity: 0.7; stroke-width: 1.2"/>
   </g>
   <g id="line2d_20">
    <path d="M 212.402171 20.629348 
L 210.624634 20.455475 
L 208.847097 20.455475 
L 207.06956 20.281602 
L 205.292023 20.107728 
L 203.514486 20.107728 
L 201.736949 19.933855 
L 199.959412 19.933855 
L 198.181875 19.759982 
L 196.404338 19.759982 
L 194.626801 19.586109 
L 192.849265 19.586109 
L 191.071728 19.412236 
L 189.294191 19.412236 
L 187.516654 19.238362 
L 185.739117 19.238362 
L 183.96158 19.064489 
L 182.184043 19.064489 
L 180.406506 18.890616 
L 178.628969 18.890616 
L 176.851432 18.716743 
L 175.073895 18.716743 
L 173.296358 18.542869 
L 171.518821 18.542869 
L 169.741284 18.368996 
L 167.963747 18.368996 
L 166.18621 18.195123 
L 164.408673 18.195123 
L 162.631136 18.02125 
L 160.853599 18.02125 
L 159.076062 17.847377 
L 157.298525 17.673503 
L 155.520988 17.673503 
L 153.743451 17.49963 
L 151.965914 17.325757 
L 150.188378 17.325757 
L 148.410841 17.151884 
L 146.633304 16.978011 
L 144.855767 16.804137 
L 143.07823 16.630264 
L 141.300693 16.456391 
L 139.523156 16.282518 
L 137.745619 16.108645 
L 135.968082 15.934771 
L 134.190545 15.587025 
L 132.413008 15.413152 
L 130.635471 15.065405 
L 128.857934 14.717659 
L 127.080397 14.369913 
L 125.30286 14.022166 
L 123.525323 13.67442 
L 121.747786 13.326673 
L 119.970249 12.978927 
L 118.192712 12.63118 
L 116.415175 12.283434 
L 114.637638 12.109561 
L 112.860101 11.761814 
L 111.082564 11.587941 
L 109.305027 11.414068 
L 107.527491 11.240195 
L 105.749954 11.066322 
L 103.972417 10.892448 
L 102.19488 10.718575 
L 100.417343 10.544702 
L 98.639806 10.370829 
L 96.862269 10.370829 
L 95.084732 10.196956 
L 93.307195 10.023082 
L 91.529658 10.023082 
L 89.752121 9.849209 
L 87.974584 9.675336 
L 86.197047 9.675336 
L 84.41951 9.501463 
L 82.641973 9.501463 
L 80.864436 9.32759 
L 79.086899 9.32759 
L 77.309362 9.153716 
L 75.531825 9.153716 
L 73.754288 8.979843 
L 71.976751 8.979843 
L 70.199214 8.80597 
L 68.421677 8.80597 
L 66.64414 8.632097 
L 64.866604 8.632097 
L 63.089067 8.458224 
L 61.31153 8.458224 
L 59.533993 8.28435 
L 57.756456 8.28435 
L 55.978919 8.110477 
L 54.201382 8.110477 
L 52.423845 7.936604 
L 50.646308 7.936604 
L 48.868771 7.762731 
L 47.091234 7.762731 
L 45.313697 7.588857 
L 43.53616 7.588857 
L 41.758623 7.414984 
L 39.981086 7.241111 
L 38.203549 7.241111 
L 36.426012 7.067238 
" clip-path="url(#p9dada8c3c3)" style="fill: none; stroke: #f2844b; stroke-opacity: 0.6; stroke-width: 0.8; stroke-linecap: square"/>
   </g>
   <g id="line2d_21">
    <path d="M 155.903451 74.941562 
L 151.583451 68.001456 
" style="fill: none; stroke: #444444; stroke-width: 1.5; stroke-linecap: square"/>
   </g>
   <g id="line2d_22">
    <path d="M 113.887478 75.417508 
L 115.387798 67.52551 
" style="fill: none; stroke: #444444; stroke-width: 1.5; stroke-linecap: square"/>
   </g>
   <g id="line2d_23">
    <path d="M 72.222513 74.047077 
L 78.841137 68.895941 
" style="fill: none; stroke: #444444; stroke-width: 1.5; stroke-linecap: square"/>
   </g>
   <g id="line2d_24">
    <path d="M 32.106012 71.471509 
L 40.746012 71.471509 
" style="fill: none; stroke: #444444; stroke-width: 1.5; stroke-linecap: square"/>
   </g>
   <g id="line2d_25"/>
   <g id="line2d_26"/>
   <g id="line2d_27"/>
   <g id="line2d_28"/>
   <g id="patch_3">
    <path d="M 28.02377 81.964812 
L 28.02377 0 
" style="fill: none; stroke: #000000; stroke-width: 0.8; stroke-linejoin: miter; stroke-linecap: square"/>
   </g>
   <g id="patch_4">
    <path d="M 215.202919 81.964812 
L 215.202919 0 
" style="fill: none; stroke: #000000; stroke-width: 0.8; stroke-linejoin: miter; stroke-linecap: square"/>
   </g>
   <g id="patch_5">
    <path d="M 28.02377 81.964812 
L 215.202919 81.964812 
" style="fill: none; stroke: #000000; stroke-width: 0.8; stroke-linejoin: miter; stroke-linecap: square"/>
   </g>
   <g id="patch_6">
    <path d="M 28.02377 0 
L 215.202919 0 
" style="fill: none; stroke: #000000; stroke-width: 0.8; stroke-linejoin: miter; stroke-linecap: square"/>
   </g>
   <g id="patch_7">
    <path d="M 157.08033 76.832225 
Q 153.743451 71.471509 150.406573 66.110793 
" style="fill: none"/>
    <path d="M 156.664444 72.379469 
L 157.08033 76.832225 
L 153.268594 74.49328 
z
" style="fill: #444444"/>
    <path d="M 150.822459 70.563549 
L 150.406573 66.110793 
L 154.218309 68.449738 
z
" style="fill: #444444"/>
   </g>
   <g id="patch_8">
    <path d="M 113.481463 77.553235 
Q 114.637638 71.471509 115.793814 65.389783 
" style="fill: none"/>
    <path d="M 116.19332 73.997137 
L 113.481463 77.553235 
L 112.263699 73.250091 
z
" style="fill: #444444"/>
    <path d="M 113.081957 68.945881 
L 115.793814 65.389783 
L 117.011578 69.692927 
z
" style="fill: #444444"/>
   </g>
   <g id="patch_9">
    <path d="M 70.402261 75.463741 
Q 75.531825 71.471509 80.66139 67.479277 
" style="fill: none"/>
    <path d="M 74.787277 74.585314 
L 70.402261 75.463741 
L 72.330529 71.428672 
z
" style="fill: #444444"/>
    <path d="M 76.276374 68.357704 
L 80.66139 67.479277 
L 78.733122 71.514346 
z
" style="fill: #444444"/>
   </g>
   <g id="patch_10">
    <path d="M 29.704538 71.471509 
Q 36.426012 71.471509 43.147487 71.471509 
" style="fill: none"/>
    <path d="M 33.704538 73.471509 
L 29.704538 71.471509 
L 33.704538 69.471509 
z
" style="fill: #444444"/>
    <path d="M 39.147487 69.471509 
L 43.147487 71.471509 
L 39.147487 73.471509 
z
" style="fill: #444444"/>
   </g>
  </g>
 </g>
 <defs>
  <clipPath id="p9dada8c3c3">
   <rect x="28.02377" y="0" width="187.179149" height="81.964812"/>
  </clipPath>
 </defs>
</svg>
