<?xml version="1.0" encoding="utf-8" standalone="no"?>
<!DOCTYPE svg PUBLIC "-//W3C//DTD SVG 1.1//EN"
  "http://www.w3.org/Graphics/SVG/1.1/DTD/svg11.dtd">
<svg xmlns:xlink="http://www.w3.org/1999/xlink" width="56.692913pt" height="85.03937pt" viewBox="0 0 56.692913 85.03937" xmlns="http://www.w3.org/2000/svg" version="1.1">
 <metadata>
  <rdf:RDF xmlns:dc="http://purl.org/dc/elements/1.1/" xmlns:cc="http://creativecommons.org/ns#" xmlns:rdf="http://www.w3.org/1999/02/22-rdf-syntax-ns#">
   <cc:Work>
    <dc:type rdf:resource="http://purl.org/dc/dcmitype/StillImage"/>
    <dc:date>2026-02-12T16:33:45.904556</dc:date>
    <dc:format>image/svg+xml</dc:format>
    <dc:creator>
     <cc:Agent>
      <dc:title>Matplotlib v3.9.0, https://matplotlib.org/</dc:title>
     </cc:Agent>
    </dc:creator>
   </cc:Work>
  </rdf:RDF>
 </metadata>
 <defs>
  <style type="text/css">*{stroke-linejoin: round; stroke-linecap: butt}</style>
 </defs>
 <g id="figure_1">
  <g id="patch_1">
   <path d="M 0 85.03937 
L 56.692913 85.03937 
L 56.692913 0 
L 0 0 
L 0 85.03937 
z
" style="fill: none"/>
  </g>
  <g id="axes_1">
   <g id="patch_2">
    <path d="M 5.099533 78.590031 
Q 12.538548 78.590031 19.418547 78.590031 
" clip-path="url(#p7470229d72)" style="fill: none; stroke: #000000; stroke-width: 0.5; stroke-linecap: round"/>
    <path d="M 17.418547 77.590031 
L 19.418547 78.590031 
L 17.418547 79.590031 
z
" clip-path="url(#p7470229d72)" style="stroke: #000000; stroke-width: 0.5; stroke-linecap: round"/>
   </g>
   <g id="patch_3">
    <path d="M 5.099533 78.590031 
Q 5.099533 71.151015 5.099533 64.271016 
" clip-path="url(#p7470229d72)" style="fill: none; stroke: #000000; stroke-width: 0.5; stroke-linecap: round"/>
    <path d="M 4.099533 66.271016 
L 5.099533 64.271016 
L 6.099533 66.271016 
z
" clip-path="url(#p7470229d72)" style="stroke: #000000; stroke-width: 0.5; stroke-linecap: round"/>
   </g>
   <g id="patch_4">
    <path d="M 54.115963 50.693722 
Q 49.686829 48.13656 45.741818 45.858907 
" clip-path="url(#p7470229d72)" style="fill: none; stroke: #ff0000; stroke-width: 0.5; stroke-linecap: round"/>
    <path d="M 46.973869 47.724933 
L 45.741818 45.858907 
L 47.973869 45.992882 
z
" clip-path="url(#p7470229d72)" style="fill: #ff0000; stroke: #ff0000; stroke-width: 0.5; stroke-linecap: round"/>
   </g>
   <g id="patch_5">
    <path d="M 28.346457 6.059628 
Q 28.346457 11.173951 28.346457 15.729258 
" clip-path="url(#p7470229d72)" style="fill: none; stroke: #ff0000; stroke-width: 0.5; stroke-linecap: round"/>
    <path d="M 29.346457 13.729258 
L 28.346457 15.729258 
L 27.346457 13.729258 
z
" clip-path="url(#p7470229d72)" style="fill: #ff0000; stroke: #ff0000; stroke-width: 0.5; stroke-linecap: round"/>
   </g>
   <g id="patch_6">
    <path d="M 2.576951 50.693722 
Q 7.006084 48.13656 10.951095 45.858907 
" clip-path="url(#p7470229d72)" style="fill: none; stroke: #ff0000; stroke-width: 0.5; stroke-linecap: round"/>
    <path d="M 8.719045 45.992882 
L 10.951095 45.858907 
L 9.719045 47.724933 
z
" clip-path="url(#p7470229d72)" style="fill: #ff0000; stroke: #ff0000; stroke-width: 0.5; stroke-linecap: round"/>
   </g>
   <g id="line2d_1">
    <path d="M 12.240515 35.815691 
L 20.293486 49.763845 
" clip-path="url(#p7470229d72)" style="fill: none; stroke: #000000; stroke-width: 1.5; stroke-linecap: square"/>
   </g>
   <g id="line2d_2">
    <path d="M 12.240515 35.815691 
L 4.187545 35.815691 
" clip-path="url(#p7470229d72)" style="fill: none; stroke: #000000; stroke-width: 1.5; stroke-linecap: square"/>
   </g>
   <g id="line2d_3">
    <path d="M 20.293486 49.763845 
L 36.399427 49.763845 
" clip-path="url(#p7470229d72)" style="fill: none; stroke: #000000; stroke-width: 1.5; stroke-linecap: square"/>
   </g>
   <g id="line2d_4">
    <path d="M 20.293486 49.763845 
L 16.267001 56.737922 
" clip-path="url(#p7470229d72)" style="fill: none; stroke: #000000; stroke-width: 1.5; stroke-linecap: square"/>
   </g>
   <g id="line2d_5">
    <path d="M 36.399427 49.763845 
L 44.452398 35.815691 
" clip-path="url(#p7470229d72)" style="fill: none; stroke: #000000; stroke-width: 1.5; stroke-linecap: square"/>
   </g>
   <g id="line2d_6">
    <path d="M 36.399427 49.763845 
L 40.425913 56.737922 
" clip-path="url(#p7470229d72)" style="fill: none; stroke: #000000; stroke-width: 1.5; stroke-linecap: square"/>
   </g>
   <g id="line2d_7">
    <path d="M 44.452398 35.815691 
L 36.399427 21.867536 
" clip-path="url(#p7470229d72)" style="fill: none; stroke: #000000; stroke-width: 1.5; stroke-linecap: square"/>
   </g>
   <g id="line2d_8">
    <path d="M 44.452398 35.815691 
L 52.505369 35.815691 
" clip-path="url(#p7470229d72)" style="fill: none; stroke: #000000; stroke-width: 1.5; stroke-linecap: square"/>
   </g>
   <g id="line2d_9">
    <path d="M 47.673586 33.955937 
L 50.894775 32.096183 
" clip-path="url(#p7470229d72)" style="fill: none; stroke: #000000; stroke-width: 0.5; stroke-linecap: square"/>
   </g>
   <g id="line2d_10">
    <path d="M 39.620616 20.007782 
L 42.841804 18.148029 
" clip-path="url(#p7470229d72)" style="fill: none; stroke: #000000; stroke-width: 0.5; stroke-linecap: square"/>
   </g>
   <g id="line2d_11">
    <path d="M 49.28418 33.02606 
L 41.23121 19.077905 
" clip-path="url(#p7470229d72)" style="fill: none; stroke: #000000; stroke-width: 0.5; stroke-linecap: square"/>
   </g>
   <g id="line2d_12">
    <path d="M 36.399427 21.867536 
L 20.293486 21.867536 
" clip-path="url(#p7470229d72)" style="fill: none; stroke: #000000; stroke-width: 1.5; stroke-linecap: square"/>
   </g>
   <g id="line2d_13">
    <path d="M 36.399427 21.867536 
L 40.425913 14.893459 
" clip-path="url(#p7470229d72)" style="fill: none; stroke: #000000; stroke-width: 1.5; stroke-linecap: square"/>
   </g>
   <g id="line2d_14">
    <path d="M 20.293486 21.867536 
L 12.240515 35.815691 
" clip-path="url(#p7470229d72)" style="fill: none; stroke: #000000; stroke-width: 1.5; stroke-linecap: square"/>
   </g>
   <g id="line2d_15">
    <path d="M 20.293486 21.867536 
L 16.267001 14.893459 
" clip-path="url(#p7470229d72)" style="fill: none; stroke: #000000; stroke-width: 1.5; stroke-linecap: square"/>
   </g>
   <g id="text_1">
    <!-- $A$ -->
    <g transform="translate(20.293486 30.90595) scale(0.07 -0.07)">
     <defs>
      <path id="DejaVuSans-Oblique-41" d="M 2356 4666 
L 3072 4666 
L 3938 0 
L 3278 0 
L 3084 1197 
L 984 1197 
L 325 0 
L -341 0 
L 2356 4666 
z
M 2584 4044 
L 1275 1722 
L 2988 1722 
L 2584 4044 
z
" transform="scale(0.015625)"/>
     </defs>
     <use xlink:href="#DejaVuSans-Oblique-41" transform="translate(0 0.09375)"/>
    </g>
   </g>
   <g id="text_2">
    <!-- $B$ -->
    <g transform="translate(31.569427 30.90595) scale(0.07 -0.07)">
     <defs>
      <path id="DejaVuSans-Oblique-42" d="M 1081 4666 
L 2694 4666 
Q 3350 4666 3675 4422 
Q 4000 4178 4000 3688 
Q 4000 3238 3720 2911 
Q 3441 2584 2988 2516 
Q 3375 2428 3569 2181 
Q 3763 1934 3763 1522 
Q 3763 819 3242 409 
Q 2722 0 1819 0 
L 172 0 
L 1081 4666 
z
M 1234 2228 
L 903 519 
L 1919 519 
Q 2491 519 2800 781 
Q 3109 1044 3109 1522 
Q 3109 1891 2904 2059 
Q 2700 2228 2247 2228 
L 1234 2228 
z
M 1606 4147 
L 1331 2741 
L 2272 2741 
Q 2775 2741 3058 2959 
Q 3341 3178 3341 3566 
Q 3341 3869 3150 4008 
Q 2959 4147 2541 4147 
L 1606 4147 
z
" transform="scale(0.015625)"/>
     </defs>
     <use xlink:href="#DejaVuSans-Oblique-42" transform="translate(0 0.09375)"/>
    </g>
   </g>
   <g id="text_3">
    <!-- $a_{\text{hc}}$ -->
    <g transform="translate(45.382275 25.991017) scale(0.07 -0.07)">
     <defs>
      <path id="DejaVuSans-Oblique-61" d="M 3438 1997 
L 3047 0 
L 2472 0 
L 2578 531 
Q 2325 219 2001 64 
Q 1678 -91 1281 -91 
Q 834 -91 548 182 
Q 263 456 263 884 
Q 263 1497 752 1853 
Q 1241 2209 2100 2209 
L 2900 2209 
L 2931 2363 
Q 2938 2388 2941 2417 
Q 2944 2447 2944 2509 
Q 2944 2788 2717 2942 
Q 2491 3097 2081 3097 
Q 1800 3097 1504 3025 
Q 1209 2953 897 2809 
L 997 3341 
Q 1322 3463 1633 3523 
Q 1944 3584 2234 3584 
Q 2853 3584 3176 3315 
Q 3500 3047 3500 2534 
Q 3500 2431 3484 2292 
Q 3469 2153 3438 1997 
z
M 2816 1759 
L 2241 1759 
Q 1534 1759 1195 1570 
Q 856 1381 856 984 
Q 856 709 1029 553 
Q 1203 397 1509 397 
Q 1978 397 2328 733 
Q 2678 1069 2791 1631 
L 2816 1759 
z
" transform="scale(0.015625)"/>
      <path id="DejaVuSans-68" d="M 3513 2113 
L 3513 0 
L 2938 0 
L 2938 2094 
Q 2938 2591 2744 2837 
Q 2550 3084 2163 3084 
Q 1697 3084 1428 2787 
Q 1159 2491 1159 1978 
L 1159 0 
L 581 0 
L 581 4863 
L 1159 4863 
L 1159 2956 
Q 1366 3272 1645 3428 
Q 1925 3584 2291 3584 
Q 2894 3584 3203 3211 
Q 3513 2838 3513 2113 
z
" transform="scale(0.015625)"/>
      <path id="DejaVuSans-63" d="M 3122 3366 
L 3122 2828 
Q 2878 2963 2633 3030 
Q 2388 3097 2138 3097 
Q 1578 3097 1268 2742 
Q 959 2388 959 1747 
Q 959 1106 1268 751 
Q 1578 397 2138 397 
Q 2388 397 2633 464 
Q 2878 531 3122 666 
L 3122 134 
Q 2881 22 2623 -34 
Q 2366 -91 2075 -91 
Q 1284 -91 818 406 
Q 353 903 353 1747 
Q 353 2603 823 3093 
Q 1294 3584 2113 3584 
Q 2378 3584 2631 3529 
Q 2884 3475 3122 3366 
z
" transform="scale(0.015625)"/>
     </defs>
     <use xlink:href="#DejaVuSans-Oblique-61"/>
     <use xlink:href="#DejaVuSans-68" transform="translate(61.279297 -16.40625) scale(0.7)"/>
     <use xlink:href="#DejaVuSans-63" transform="translate(105.644531 -16.40625) scale(0.7)"/>
    </g>
   </g>
   <g id="text_4">
    <!-- $x$ -->
    <g transform="translate(19.977564 76.730277) scale(0.07 -0.07)">
     <defs>
      <path id="DejaVuSans-Oblique-78" d="M 3841 3500 
L 2234 1784 
L 3219 0 
L 2559 0 
L 1819 1388 
L 531 0 
L -166 0 
L 1556 1844 
L 641 3500 
L 1300 3500 
L 1972 2234 
L 3144 3500 
L 3841 3500 
z
" transform="scale(0.015625)"/>
     </defs>
     <use xlink:href="#DejaVuSans-Oblique-78" transform="translate(0 0.3125)"/>
    </g>
   </g>
   <g id="text_5">
    <!-- $y$ -->
    <g transform="translate(8.819041 67.431507) scale(0.07 -0.07)">
     <defs>
      <path id="DejaVuSans-Oblique-79" d="M 1588 -325 
Q 1188 -997 936 -1164 
Q 684 -1331 294 -1331 
L -159 -1331 
L -63 -850 
L 269 -850 
Q 509 -850 678 -719 
Q 847 -588 1056 -206 
L 1234 128 
L 459 3500 
L 1069 3500 
L 1650 819 
L 3256 3500 
L 3859 3500 
L 1588 -325 
z
" transform="scale(0.015625)"/>
     </defs>
     <use xlink:href="#DejaVuSans-Oblique-79" transform="translate(0 0.3125)"/>
    </g>
   </g>
   <g id="text_6">
    <!-- $\delta_1(t)$ -->
    <g transform="translate(1.089147 57.202861) scale(0.06 -0.06)">
     <defs>
      <path id="DejaVuSans-Oblique-3b4" d="M 3472 4053 
Q 3197 4272 2450 4272 
Q 1659 4272 1588 3906 
Q 1531 3619 2328 3469 
Q 2953 3353 3253 3003 
Q 3616 2581 3447 1716 
Q 3284 888 2763 400 
Q 2238 -91 1488 -91 
Q 741 -91 406 400 
Q 72 888 241 1747 
Q 363 2384 891 2900 
Q 1097 3100 1353 3213 
Q 913 3459 1000 3900 
Q 1166 4750 2544 4750 
Q 3234 4750 3566 4531 
L 3472 4053 
z
M 1753 3056 
Q 1525 2966 1306 2738 
Q 969 2384 847 1747 
Q 722 1113 919 756 
Q 1119 397 1584 397 
Q 2044 397 2381 759 
Q 2722 1122 2838 1716 
Q 2956 2338 2731 2638 
Q 2491 2959 2103 2994 
Q 1906 3013 1753 3056 
z
" transform="scale(0.015625)"/>
      <path id="DejaVuSans-31" d="M 794 531 
L 1825 531 
L 1825 4091 
L 703 3866 
L 703 4441 
L 1819 4666 
L 2450 4666 
L 2450 531 
L 3481 531 
L 3481 0 
L 794 0 
L 794 531 
z
" transform="scale(0.015625)"/>
      <path id="DejaVuSans-28" d="M 1984 4856 
Q 1566 4138 1362 3434 
Q 1159 2731 1159 2009 
Q 1159 1288 1364 580 
Q 1569 -128 1984 -844 
L 1484 -844 
Q 1016 -109 783 600 
Q 550 1309 550 2009 
Q 550 2706 781 3412 
Q 1013 4119 1484 4856 
L 1984 4856 
z
" transform="scale(0.015625)"/>
      <path id="DejaVuSans-Oblique-74" d="M 2706 3500 
L 2619 3053 
L 1472 3053 
L 1100 1153 
Q 1081 1047 1072 975 
Q 1063 903 1063 863 
Q 1063 663 1183 572 
Q 1303 481 1569 481 
L 2150 481 
L 2053 0 
L 1503 0 
Q 991 0 739 200 
Q 488 400 488 806 
Q 488 878 497 964 
Q 506 1050 525 1153 
L 897 3053 
L 409 3053 
L 500 3500 
L 978 3500 
L 1172 4494 
L 1747 4494 
L 1556 3500 
L 2706 3500 
z
" transform="scale(0.015625)"/>
      <path id="DejaVuSans-29" d="M 513 4856 
L 1013 4856 
Q 1481 4119 1714 3412 
Q 1947 2706 1947 2009 
Q 1947 1309 1714 600 
Q 1481 -109 1013 -844 
L 513 -844 
Q 928 -128 1133 580 
Q 1338 1288 1338 2009 
Q 1338 2731 1133 3434 
Q 928 4138 513 4856 
z
" transform="scale(0.015625)"/>
     </defs>
     <use xlink:href="#DejaVuSans-Oblique-3b4" transform="translate(0 0.125)"/>
     <use xlink:href="#DejaVuSans-31" transform="translate(61.181641 -16.28125) scale(0.7)"/>
     <use xlink:href="#DejaVuSans-28" transform="translate(108.452148 0.125)"/>
     <use xlink:href="#DejaVuSans-Oblique-74" transform="translate(147.46582 0.125)"/>
     <use xlink:href="#DejaVuSans-29" transform="translate(186.674805 0.125)"/>
    </g>
   </g>
   <g id="text_7">
    <!-- $\delta_2(t)$ -->
    <g transform="translate(42.399513 57.202861) scale(0.06 -0.06)">
     <defs>
      <path id="DejaVuSans-32" d="M 1228 531 
L 3431 531 
L 3431 0 
L 469 0 
L 469 531 
Q 828 903 1448 1529 
Q 2069 2156 2228 2338 
Q 2531 2678 2651 2914 
Q 2772 3150 2772 3378 
Q 2772 3750 2511 3984 
Q 2250 4219 1831 4219 
Q 1534 4219 1204 4116 
Q 875 4013 500 3803 
L 500 4441 
Q 881 4594 1212 4672 
Q 1544 4750 1819 4750 
Q 2544 4750 2975 4387 
Q 3406 4025 3406 3419 
Q 3406 3131 3298 2873 
Q 3191 2616 2906 2266 
Q 2828 2175 2409 1742 
Q 1991 1309 1228 531 
z
" transform="scale(0.015625)"/>
     </defs>
     <use xlink:href="#DejaVuSans-Oblique-3b4" transform="translate(0 0.125)"/>
     <use xlink:href="#DejaVuSans-32" transform="translate(61.181641 -16.28125) scale(0.7)"/>
     <use xlink:href="#DejaVuSans-28" transform="translate(108.452148 0.125)"/>
     <use xlink:href="#DejaVuSans-Oblique-74" transform="translate(147.46582 0.125)"/>
     <use xlink:href="#DejaVuSans-29" transform="translate(186.674805 0.125)"/>
    </g>
   </g>
   <g id="PathCollection_1">
    <defs>
     <path id="m86b878a519" d="M 0 2 
C 0.530406 2 1.03916 1.789267 1.414214 1.414214 
C 1.789267 1.03916 2 0.530406 2 0 
C 2 -0.530406 1.789267 -1.03916 1.414214 -1.414214 
C 1.03916 -1.789267 0.530406 -2 0 -2 
C -0.530406 -2 -1.03916 -1.789267 -1.414214 -1.414214 
C -1.789267 -1.03916 -2 -0.530406 -2 0 
C -2 0.530406 -1.789267 1.03916 -1.414214 1.414214 
C -1.03916 1.789267 -0.530406 2 0 2 
z
" style="stroke: #808080; stroke-width: 0.2"/>
    </defs>
    <g clip-path="url(#p7470229d72)">
     <use xlink:href="#m86b878a519" x="12.240515" y="35.815691" style="stroke: #808080; stroke-width: 0.2"/>
    </g>
   </g>
   <g id="PathCollection_2">
    <defs>
     <path id="me99321d310" d="M 0 2 
C 0.530406 2 1.03916 1.789267 1.414214 1.414214 
C 1.789267 1.03916 2 0.530406 2 0 
C 2 -0.530406 1.789267 -1.03916 1.414214 -1.414214 
C 1.03916 -1.789267 0.530406 -2 0 -2 
C -0.530406 -2 -1.03916 -1.789267 -1.414214 -1.414214 
C -1.789267 -1.03916 -2 -0.530406 -2 0 
C -2 0.530406 -1.789267 1.03916 -1.414214 1.414214 
C -1.03916 1.789267 -0.530406 2 0 2 
z
" style="stroke: #808080; stroke-width: 0.2"/>
    </defs>
    <g clip-path="url(#p7470229d72)">
     <use xlink:href="#me99321d310" x="20.293486" y="49.763845" style="fill: #ffffff; stroke: #808080; stroke-width: 0.2"/>
    </g>
   </g>
   <g id="PathCollection_3">
    <g clip-path="url(#p7470229d72)">
     <use xlink:href="#m86b878a519" x="36.399427" y="49.763845" style="stroke: #808080; stroke-width: 0.2"/>
    </g>
   </g>
   <g id="PathCollection_4">
    <g clip-path="url(#p7470229d72)">
     <use xlink:href="#me99321d310" x="44.452398" y="35.815691" style="fill: #ffffff; stroke: #808080; stroke-width: 0.2"/>
    </g>
   </g>
   <g id="PathCollection_5">
    <g clip-path="url(#p7470229d72)">
     <use xlink:href="#m86b878a519" x="36.399427" y="21.867536" style="stroke: #808080; stroke-width: 0.2"/>
    </g>
   </g>
   <g id="PathCollection_6">
    <g clip-path="url(#p7470229d72)">
     <use xlink:href="#me99321d310" x="20.293486" y="21.867536" style="fill: #ffffff; stroke: #808080; stroke-width: 0.2"/>
    </g>
   </g>
  </g>
 </g>
 <defs>
  <clipPath id="p7470229d72">
   <rect x="0" y="2.413622" width="56.692913" height="80.212125"/>
  </clipPath>
 </defs>
</svg>
